<?xml version="1.0" encoding="UTF-8" standalone="no"?><!DOCTYPE svg PUBLIC "-//W3C//DTD SVG 1.1//EN" "http://www.w3.org/Graphics/SVG/1.1/DTD/svg11.dtd"><svg width="100%" height="100%" viewBox="0 0 86 47" version="1.1" xmlns="http://www.w3.org/2000/svg" xmlns:xlink="http://www.w3.org/1999/xlink" xml:space="preserve" xmlns:serif="http://www.serif.com/" style="fill-rule:evenodd;clip-rule:evenodd;stroke-linejoin:round;stroke-miterlimit:1.41421;"><path d="M81.993,23.585l-20.889,0l0,-3l20.889,0l0,3Z" style="fill:#e11111;"/><path d="M82.894,21.036l0.989,0.989l-2.122,2.121l-1.012,-1.012l-9.358,-9.785l2.168,-2.074l9.335,9.761Z" style="fill:#e11111;"/><path d="M83.882,22.146l-0.988,0.988l-9.335,9.761l-2.168,-2.073l9.358,-9.786l1.012,-1.012l2.121,2.122Z" style="fill:#e11111;"/><g><path d="M2.552,36.097l12.318,-12.318c-0.992,-2.074 -1.551,-4.4 -1.551,-6.853c0,-8.783 7.142,-15.934 15.934,-15.934c8.783,0 15.925,7.151 15.925,15.934c0,8.783 -7.142,15.925 -15.925,15.925c-2.453,0 -4.779,-0.559 -6.853,-1.551l-12.318,12.318c-3.301,2.931 -6.583,0.875 -7.53,0c-0.758,-0.703 -3.012,-4.148 0,-7.521Zm26.701,-5.122c7.746,0 14.049,-6.303 14.049,-14.049c0,-7.746 -6.303,-14.049 -14.049,-14.049c-7.746,0 -14.049,6.303 -14.049,14.049c-0.009,7.746 6.294,14.049 14.049,14.049Zm-25.375,11.317c1.343,1.344 3.525,1.344 4.869,0l11.939,-11.939c-1.957,-1.253 -3.616,-2.913 -4.869,-4.869l-11.939,11.939c-1.921,2.101 -0.65,4.22 0,4.869Z" style="fill:#e11111;fill-rule:nonzero;stroke:#e11111;stroke-width:0.63px;"/><circle cx="7.332" cy="39.019" r="1.443" style="fill:#e11111;"/></g></svg>