<?xml version="1.0" encoding="UTF-8" standalone="no"?><!DOCTYPE svg PUBLIC "-//W3C//DTD SVG 1.1//EN" "http://www.w3.org/Graphics/SVG/1.1/DTD/svg11.dtd"><svg width="100%" height="100%" viewBox="0 0 65 48" version="1.1" xmlns="http://www.w3.org/2000/svg" xmlns:xlink="http://www.w3.org/1999/xlink" xml:space="preserve" xmlns:serif="http://www.serif.com/" style="fill-rule:evenodd;clip-rule:evenodd;stroke-linejoin:round;stroke-miterlimit:1.5;"><g><path d="M61.131,26.567l-19.889,0l0,-3l19.889,0l0,3Z" style="fill:#e11111;"/><path d="M64.136,25.122l-1.17,1.058c0,0 -11.158,10.086 -11.158,10.086l-2.012,-2.226l9.988,-9.028l-9.658,-9.658l2.121,-2.121l11.889,11.889Z" style="fill:#e11111;"/><path d="M9.355,17.218l0,5.018c0,0 4.707,2.874 7.025,7.026c2.318,4.151 -3.772,14.372 -15.054,2.007c0,0 -1.792,14.273 12.043,15.054c11.001,0.621 13.93,-7.205 12.651,-13.631c-0.595,-2.993 -2.889,-5.681 -4.281,-7.072c-1.673,-1.672 -6.362,-4.387 -6.362,-4.387c0,0 -0.037,-0.955 0,-3.011" style="fill:none;stroke:#e11111;stroke-width:2.5px;"/><path d="M4.611,2.253c-0.319,0 -0.618,0.152 -0.806,0.408c-0.189,0.256 -0.244,0.587 -0.149,0.891c1.012,3.237 3.62,11.583 4.393,14.058c0.131,0.417 0.517,0.701 0.955,0.701c1.681,0 5.792,0 7.516,0c0.459,0 0.859,-0.312 0.97,-0.757c0.64,-2.557 2.722,-10.886 3.515,-14.058c0.075,-0.299 0.007,-0.615 -0.182,-0.858c-0.19,-0.243 -0.48,-0.385 -0.788,-0.385c-3.295,0 -12.044,0 -15.424,0Z" style="fill:none;stroke:#e11111;stroke-width:2.5px;stroke-linejoin:miter;"/><circle cx="12.283" cy="7.855" r="1.305" style="fill:#e11111;"/></g></svg>