<?xml version="1.0" encoding="UTF-8" standalone="no"?><!DOCTYPE svg PUBLIC "-//W3C//DTD SVG 1.1//EN" "http://www.w3.org/Graphics/SVG/1.1/DTD/svg11.dtd"><svg width="100%" height="100%" viewBox="0 0 85 45" version="1.1" xmlns="http://www.w3.org/2000/svg" xmlns:xlink="http://www.w3.org/1999/xlink" xml:space="preserve" xmlns:serif="http://www.serif.com/" style="fill-rule:evenodd;clip-rule:evenodd;stroke-linejoin:round;stroke-miterlimit:1.41421;"><path d="M79.759,23.198l-20.889,0l0,-3l20.889,0l0,3Z" style="fill:#e11111;"/><path d="M81.66,20.65l0.988,0.988l-2.121,2.121l-1.011,-1.012l-9.359,-9.785l2.168,-2.074l9.335,9.762Z" style="fill:#e11111;"/><path d="M82.649,21.759l-0.988,0.988l-9.336,9.761l-2.168,-2.073l9.358,-9.785l1.012,-1.012l2.122,2.121Z" style="fill:#e11111;"/><g><circle cx="6.892" cy="37.212" r="1.378" style="fill:#e11111;"/><path d="M43.11,8.65c-0.172,-0.429 -0.549,-0.743 -1.003,-0.836c-0.455,-0.094 -0.923,0.049 -1.25,0.376l-6.802,6.801c-0.537,0.538 -1.412,0.539 -1.949,0.001l-2.993,-2.994c-0.261,-0.26 -0.404,-0.606 -0.404,-0.974c0,-0.368 0.143,-0.714 0.404,-0.974l6.801,-6.803c0.328,-0.327 0.469,-0.797 0.376,-1.251c-0.092,-0.453 -0.407,-0.829 -0.837,-1.002c-2.642,-1.06 -5.52,-1.276 -8.322,-0.626c-5.398,1.254 -9.588,5.773 -10.426,11.246c-0.109,0.723 -0.166,1.452 -0.166,2.167l0,4.942l-14.708,14.709c-1.181,1.18 -1.831,2.751 -1.831,4.42c0,1.671 0.65,3.24 1.831,4.421c1.181,1.181 2.751,1.831 4.421,1.831c1.67,0 3.24,-0.65 4.42,-1.831l14.709,-14.708l4.942,0c0.72,0 1.449,-0.056 2.168,-0.167c5.472,-0.836 9.992,-5.026 11.245,-10.424c0.652,-2.804 0.435,-5.683 -0.626,-8.324Zm-2.059,7.7c-1.001,4.31 -4.609,7.656 -8.977,8.324c-0.582,0.089 -1.171,0.135 -1.751,0.135l-5.513,0c-0.365,0 -0.716,0.144 -0.974,0.403l-15.113,15.112c-1.362,1.362 -3.58,1.362 -4.942,0c-0.661,-0.66 -1.024,-1.538 -1.024,-2.472c0,-0.933 0.363,-1.811 1.024,-2.471l15.111,-15.112c0.259,-0.259 0.404,-0.609 0.404,-0.975l0,-5.513c0,-0.576 0.045,-1.166 0.134,-1.751c0.669,-4.368 4.014,-7.976 8.324,-8.977c0.85,-0.198 1.708,-0.295 2.561,-0.295c0.674,0 1.346,0.061 2.007,0.183l-5.158,5.159c-0.782,0.781 -1.212,1.82 -1.212,2.924c0,1.104 0.43,2.143 1.212,2.924l2.992,2.994c1.614,1.611 4.236,1.609 5.848,-0.001l5.16,-5.159c0.276,1.497 0.241,3.045 -0.113,4.568Z" style="fill:#e11111;fill-rule:nonzero;"/></g></svg>