<?xml version="1.0" encoding="UTF-8" standalone="no"?><!DOCTYPE svg PUBLIC "-//W3C//DTD SVG 1.1//EN" "http://www.w3.org/Graphics/SVG/1.1/DTD/svg11.dtd"><svg width="100%" height="100%" viewBox="0 0 148 73" version="1.1" xmlns="http://www.w3.org/2000/svg" xmlns:xlink="http://www.w3.org/1999/xlink" xml:space="preserve" xmlns:serif="http://www.serif.com/" style="fill-rule:evenodd;clip-rule:evenodd;stroke-linejoin:round;stroke-miterlimit:1.41421;"><g><path d="M112.169,36.72l-19.889,0l0,-3l19.889,0l0,3Z" style="fill:#e11111;"/><path d="M115.174,35.274l-1.17,1.058l-11.158,10.086l-2.012,-2.225l9.988,-9.028l-9.658,-9.658l2.121,-2.121l11.889,11.888Z" style="fill:#e11111;"/></g><clipPath id="_clip1"><rect id="house-3" serif:id="house 3" x="34.337" y="14.655" width="42.912" height="42.912"/></clipPath><g clip-path="url(#_clip1)"><path d="M76.177,33.235c-0.002,-0.001 -0.003,-0.002 -0.004,-0.003l-17.504,-17.504c-0.747,-0.746 -1.739,-1.157 -2.794,-1.157c-1.055,0 -2.047,0.411 -2.793,1.157l-17.496,17.495c-0.006,0.006 -0.012,0.012 -0.018,0.018c-1.532,1.541 -1.529,4.042 0.008,5.579c0.702,0.702 1.629,1.109 2.621,1.152c0.041,0.004 0.081,0.006 0.122,0.006l0.697,0l0,12.881c0,2.55 2.075,4.624 4.624,4.624l6.849,0c0.694,0 1.257,-0.563 1.257,-1.257l0,-10.1c0,-1.163 0.946,-2.109 2.11,-2.109l4.039,0c1.163,0 2.109,0.946 2.109,2.109l0,10.1c0,0.694 0.563,1.257 1.258,1.257l6.848,0c2.55,0 4.624,-2.074 4.624,-4.624l0,-12.881l0.647,0c1.055,0 2.047,-0.411 2.793,-1.158c1.539,-1.539 1.54,-4.044 0.003,-5.585Zm-1.781,3.807c-0.271,0.272 -0.632,0.421 -1.015,0.421l-1.904,0c-0.695,0 -1.258,0.563 -1.258,1.258l0,14.138c0,1.163 -0.946,2.109 -2.109,2.109l-5.591,0l0,-8.842c0,-2.549 -2.074,-4.624 -4.624,-4.624l-4.039,0c-2.55,0 -4.625,2.075 -4.625,4.624l0,8.842l-5.591,0c-1.163,0 -2.109,-0.946 -2.109,-2.109l0,-14.138c0,-0.695 -0.563,-1.258 -1.257,-1.258l-1.872,0c-0.019,-0.001 -0.039,-0.002 -0.059,-0.002c-0.374,-0.007 -0.725,-0.155 -0.989,-0.419c-0.56,-0.56 -0.56,-1.471 0,-2.031c0.001,0 0.001,0 0.001,-0.001l0.001,-0.001l17.504,-17.503c0.271,-0.272 0.632,-0.421 1.015,-0.421c0.384,0 0.744,0.149 1.016,0.421l17.5,17.5c0.002,0.002 0.005,0.005 0.008,0.007c0.557,0.561 0.556,1.47 -0.003,2.029Z" style="fill:#e11111;fill-rule:nonzero;"/></g><path d="M111.45,1.205l0.225,0.002l0.225,0.004l0.225,0.005l0.224,0.006l0.223,0.008l0.224,0.009l0.223,0.011l0.223,0.012l0.222,0.013l0.222,0.015l0.222,0.016l0.221,0.018l0.221,0.018l0.22,0.021l0.22,0.021l0.22,0.024l0.219,0.024l0.219,0.026l0.219,0.027l0.218,0.028l0.217,0.03l0.217,0.031l0.217,0.033l0.217,0.033l0.215,0.036l0.216,0.036l0.215,0.038l0.215,0.039l0.214,0.04l0.213,0.042l0.214,0.043l0.213,0.044l0.212,0.046l0.212,0.047l0.211,0.048l0.211,0.049l0.21,0.051l0.21,0.052l0.209,0.053l0.209,0.055l0.209,0.055l0.207,0.057l0.208,0.058l0.207,0.06l0.206,0.061l0.206,0.062l0.205,0.063l0.205,0.064l0.204,0.066l0.203,0.067l0.204,0.068l0.202,0.069l0.202,0.071l0.201,0.071l0.201,0.073l0.2,0.074l0.2,0.076l0.199,0.076l0.199,0.078l0.197,0.078l0.198,0.08l0.196,0.082l0.196,0.082l0.196,0.083l0.195,0.085l0.194,0.086l0.194,0.086l0.193,0.088l0.192,0.09l0.192,0.09l0.191,0.091l0.19,0.093l0.19,0.094l0.189,0.094l0.189,0.096l0.187,0.097l0.188,0.098l0.186,0.1l0.186,0.1l0.185,0.101l0.185,0.103l0.184,0.103l0.183,0.105l0.182,0.105l0.181,0.107l0.182,0.108l0.18,0.109l0.179,0.109l0.179,0.111l0.178,0.112l0.178,0.114l0.176,0.114l0.176,0.114l0.176,0.117l0.174,0.117l0.174,0.118l0.173,0.119l0.172,0.121l0.171,0.121l0.171,0.122l0.17,0.123l0.169,0.124l0.169,0.125l0.167,0.126l0.167,0.127l0.166,0.129l0.165,0.129l0.164,0.13l0.164,0.131l0.163,0.132l0.162,0.133l0.161,0.134l0.161,0.134l0.159,0.136l0.159,0.137l0.158,0.137l0.157,0.139l0.156,0.14l0.155,0.14l0.155,0.141l0.153,0.142l0.153,0.143l0.153,0.145l0.151,0.144l0.15,0.146l0.149,0.147l0.149,0.147l0.147,0.149l0.147,0.15l0.146,0.15l0.145,0.151l0.144,0.152l0.143,0.153l0.142,0.153l0.141,0.155l0.141,0.155l0.139,0.157l0.139,0.156l0.137,0.158l0.137,0.159l0.136,0.16l0.135,0.16l0.134,0.161l0.132,0.162l0.132,0.163l0.131,0.164l0.13,0.164l0.129,0.165l0.129,0.166l0.127,0.167l0.126,0.168l0.125,0.168l0.124,0.169l0.123,0.17l0.123,0.171l0.121,0.171l0.12,0.173l0.119,0.173l0.118,0.173l0.117,0.175l0.117,0.175l0.115,0.176l0.114,0.177l0.113,0.177l0.112,0.178l0.111,0.179l0.11,0.179l0.109,0.181l0.107,0.181l0.107,0.181l0.106,0.183l0.104,0.183l0.104,0.184l0.102,0.184l0.102,0.185l0.1,0.186l0.099,0.187l0.098,0.187l0.097,0.188l0.096,0.188l0.095,0.189l0.093,0.19l0.093,0.191l0.091,0.19l0.091,0.192l0.089,0.193l0.088,0.193l0.087,0.193l0.085,0.194l0.085,0.195l0.083,0.196l0.083,0.196l0.081,0.196l0.08,0.198l0.079,0.198l0.077,0.198l0.077,0.199l0.075,0.2l0.074,0.2l0.073,0.201l0.072,0.201l0.07,0.202l0.069,0.203l0.068,0.203l0.067,0.203l0.066,0.204l0.064,0.205l0.064,0.205l0.062,0.206l0.06,0.207l0.06,0.206l0.058,0.208l0.057,0.207l0.056,0.209l0.054,0.209l0.053,0.209l0.052,0.21l0.051,0.21l0.049,0.211l0.049,0.212l0.047,0.211l0.045,0.213l0.044,0.213l0.043,0.213l0.042,0.214l0.04,0.213l0.04,0.215l0.037,0.215l0.037,0.216l0.035,0.216l0.034,0.216l0.032,0.217l0.031,0.217l0.03,0.218l0.028,0.218l0.028,0.218l0.025,0.219l0.025,0.219l0.023,0.22l0.021,0.22l0.021,0.221l0.019,0.22l0.017,0.222l0.016,0.222l0.015,0.221l0.014,0.223l0.012,0.222l0.01,0.223l0.009,0.224l0.008,0.224l0.007,0.224l0.005,0.224l0.003,0.225l0.002,0.225l0.001,0.226l-0.001,0.225l-0.002,0.225l-0.003,0.225l-0.005,0.224l-0.007,0.224l-0.008,0.224l-0.009,0.224l-0.01,0.223l-0.012,0.222l-0.014,0.223l-0.015,0.221l-0.016,0.222l-0.017,0.222l-0.019,0.22l-0.021,0.221l-0.021,0.22l-0.023,0.22l-0.025,0.219l-0.025,0.219l-0.028,0.218l-0.028,0.218l-0.03,0.218l-0.031,0.217l-0.032,0.217l-0.034,0.216l-0.035,0.216l-0.037,0.216l-0.037,0.215l-0.04,0.215l-0.04,0.214l-0.042,0.213l-0.043,0.214l-0.044,0.212l-0.046,0.213l-0.046,0.211l-0.049,0.212l-0.049,0.211l-0.051,0.21l-0.052,0.21l-0.053,0.209l-0.054,0.209l-0.056,0.209l-0.057,0.207l-0.058,0.208l-0.06,0.206l-0.06,0.207l-0.062,0.206l-0.064,0.205l-0.064,0.205l-0.066,0.204l-0.067,0.203l-0.068,0.203l-0.069,0.203l-0.07,0.202l-0.072,0.201l-0.073,0.201l-0.074,0.2l-0.075,0.2l-0.077,0.199l-0.077,0.198l-0.079,0.198l-0.08,0.197l-0.081,0.197l-0.083,0.196l-0.083,0.196l-0.085,0.195l-0.085,0.194l-0.087,0.193l-0.088,0.193l-0.089,0.193l-0.091,0.191l-0.091,0.192l-0.093,0.19l-0.093,0.19l-0.095,0.189l-0.096,0.189l-0.097,0.187l-0.098,0.187l-0.099,0.187l-0.1,0.186l-0.102,0.185l-0.102,0.184l-0.104,0.184l-0.104,0.183l-0.106,0.183l-0.107,0.181l-0.107,0.181l-0.109,0.181l-0.11,0.179l-0.111,0.179l-0.112,0.178l-0.113,0.178l-0.114,0.176l-0.115,0.176l-0.117,0.175l-0.117,0.175l-0.118,0.173l-0.119,0.174l-0.12,0.172l-0.121,0.171l-0.123,0.171l-0.123,0.17l-0.124,0.169l-0.125,0.168l-0.126,0.168l-0.127,0.167l-0.128,0.166l-0.13,0.165l-0.13,0.164l-0.131,0.164l-0.132,0.163l-0.133,0.162l-0.133,0.161l-0.135,0.16l-0.136,0.16l-0.137,0.159l-0.137,0.158l-0.139,0.157l-0.139,0.156l-0.141,0.155l-0.141,0.155l-0.142,0.153l-0.143,0.153l-0.144,0.152l-0.145,0.151l-0.146,0.151l-0.147,0.149l-0.147,0.149l-0.149,0.147l-0.149,0.147l-0.15,0.145l-0.151,0.145l-0.153,0.145l-0.152,0.143l-0.154,0.142l-0.155,0.141l-0.155,0.141l-0.156,0.139l-0.157,0.139l-0.158,0.137l-0.159,0.137l-0.159,0.136l-0.161,0.135l-0.161,0.133l-0.162,0.133l-0.163,0.132l-0.163,0.131l-0.165,0.13l-0.165,0.129l-0.166,0.128l-0.167,0.128l-0.168,0.126l-0.168,0.125l-0.169,0.124l-0.17,0.123l-0.171,0.122l-0.171,0.122l-0.172,0.12l-0.173,0.119l-0.174,0.118l-0.175,0.117l-0.175,0.116l-0.176,0.116l-0.176,0.114l-0.177,0.112l-0.179,0.113l-0.179,0.111l-0.179,0.109l-0.18,0.109l-0.181,0.108l-0.182,0.107l-0.182,0.105l-0.184,0.105l-0.184,0.104l-0.184,0.102l-0.185,0.101l-0.186,0.101l-0.186,0.099l-0.187,0.098l-0.188,0.097l-0.189,0.096l-0.189,0.095l-0.19,0.093l-0.19,0.093l-0.191,0.091l-0.192,0.091l-0.192,0.089l-0.193,0.087l-0.194,0.087l-0.194,0.086l-0.195,0.085l-0.196,0.083l-0.196,0.083l-0.196,0.081l-0.198,0.08l-0.198,0.079l-0.198,0.077l-0.199,0.076l-0.2,0.076l-0.2,0.074l-0.2,0.073l-0.202,0.071l-0.202,0.071l-0.202,0.069l-0.204,0.068l-0.203,0.067l-0.204,0.066l-0.205,0.064l-0.205,0.063l-0.206,0.062l-0.206,0.061l-0.207,0.06l-0.208,0.058l-0.208,0.057l-0.207,0.055l-0.209,0.055l-0.21,0.053l-0.21,0.052l-0.21,0.051l-0.211,0.049l-0.211,0.048l-0.212,0.047l-0.213,0.046l-0.212,0.044l-0.213,0.043l-0.214,0.042l-0.215,0.04l-0.214,0.039l-0.215,0.038l-0.215,0.037l-0.217,0.035l-0.216,0.033l-0.217,0.033l-0.217,0.031l-0.217,0.03l-0.219,0.028l-0.218,0.027l-0.219,0.026l-0.219,0.025l-0.22,0.023l-0.22,0.021l-0.22,0.021l-0.221,0.019l-0.222,0.017l-0.221,0.016l-0.222,0.015l-0.223,0.014l-0.222,0.011l-0.223,0.011l-0.224,0.009l-0.223,0.008l-0.225,0.006l-0.224,0.005l-0.225,0.004l-0.225,0.002l-0.223,0.001l-75.119,0l-0.223,-0.001l-0.225,-0.002l-0.225,-0.004l-0.224,-0.005l-0.224,-0.006l-0.224,-0.008l-0.223,-0.009l-0.223,-0.011l-0.223,-0.011l-0.223,-0.014l-0.222,-0.015l-0.221,-0.016l-0.221,-0.017l-0.221,-0.019l-0.221,-0.021l-0.22,-0.021l-0.22,-0.023l-0.219,-0.025l-0.219,-0.026l-0.218,-0.027l-0.218,-0.028l-0.218,-0.03l-0.217,-0.031l-0.217,-0.033l-0.216,-0.033l-0.216,-0.035l-0.216,-0.037l-0.215,-0.038l-0.214,-0.039l-0.215,-0.04l-0.213,-0.042l-0.214,-0.043l-0.212,-0.044l-0.213,-0.046l-0.212,-0.047l-0.21,-0.048l-0.212,-0.049l-0.21,-0.051l-0.21,-0.052l-0.209,-0.053l-0.209,-0.055l-0.208,-0.055l-0.208,-0.057l-0.208,-0.059l-0.206,-0.059l-0.207,-0.061l-0.206,-0.062l-0.205,-0.063l-0.204,-0.064l-0.205,-0.066l-0.203,-0.067l-0.203,-0.068l-0.203,-0.069l-0.202,-0.071l-0.201,-0.071l-0.201,-0.073l-0.2,-0.074l-0.2,-0.075l-0.199,-0.077l-0.198,-0.077l-0.198,-0.079l-0.197,-0.08l-0.197,-0.081l-0.196,-0.083l-0.196,-0.083l-0.195,-0.085l-0.194,-0.086l-0.194,-0.087l-0.192,-0.087l-0.193,-0.089l-0.191,-0.091l-0.192,-0.091l-0.19,-0.093l-0.19,-0.093l-0.189,-0.095l-0.188,-0.096l-0.188,-0.097l-0.188,-0.098l-0.186,-0.099l-0.186,-0.101l-0.185,-0.101l-0.184,-0.102l-0.184,-0.104l-0.183,-0.105l-0.183,-0.105l-0.181,-0.107l-0.181,-0.108l-0.181,-0.109l-0.179,-0.109l-0.179,-0.111l-0.178,-0.113l-0.177,-0.112l-0.177,-0.114l-0.176,-0.116l-0.175,-0.116l-0.175,-0.117l-0.174,-0.118l-0.172,-0.119l-0.173,-0.12l-0.171,-0.122l-0.171,-0.122l-0.17,-0.123l-0.169,-0.124l-0.168,-0.125l-0.168,-0.126l-0.167,-0.128l-0.166,-0.128l-0.165,-0.129l-0.164,-0.13l-0.164,-0.131l-0.163,-0.132l-0.162,-0.133l-0.161,-0.133l-0.16,-0.135l-0.16,-0.136l-0.159,-0.137l-0.157,-0.137l-0.157,-0.139l-0.157,-0.139l-0.155,-0.141l-0.155,-0.141l-0.154,-0.142l-0.152,-0.143l-0.152,-0.144l-0.151,-0.146l-0.151,-0.145l-0.149,-0.147l-0.148,-0.148l-0.148,-0.148l-0.147,-0.149l-0.146,-0.151l-0.144,-0.151l-0.145,-0.152l-0.143,-0.153l-0.142,-0.153l-0.141,-0.155l-0.14,-0.155l-0.14,-0.156l-0.139,-0.157l-0.137,-0.158l-0.137,-0.159l-0.136,-0.16l-0.135,-0.16l-0.133,-0.161l-0.133,-0.162l-0.132,-0.163l-0.131,-0.164l-0.13,-0.164l-0.129,-0.165l-0.128,-0.166l-0.128,-0.167l-0.126,-0.168l-0.125,-0.168l-0.124,-0.169l-0.123,-0.17l-0.122,-0.171l-0.121,-0.171l-0.121,-0.173l-0.119,-0.173l-0.118,-0.173l-0.117,-0.175l-0.116,-0.175l-0.116,-0.176l-0.113,-0.176l-0.114,-0.178l-0.112,-0.178l-0.111,-0.179l-0.109,-0.179l-0.109,-0.181l-0.108,-0.181l-0.107,-0.181l-0.105,-0.183l-0.105,-0.183l-0.104,-0.184l-0.102,-0.184l-0.101,-0.185l-0.101,-0.186l-0.099,-0.187l-0.098,-0.187l-0.097,-0.187l-0.096,-0.189l-0.095,-0.189l-0.093,-0.19l-0.093,-0.19l-0.091,-0.192l-0.09,-0.191l-0.09,-0.193l-0.088,-0.193l-0.086,-0.193l-0.086,-0.194l-0.085,-0.195l-0.083,-0.196l-0.083,-0.196l-0.081,-0.197l-0.08,-0.197l-0.078,-0.198l-0.078,-0.198l-0.076,-0.199l-0.076,-0.2l-0.074,-0.2l-0.073,-0.201l-0.071,-0.201l-0.071,-0.202l-0.069,-0.203l-0.068,-0.203l-0.067,-0.203l-0.066,-0.204l-0.064,-0.205l-0.063,-0.205l-0.062,-0.206l-0.061,-0.206l-0.06,-0.207l-0.058,-0.208l-0.057,-0.207l-0.055,-0.209l-0.055,-0.209l-0.053,-0.209l-0.052,-0.21l-0.051,-0.21l-0.049,-0.211l-0.048,-0.212l-0.047,-0.211l-0.046,-0.213l-0.044,-0.212l-0.043,-0.214l-0.042,-0.213l-0.04,-0.214l-0.039,-0.215l-0.038,-0.215l-0.036,-0.216l-0.036,-0.216l-0.033,-0.216l-0.033,-0.217l-0.031,-0.217l-0.03,-0.218l-0.028,-0.218l-0.027,-0.218l-0.026,-0.219l-0.025,-0.219l-0.023,-0.22l-0.021,-0.22l-0.021,-0.221l-0.018,-0.221l-0.018,-0.221l-0.016,-0.221l-0.015,-0.222l-0.013,-0.223l-0.012,-0.222l-0.011,-0.224l-0.009,-0.223l-0.008,-0.224l-0.006,-0.224l-0.005,-0.224l-0.004,-0.225l-0.002,-0.225l-0.001,-0.225l0.001,-0.226l0.002,-0.225l0.004,-0.225l0.005,-0.224l0.006,-0.224l0.008,-0.224l0.009,-0.223l0.011,-0.223l0.012,-0.223l0.013,-0.223l0.015,-0.222l0.016,-0.221l0.018,-0.221l0.018,-0.221l0.021,-0.221l0.021,-0.22l0.023,-0.22l0.025,-0.219l0.026,-0.219l0.027,-0.218l0.028,-0.218l0.03,-0.218l0.031,-0.217l0.033,-0.217l0.033,-0.216l0.036,-0.216l0.036,-0.216l0.038,-0.215l0.039,-0.214l0.04,-0.215l0.042,-0.213l0.043,-0.213l0.044,-0.213l0.046,-0.213l0.047,-0.211l0.048,-0.212l0.049,-0.211l0.051,-0.21l0.052,-0.21l0.053,-0.209l0.055,-0.209l0.055,-0.208l0.057,-0.208l0.059,-0.208l0.059,-0.207l0.061,-0.206l0.062,-0.206l0.063,-0.205l0.064,-0.204l0.066,-0.205l0.067,-0.203l0.068,-0.203l0.069,-0.203l0.071,-0.202l0.071,-0.201l0.073,-0.201l0.074,-0.2l0.075,-0.2l0.077,-0.199l0.078,-0.198l0.078,-0.198l0.08,-0.198l0.081,-0.196l0.083,-0.196l0.083,-0.196l0.085,-0.195l0.086,-0.194l0.086,-0.193l0.088,-0.193l0.09,-0.193l0.09,-0.192l0.091,-0.19l0.093,-0.191l0.094,-0.19l0.094,-0.189l0.096,-0.188l0.097,-0.188l0.098,-0.188l0.099,-0.186l0.101,-0.186l0.101,-0.185l0.102,-0.184l0.104,-0.184l0.105,-0.183l0.105,-0.183l0.107,-0.181l0.108,-0.181l0.109,-0.181l0.109,-0.179l0.111,-0.179l0.113,-0.178l0.113,-0.178l0.113,-0.176l0.116,-0.176l0.116,-0.175l0.117,-0.175l0.118,-0.173l0.119,-0.173l0.12,-0.173l0.122,-0.171l0.122,-0.171l0.123,-0.17l0.124,-0.169l0.125,-0.168l0.126,-0.168l0.128,-0.167l0.128,-0.166l0.129,-0.165l0.13,-0.164l0.131,-0.164l0.132,-0.163l0.133,-0.162l0.134,-0.161l0.134,-0.16l0.136,-0.16l0.137,-0.159l0.137,-0.158l0.139,-0.157l0.139,-0.156l0.141,-0.155l0.141,-0.155l0.142,-0.153l0.144,-0.153l0.144,-0.152l0.144,-0.151l0.146,-0.15l0.147,-0.15l0.148,-0.148l0.148,-0.148l0.149,-0.147l0.151,-0.146l0.151,-0.144l0.152,-0.145l0.153,-0.143l0.153,-0.142l0.155,-0.141l0.155,-0.14l0.156,-0.14l0.158,-0.139l0.157,-0.137l0.159,-0.137l0.16,-0.136l0.16,-0.134l0.161,-0.134l0.162,-0.133l0.163,-0.132l0.164,-0.131l0.164,-0.13l0.165,-0.129l0.166,-0.129l0.167,-0.127l0.168,-0.126l0.168,-0.125l0.169,-0.124l0.17,-0.123l0.171,-0.122l0.171,-0.121l0.173,-0.121l0.173,-0.119l0.173,-0.118l0.175,-0.117l0.175,-0.117l0.176,-0.114l0.176,-0.114l0.178,-0.114l0.178,-0.112l0.179,-0.111l0.179,-0.109l0.181,-0.109l0.181,-0.108l0.181,-0.107l0.183,-0.105l0.183,-0.105l0.183,-0.103l0.185,-0.103l0.185,-0.101l0.186,-0.1l0.187,-0.1l0.187,-0.098l0.187,-0.097l0.189,-0.096l0.189,-0.094l0.19,-0.094l0.191,-0.093l0.191,-0.091l0.191,-0.09l0.193,-0.09l0.193,-0.088l0.193,-0.086l0.194,-0.086l0.195,-0.085l0.196,-0.083l0.196,-0.083l0.197,-0.081l0.197,-0.08l0.198,-0.078l0.198,-0.078l0.199,-0.076l0.2,-0.076l0.2,-0.074l0.201,-0.073l0.202,-0.071l0.201,-0.071l0.203,-0.069l0.203,-0.068l0.203,-0.067l0.205,-0.066l0.204,-0.064l0.205,-0.063l0.206,-0.062l0.206,-0.061l0.207,-0.06l0.208,-0.058l0.207,-0.057l0.209,-0.055l0.209,-0.055l0.209,-0.053l0.21,-0.052l0.211,-0.051l0.21,-0.049l0.211,-0.048l0.213,-0.047l0.211,-0.046l0.213,-0.044l0.214,-0.043l0.213,-0.042l0.214,-0.04l0.215,-0.039l0.215,-0.038l0.216,-0.036l0.216,-0.036l0.216,-0.033l0.217,-0.033l0.217,-0.031l0.218,-0.03l0.218,-0.028l0.218,-0.027l0.22,-0.026l0.219,-0.024l0.219,-0.024l0.22,-0.021l0.221,-0.021l0.221,-0.018l0.221,-0.018l0.222,-0.016l0.222,-0.015l0.222,-0.013l0.223,-0.012l0.223,-0.011l0.223,-0.009l0.224,-0.008l0.224,-0.006l0.225,-0.005l0.224,-0.004l0.225,-0.002l0.223,-0.001l75.119,0l0.223,0.001Zm-75.337,2.999l-0.209,0.001l-0.206,0.002l-0.206,0.003l-0.205,0.005l-0.205,0.005l-0.205,0.008l-0.204,0.008l-0.205,0.01l-0.203,0.011l-0.204,0.012l-0.203,0.013l-0.202,0.015l-0.203,0.016l-0.201,0.018l-0.202,0.018l-0.201,0.02l-0.201,0.021l-0.201,0.022l-0.2,0.024l-0.199,0.025l-0.2,0.026l-0.199,0.027l-0.198,0.028l-0.198,0.03l-0.198,0.031l-0.198,0.032l-0.196,0.033l-0.197,0.035l-0.196,0.036l-0.195,0.036l-0.196,0.039l-0.194,0.039l-0.195,0.04l-0.194,0.042l-0.193,0.043l-0.193,0.044l-0.193,0.045l-0.192,0.046l-0.192,0.048l-0.191,0.048l-0.191,0.05l-0.19,0.051l-0.19,0.052l-0.189,0.053l-0.189,0.054l-0.189,0.056l-0.188,0.057l-0.187,0.057l-0.187,0.059l-0.186,0.06l-0.187,0.061l-0.185,0.062l-0.185,0.064l-0.185,0.064l-0.183,0.065l-0.184,0.067l-0.182,0.068l-0.183,0.068l-0.182,0.07l-0.181,0.071l-0.181,0.072l-0.18,0.073l-0.18,0.074l-0.179,0.076l-0.178,0.076l-0.178,0.077l-0.178,0.078l-0.177,0.08l-0.176,0.08l-0.176,0.082l-0.175,0.082l-0.175,0.084l-0.174,0.084l-0.173,0.086l-0.173,0.086l-0.172,0.088l-0.172,0.089l-0.171,0.089l-0.17,0.091l-0.17,0.092l-0.17,0.092l-0.168,0.094l-0.168,0.094l-0.167,0.096l-0.167,0.097l-0.166,0.097l-0.165,0.099l-0.165,0.099l-0.164,0.101l-0.164,0.101l-0.163,0.102l-0.162,0.104l-0.161,0.104l-0.161,0.105l-0.16,0.106l-0.16,0.107l-0.159,0.109l-0.158,0.109l-0.157,0.109l-0.157,0.111l-0.156,0.112l-0.156,0.113l-0.154,0.113l-0.154,0.115l-0.154,0.115l-0.152,0.116l-0.152,0.117l-0.151,0.118l-0.15,0.119l-0.15,0.12l-0.149,0.121l-0.148,0.121l-0.147,0.123l-0.147,0.123l-0.146,0.124l-0.145,0.125l-0.145,0.126l-0.143,0.127l-0.143,0.127l-0.142,0.129l-0.142,0.129l-0.14,0.13l-0.14,0.131l-0.139,0.132l-0.138,0.132l-0.138,0.134l-0.136,0.134l-0.136,0.135l-0.135,0.136l-0.134,0.136l-0.134,0.138l-0.132,0.138l-0.132,0.139l-0.131,0.14l-0.13,0.14l-0.129,0.142l-0.128,0.142l-0.128,0.143l-0.127,0.143l-0.126,0.145l-0.125,0.145l-0.124,0.146l-0.123,0.147l-0.123,0.147l-0.121,0.148l-0.121,0.149l-0.12,0.15l-0.119,0.15l-0.118,0.151l-0.117,0.152l-0.116,0.152l-0.115,0.154l-0.115,0.154l-0.113,0.154l-0.113,0.156l-0.112,0.156l-0.111,0.157l-0.109,0.157l-0.109,0.158l-0.108,0.159l-0.108,0.16l-0.106,0.16l-0.105,0.161l-0.104,0.161l-0.104,0.163l-0.102,0.162l-0.101,0.163l-0.101,0.165l-0.099,0.165l-0.099,0.165l-0.097,0.166l-0.097,0.167l-0.096,0.167l-0.094,0.168l-0.094,0.169l-0.092,0.169l-0.092,0.17l-0.091,0.17l-0.089,0.171l-0.089,0.172l-0.088,0.172l-0.086,0.173l-0.086,0.173l-0.084,0.174l-0.084,0.175l-0.082,0.175l-0.082,0.176l-0.08,0.176l-0.08,0.177l-0.078,0.178l-0.077,0.178l-0.076,0.178l-0.076,0.179l-0.074,0.18l-0.073,0.18l-0.072,0.181l-0.071,0.181l-0.069,0.182l-0.069,0.183l-0.068,0.182l-0.066,0.184l-0.066,0.184l-0.064,0.184l-0.064,0.185l-0.062,0.186l-0.061,0.186l-0.06,0.186l-0.059,0.187l-0.057,0.188l-0.057,0.187l-0.055,0.189l-0.055,0.189l-0.053,0.189l-0.052,0.19l-0.051,0.19l-0.05,0.191l-0.048,0.191l-0.048,0.192l-0.046,0.192l-0.045,0.193l-0.044,0.193l-0.043,0.193l-0.042,0.194l-0.04,0.195l-0.039,0.194l-0.038,0.196l-0.037,0.195l-0.036,0.196l-0.035,0.197l-0.033,0.197l-0.032,0.197l-0.031,0.198l-0.03,0.198l-0.028,0.198l-0.027,0.199l-0.026,0.2l-0.025,0.199l-0.024,0.2l-0.022,0.201l-0.021,0.201l-0.02,0.201l-0.018,0.202l-0.018,0.201l-0.016,0.203l-0.014,0.202l-0.014,0.203l-0.012,0.204l-0.011,0.204l-0.01,0.204l-0.008,0.204l-0.008,0.205l-0.005,0.205l-0.005,0.205l-0.003,0.206l-0.002,0.206l-0.001,0.207l0.001,0.206l0.002,0.206l0.003,0.206l0.005,0.205l0.005,0.205l0.008,0.205l0.008,0.205l0.01,0.204l0.011,0.203l0.012,0.204l0.014,0.203l0.014,0.202l0.016,0.203l0.018,0.202l0.018,0.201l0.02,0.201l0.021,0.201l0.022,0.201l0.024,0.2l0.025,0.199l0.026,0.2l0.027,0.199l0.028,0.198l0.03,0.198l0.031,0.198l0.032,0.197l0.033,0.197l0.035,0.197l0.036,0.196l0.037,0.195l0.038,0.196l0.039,0.195l0.04,0.194l0.042,0.194l0.043,0.193l0.044,0.193l0.045,0.193l0.046,0.192l0.048,0.192l0.048,0.191l0.05,0.191l0.051,0.19l0.052,0.19l0.053,0.189l0.055,0.189l0.055,0.189l0.057,0.188l0.057,0.187l0.059,0.187l0.06,0.186l0.061,0.187l0.062,0.185l0.064,0.185l0.064,0.184l0.066,0.184l0.066,0.184l0.068,0.183l0.068,0.182l0.07,0.182l0.071,0.181l0.072,0.181l0.073,0.18l0.074,0.18l0.075,0.179l0.077,0.178l0.077,0.179l0.078,0.177l0.08,0.177l0.08,0.176l0.082,0.176l0.082,0.175l0.084,0.175l0.084,0.174l0.086,0.173l0.086,0.173l0.088,0.172l0.089,0.172l0.089,0.171l0.091,0.17l0.092,0.17l0.092,0.17l0.094,0.168l0.094,0.168l0.096,0.167l0.097,0.167l0.097,0.166l0.099,0.165l0.099,0.165l0.101,0.165l0.101,0.163l0.102,0.163l0.104,0.162l0.104,0.162l0.105,0.16l0.106,0.16l0.107,0.16l0.109,0.159l0.109,0.158l0.109,0.157l0.111,0.157l0.112,0.156l0.113,0.156l0.113,0.154l0.115,0.154l0.115,0.154l0.116,0.152l0.117,0.152l0.118,0.151l0.119,0.15l0.12,0.15l0.121,0.149l0.121,0.148l0.123,0.148l0.123,0.146l0.124,0.146l0.125,0.145l0.126,0.145l0.127,0.143l0.127,0.143l0.129,0.142l0.129,0.142l0.13,0.14l0.131,0.14l0.132,0.139l0.132,0.138l0.134,0.138l0.134,0.136l0.135,0.136l0.136,0.135l0.136,0.134l0.138,0.134l0.138,0.132l0.139,0.132l0.14,0.131l0.14,0.13l0.142,0.129l0.142,0.129l0.143,0.127l0.143,0.127l0.145,0.126l0.145,0.125l0.146,0.124l0.146,0.123l0.148,0.123l0.148,0.121l0.149,0.121l0.15,0.12l0.15,0.119l0.151,0.118l0.152,0.117l0.153,0.116l0.153,0.115l0.154,0.115l0.155,0.114l0.155,0.112l0.156,0.112l0.157,0.111l0.157,0.109l0.158,0.11l0.159,0.108l0.159,0.107l0.161,0.106l0.161,0.105l0.161,0.104l0.163,0.104l0.162,0.102l0.164,0.101l0.164,0.101l0.165,0.099l0.165,0.099l0.166,0.097l0.167,0.097l0.167,0.096l0.168,0.094l0.169,0.094l0.169,0.092l0.17,0.092l0.17,0.091l0.171,0.09l0.172,0.088l0.172,0.088l0.173,0.086l0.173,0.086l0.174,0.084l0.175,0.084l0.175,0.082l0.176,0.082l0.176,0.08l0.177,0.08l0.178,0.078l0.178,0.077l0.178,0.077l0.179,0.075l0.18,0.074l0.18,0.073l0.181,0.072l0.181,0.071l0.182,0.07l0.182,0.068l0.183,0.068l0.184,0.067l0.184,0.065l0.184,0.064l0.185,0.064l0.185,0.062l0.186,0.061l0.187,0.06l0.187,0.059l0.187,0.057l0.188,0.057l0.189,0.056l0.189,0.054l0.189,0.053l0.19,0.052l0.191,0.051l0.19,0.05l0.191,0.048l0.192,0.048l0.192,0.046l0.192,0.045l0.194,0.044l0.193,0.043l0.194,0.042l0.195,0.04l0.194,0.039l0.196,0.039l0.195,0.036l0.196,0.036l0.197,0.035l0.197,0.033l0.197,0.032l0.198,0.031l0.198,0.03l0.198,0.028l0.199,0.027l0.199,0.026l0.2,0.025l0.2,0.024l0.201,0.022l0.201,0.021l0.201,0.02l0.202,0.018l0.201,0.018l0.203,0.016l0.203,0.015l0.203,0.013l0.203,0.012l0.203,0.011l0.205,0.01l0.204,0.008l0.205,0.008l0.205,0.005l0.205,0.005l0.206,0.003l0.206,0.002l0.209,0.001l75.109,0l0.209,-0.001l0.206,-0.002l0.206,-0.003l0.205,-0.005l0.205,-0.005l0.205,-0.008l0.205,-0.008l0.204,-0.01l0.204,-0.011l0.203,-0.012l0.203,-0.013l0.203,-0.015l0.202,-0.016l0.202,-0.018l0.201,-0.018l0.202,-0.02l0.2,-0.021l0.201,-0.022l0.2,-0.024l0.2,-0.025l0.199,-0.026l0.199,-0.027l0.198,-0.028l0.198,-0.03l0.198,-0.031l0.197,-0.032l0.197,-0.033l0.197,-0.035l0.196,-0.036l0.196,-0.036l0.195,-0.039l0.195,-0.039l0.194,-0.04l0.194,-0.042l0.193,-0.043l0.194,-0.044l0.192,-0.045l0.192,-0.046l0.192,-0.048l0.191,-0.048l0.191,-0.05l0.191,-0.051l0.189,-0.052l0.19,-0.053l0.189,-0.054l0.188,-0.056l0.188,-0.057l0.187,-0.057l0.187,-0.059l0.187,-0.06l0.186,-0.061l0.185,-0.062l0.185,-0.064l0.184,-0.064l0.184,-0.065l0.184,-0.067l0.183,-0.068l0.182,-0.068l0.182,-0.07l0.181,-0.071l0.181,-0.072l0.18,-0.073l0.18,-0.074l0.179,-0.075l0.179,-0.077l0.178,-0.077l0.177,-0.078l0.177,-0.08l0.176,-0.08l0.176,-0.082l0.175,-0.082l0.175,-0.084l0.174,-0.084l0.173,-0.086l0.173,-0.086l0.173,-0.088l0.171,-0.088l0.171,-0.09l0.171,-0.091l0.169,-0.091l0.17,-0.093l0.168,-0.094l0.168,-0.094l0.167,-0.096l0.167,-0.097l0.166,-0.097l0.166,-0.099l0.164,-0.099l0.165,-0.101l0.163,-0.101l0.163,-0.102l0.162,-0.104l0.162,-0.104l0.16,-0.105l0.161,-0.106l0.159,-0.107l0.159,-0.108l0.158,-0.109l0.157,-0.11l0.157,-0.111l0.157,-0.112l0.155,-0.112l0.155,-0.114l0.154,-0.115l0.153,-0.115l0.152,-0.116l0.152,-0.117l0.151,-0.118l0.151,-0.119l0.149,-0.12l0.149,-0.121l0.148,-0.121l0.148,-0.123l0.146,-0.123l0.146,-0.124l0.145,-0.125l0.145,-0.126l0.144,-0.127l0.143,-0.127l0.142,-0.129l0.141,-0.129l0.14,-0.13l0.14,-0.131l0.139,-0.132l0.138,-0.132l0.138,-0.134l0.136,-0.134l0.136,-0.135l0.135,-0.136l0.135,-0.136l0.133,-0.138l0.132,-0.138l0.132,-0.139l0.131,-0.14l0.13,-0.14l0.129,-0.142l0.129,-0.142l0.127,-0.143l0.127,-0.143l0.126,-0.145l0.125,-0.145l0.124,-0.146l0.123,-0.146l0.123,-0.148l0.122,-0.148l0.12,-0.149l0.12,-0.15l0.119,-0.15l0.118,-0.151l0.117,-0.152l0.116,-0.152l0.116,-0.154l0.114,-0.154l0.114,-0.154l0.112,-0.156l0.112,-0.156l0.111,-0.157l0.11,-0.157l0.109,-0.158l0.108,-0.159l0.107,-0.16l0.106,-0.16l0.105,-0.16l0.105,-0.162l0.103,-0.162l0.102,-0.163l0.102,-0.164l0.1,-0.164l0.1,-0.164l0.098,-0.166l0.098,-0.166l0.096,-0.167l0.096,-0.167l0.094,-0.168l0.094,-0.169l0.093,-0.169l0.091,-0.169l0.091,-0.171l0.09,-0.171l0.088,-0.172l0.088,-0.172l0.086,-0.173l0.086,-0.173l0.085,-0.174l0.083,-0.175l0.083,-0.175l0.081,-0.176l0.08,-0.176l0.08,-0.177l0.078,-0.177l0.078,-0.179l0.076,-0.178l0.075,-0.179l0.074,-0.18l0.073,-0.18l0.072,-0.181l0.071,-0.181l0.07,-0.182l0.068,-0.182l0.068,-0.183l0.067,-0.184l0.065,-0.184l0.065,-0.184l0.063,-0.185l0.062,-0.185l0.061,-0.186l0.06,-0.187l0.059,-0.187l0.058,-0.187l0.056,-0.188l0.056,-0.189l0.054,-0.189l0.053,-0.189l0.052,-0.19l0.051,-0.19l0.05,-0.191l0.049,-0.191l0.047,-0.192l0.046,-0.192l0.046,-0.193l0.043,-0.193l0.043,-0.193l0.042,-0.194l0.04,-0.194l0.04,-0.195l0.038,-0.195l0.037,-0.196l0.035,-0.196l0.035,-0.197l0.033,-0.197l0.032,-0.197l0.031,-0.198l0.03,-0.198l0.028,-0.198l0.027,-0.199l0.026,-0.2l0.025,-0.199l0.024,-0.2l0.022,-0.201l0.021,-0.201l0.02,-0.201l0.019,-0.201l0.017,-0.203l0.016,-0.202l0.015,-0.202l0.013,-0.203l0.013,-0.204l0.01,-0.204l0.01,-0.204l0.009,-0.204l0.007,-0.205l0.006,-0.205l0.004,-0.205l0.003,-0.206l0.002,-0.206l0.001,-0.206l-0.001,-0.207l-0.002,-0.206l-0.003,-0.206l-0.004,-0.205l-0.006,-0.205l-0.007,-0.205l-0.009,-0.204l-0.01,-0.204l-0.01,-0.204l-0.013,-0.204l-0.013,-0.203l-0.015,-0.202l-0.016,-0.202l-0.017,-0.203l-0.019,-0.201l-0.02,-0.201l-0.021,-0.201l-0.022,-0.201l-0.024,-0.2l-0.025,-0.199l-0.026,-0.2l-0.027,-0.199l-0.028,-0.198l-0.03,-0.198l-0.031,-0.198l-0.032,-0.197l-0.033,-0.197l-0.035,-0.197l-0.035,-0.196l-0.037,-0.195l-0.038,-0.196l-0.04,-0.194l-0.04,-0.195l-0.042,-0.194l-0.043,-0.193l-0.043,-0.193l-0.046,-0.193l-0.046,-0.192l-0.047,-0.192l-0.049,-0.191l-0.05,-0.191l-0.051,-0.19l-0.052,-0.19l-0.053,-0.189l-0.054,-0.189l-0.056,-0.189l-0.056,-0.187l-0.058,-0.188l-0.059,-0.187l-0.06,-0.187l-0.061,-0.185l-0.062,-0.186l-0.063,-0.185l-0.065,-0.184l-0.065,-0.184l-0.067,-0.184l-0.067,-0.182l-0.069,-0.183l-0.07,-0.182l-0.071,-0.181l-0.072,-0.181l-0.073,-0.18l-0.074,-0.18l-0.075,-0.179l-0.076,-0.178l-0.078,-0.178l-0.078,-0.178l-0.08,-0.177l-0.08,-0.176l-0.081,-0.176l-0.083,-0.175l-0.083,-0.175l-0.085,-0.174l-0.086,-0.173l-0.086,-0.173l-0.088,-0.172l-0.088,-0.172l-0.09,-0.171l-0.091,-0.17l-0.091,-0.17l-0.093,-0.169l-0.094,-0.169l-0.094,-0.168l-0.096,-0.167l-0.096,-0.167l-0.098,-0.166l-0.098,-0.166l-0.1,-0.164l-0.1,-0.164l-0.102,-0.164l-0.102,-0.163l-0.103,-0.162l-0.105,-0.161l-0.105,-0.161l-0.106,-0.16l-0.107,-0.16l-0.108,-0.159l-0.109,-0.158l-0.11,-0.158l-0.111,-0.156l-0.112,-0.156l-0.112,-0.156l-0.114,-0.154l-0.114,-0.154l-0.116,-0.154l-0.116,-0.152l-0.117,-0.152l-0.118,-0.151l-0.119,-0.15l-0.12,-0.15l-0.121,-0.149l-0.121,-0.148l-0.123,-0.147l-0.123,-0.147l-0.124,-0.146l-0.125,-0.145l-0.126,-0.145l-0.127,-0.143l-0.127,-0.143l-0.129,-0.142l-0.129,-0.142l-0.13,-0.14l-0.131,-0.14l-0.132,-0.139l-0.132,-0.138l-0.134,-0.138l-0.134,-0.136l-0.135,-0.136l-0.136,-0.135l-0.136,-0.134l-0.138,-0.134l-0.138,-0.132l-0.139,-0.132l-0.139,-0.131l-0.141,-0.13l-0.141,-0.129l-0.143,-0.129l-0.143,-0.127l-0.143,-0.127l-0.144,-0.126l-0.146,-0.125l-0.146,-0.124l-0.146,-0.123l-0.148,-0.123l-0.148,-0.121l-0.149,-0.121l-0.149,-0.12l-0.151,-0.119l-0.151,-0.118l-0.152,-0.117l-0.152,-0.116l-0.154,-0.115l-0.154,-0.115l-0.154,-0.113l-0.155,-0.113l-0.157,-0.112l-0.157,-0.111l-0.157,-0.11l-0.158,-0.108l-0.159,-0.109l-0.159,-0.107l-0.16,-0.106l-0.161,-0.105l-0.162,-0.104l-0.162,-0.104l-0.163,-0.102l-0.163,-0.101l-0.165,-0.101l-0.164,-0.099l-0.166,-0.099l-0.166,-0.097l-0.167,-0.097l-0.167,-0.096l-0.168,-0.094l-0.168,-0.094l-0.17,-0.092l-0.17,-0.092l-0.17,-0.091l-0.171,-0.089l-0.172,-0.089l-0.172,-0.088l-0.173,-0.086l-0.173,-0.086l-0.174,-0.084l-0.175,-0.084l-0.175,-0.082l-0.176,-0.082l-0.176,-0.08l-0.177,-0.08l-0.177,-0.078l-0.178,-0.077l-0.179,-0.076l-0.179,-0.076l-0.18,-0.074l-0.18,-0.073l-0.181,-0.072l-0.181,-0.071l-0.182,-0.07l-0.182,-0.068l-0.183,-0.068l-0.183,-0.067l-0.184,-0.065l-0.185,-0.064l-0.185,-0.064l-0.185,-0.062l-0.187,-0.061l-0.186,-0.06l-0.187,-0.059l-0.187,-0.057l-0.188,-0.057l-0.189,-0.056l-0.188,-0.054l-0.19,-0.053l-0.19,-0.052l-0.19,-0.051l-0.191,-0.05l-0.191,-0.048l-0.192,-0.048l-0.192,-0.046l-0.193,-0.045l-0.193,-0.044l-0.193,-0.043l-0.194,-0.042l-0.194,-0.04l-0.195,-0.039l-0.196,-0.039l-0.195,-0.036l-0.196,-0.036l-0.196,-0.035l-0.197,-0.033l-0.198,-0.032l-0.198,-0.031l-0.198,-0.03l-0.198,-0.028l-0.199,-0.027l-0.2,-0.026l-0.199,-0.025l-0.2,-0.024l-0.2,-0.022l-0.201,-0.021l-0.202,-0.02l-0.201,-0.018l-0.202,-0.018l-0.203,-0.016l-0.202,-0.015l-0.203,-0.013l-0.204,-0.012l-0.203,-0.011l-0.204,-0.01l-0.205,-0.008l-0.205,-0.008l-0.205,-0.005l-0.205,-0.005l-0.206,-0.003l-0.206,-0.002l-0.209,-0.001l-75.109,0Z" style="fill:#e11111;"/></svg>