<?xml version="1.0" encoding="UTF-8" standalone="no"?><!DOCTYPE svg PUBLIC "-//W3C//DTD SVG 1.1//EN" "http://www.w3.org/Graphics/SVG/1.1/DTD/svg11.dtd"><svg width="100%" height="100%" viewBox="0 0 84 73" version="1.1" xmlns="http://www.w3.org/2000/svg" xmlns:xlink="http://www.w3.org/1999/xlink" xml:space="preserve" xmlns:serif="http://www.serif.com/" style="fill-rule:evenodd;clip-rule:evenodd;stroke-linejoin:round;stroke-miterlimit:1.41421;"><g><path d="M52.788,37.611l-20.889,0l0,-3l20.889,0l0,3Z" style="fill:#e11111;"/><path d="M33.143,35.061l9.358,9.786l-2.168,2.074l-9.335,-9.762l-0.988,-0.988l2.121,-2.121l1.012,1.011Z" style="fill:#e11111;"/><path d="M42.501,27.374l-9.358,9.785l-1.012,1.012l-2.121,-2.121l0.988,-0.988l9.335,-9.761l2.168,2.073Z" style="fill:#e11111;"/></g><path d="M47.974,1.205l0.225,0.002l0.225,0.004l0.224,0.005l0.223,0.006l0.224,0.008l0.225,0.009l0.222,0.011l0.224,0.011l0.221,0.014l0.222,0.014l0.222,0.017l0.221,0.017l0.222,0.019l0.22,0.021l0.219,0.021l0.221,0.023l0.219,0.025l0.218,0.026l0.22,0.027l0.218,0.028l0.217,0.03l0.217,0.031l0.216,0.033l0.216,0.033l0.218,0.035l0.215,0.037l0.213,0.037l0.216,0.04l0.216,0.04l0.212,0.042l0.213,0.043l0.214,0.044l0.211,0.046l0.212,0.046l0.213,0.049l0.211,0.05l0.208,0.05l0.21,0.052l0.21,0.053l0.209,0.054l0.208,0.056l0.208,0.057l0.208,0.059l0.205,0.059l0.207,0.06l0.206,0.062l0.206,0.064l0.205,0.064l0.204,0.066l0.204,0.067l0.202,0.068l0.201,0.069l0.203,0.07l0.202,0.072l0.201,0.073l0.201,0.075l0.198,0.075l0.199,0.076l0.199,0.077l0.198,0.079l0.197,0.08l0.197,0.081l0.197,0.083l0.195,0.083l0.194,0.085l0.195,0.086l0.194,0.087l0.193,0.088l0.191,0.089l0.191,0.09l0.192,0.091l0.192,0.093l0.188,0.093l0.19,0.095l0.189,0.097l0.186,0.096l0.188,0.098l0.188,0.1l0.184,0.1l0.185,0.1l0.185,0.103l0.184,0.104l0.184,0.105l0.182,0.106l0.18,0.105l0.182,0.109l0.18,0.109l0.18,0.109l0.18,0.112l0.177,0.111l0.177,0.113l0.177,0.114l0.176,0.115l0.176,0.117l0.173,0.117l0.174,0.118l0.174,0.12l0.171,0.119l0.172,0.121l0.171,0.123l0.17,0.123l0.169,0.125l0.167,0.124l0.169,0.127l0.167,0.127l0.165,0.128l0.166,0.129l0.164,0.13l0.163,0.13l0.164,0.134l0.162,0.132l0.16,0.133l0.161,0.135l0.16,0.136l0.159,0.137l0.157,0.137l0.157,0.139l0.157,0.14l0.155,0.14l0.154,0.141l0.154,0.142l0.153,0.144l0.152,0.143l0.151,0.146l0.15,0.145l0.149,0.146l0.149,0.149l0.148,0.149l0.146,0.149l0.146,0.149l0.145,0.152l0.144,0.152l0.143,0.152l0.143,0.154l0.141,0.155l0.14,0.155l0.14,0.156l0.138,0.157l0.138,0.158l0.137,0.16l0.136,0.159l0.134,0.16l0.134,0.162l0.133,0.161l0.132,0.163l0.131,0.163l0.13,0.165l0.129,0.166l0.128,0.166l0.127,0.167l0.126,0.166l0.126,0.169l0.124,0.169l0.123,0.17l0.122,0.171l0.121,0.17l0.12,0.173l0.12,0.174l0.118,0.173l0.117,0.175l0.116,0.175l0.115,0.176l0.114,0.176l0.113,0.178l0.112,0.178l0.112,0.179l0.109,0.18l0.109,0.18l0.107,0.18l0.107,0.181l0.107,0.184l0.104,0.183l0.103,0.183l0.103,0.185l0.101,0.186l0.1,0.185l0.099,0.186l0.099,0.188l0.096,0.187l0.097,0.189l0.094,0.189l0.094,0.19l0.092,0.19l0.092,0.191l0.09,0.193l0.089,0.192l0.088,0.192l0.087,0.194l0.086,0.195l0.085,0.195l0.083,0.195l0.082,0.196l0.081,0.196l0.081,0.198l0.078,0.198l0.078,0.198l0.076,0.199l0.076,0.201l0.073,0.199l0.073,0.2l0.072,0.202l0.071,0.202l0.069,0.203l0.068,0.203l0.067,0.203l0.065,0.204l0.065,0.205l0.063,0.205l0.062,0.206l0.061,0.206l0.059,0.207l0.059,0.208l0.057,0.208l0.055,0.208l0.055,0.209l0.053,0.209l0.052,0.21l0.051,0.21l0.049,0.212l0.048,0.211l0.047,0.211l0.046,0.213l0.044,0.213l0.043,0.213l0.042,0.213l0.04,0.214l0.039,0.216l0.038,0.214l0.036,0.216l0.035,0.216l0.034,0.217l0.033,0.216l0.031,0.217l0.03,0.217l0.028,0.219l0.027,0.219l0.026,0.219l0.024,0.219l0.023,0.219l0.022,0.22l0.02,0.221l0.019,0.221l0.018,0.221l0.016,0.221l0.015,0.223l0.013,0.222l0.012,0.223l0.011,0.223l0.009,0.223l0.008,0.224l0.006,0.224l0.005,0.224l0.004,0.225l0.002,0.225l0.001,0.226l-0.001,0.225l-0.002,0.225l-0.004,0.225l-0.005,0.224l-0.006,0.225l-0.008,0.223l-0.009,0.223l-0.011,0.223l-0.012,0.223l-0.013,0.222l-0.015,0.223l-0.016,0.222l-0.018,0.22l-0.019,0.221l-0.02,0.221l-0.022,0.22l-0.023,0.219l-0.024,0.219l-0.026,0.22l-0.027,0.218l-0.028,0.218l-0.03,0.218l-0.031,0.217l-0.033,0.217l-0.034,0.217l-0.035,0.215l-0.036,0.215l-0.038,0.216l-0.039,0.215l-0.04,0.214l-0.042,0.213l-0.043,0.213l-0.044,0.214l-0.046,0.212l-0.047,0.211l-0.048,0.212l-0.049,0.211l-0.051,0.21l-0.052,0.21l-0.053,0.21l-0.055,0.208l-0.055,0.209l-0.057,0.207l-0.059,0.208l-0.059,0.207l-0.061,0.206l-0.062,0.205l-0.063,0.206l-0.065,0.205l-0.065,0.203l-0.067,0.204l-0.068,0.204l-0.069,0.202l-0.071,0.202l-0.071,0.201l-0.074,0.201l-0.073,0.2l-0.076,0.2l-0.076,0.199l-0.078,0.198l-0.079,0.198l-0.079,0.197l-0.082,0.197l-0.082,0.196l-0.083,0.196l-0.085,0.195l-0.086,0.194l-0.087,0.194l-0.088,0.192l-0.089,0.192l-0.09,0.192l-0.091,0.191l-0.093,0.192l-0.094,0.189l-0.094,0.189l-0.097,0.189l-0.096,0.187l-0.098,0.187l-0.1,0.188l-0.1,0.185l-0.101,0.185l-0.103,0.185l-0.103,0.183l-0.104,0.183l-0.107,0.184l-0.106,0.18l-0.107,0.181l-0.11,0.181l-0.11,0.18l-0.111,0.178l-0.112,0.178l-0.113,0.178l-0.114,0.176l-0.115,0.176l-0.116,0.175l-0.117,0.174l-0.118,0.174l-0.12,0.174l-0.12,0.172l-0.121,0.171l-0.122,0.171l-0.123,0.17l-0.125,0.17l-0.124,0.167l-0.127,0.168l-0.127,0.167l-0.128,0.165l-0.129,0.166l-0.13,0.165l-0.131,0.163l-0.132,0.162l-0.133,0.163l-0.134,0.161l-0.134,0.16l-0.137,0.16l-0.136,0.159l-0.138,0.157l-0.138,0.158l-0.14,0.156l-0.14,0.155l-0.141,0.154l-0.143,0.155l-0.143,0.152l-0.144,0.152l-0.144,0.151l-0.147,0.151l-0.147,0.149l-0.147,0.148l-0.148,0.148l-0.15,0.147l-0.151,0.146l-0.149,0.144l-0.153,0.144l-0.153,0.144l-0.153,0.142l-0.155,0.142l-0.156,0.14l-0.156,0.139l-0.157,0.139l-0.158,0.137l-0.158,0.137l-0.16,0.136l-0.16,0.134l-0.161,0.134l-0.163,0.133l-0.162,0.132l-0.163,0.131l-0.165,0.13l-0.166,0.13l-0.166,0.128l-0.167,0.127l-0.168,0.126l-0.167,0.124l-0.169,0.125l-0.17,0.123l-0.171,0.123l-0.172,0.12l-0.171,0.12l-0.174,0.12l-0.174,0.118l-0.173,0.117l-0.176,0.117l-0.176,0.115l-0.176,0.113l-0.178,0.114l-0.178,0.112l-0.179,0.111l-0.18,0.109l-0.18,0.109l-0.18,0.108l-0.182,0.107l-0.184,0.106l-0.182,0.104l-0.184,0.104l-0.184,0.102l-0.186,0.102l-0.186,0.1l-0.186,0.099l-0.187,0.098l-0.187,0.097l-0.189,0.096l-0.189,0.094l-0.191,0.095l-0.19,0.092l-0.19,0.091l-0.193,0.091l-0.193,0.089l-0.192,0.088l-0.193,0.086l-0.195,0.086l-0.194,0.085l-0.195,0.083l-0.197,0.083l-0.197,0.081l-0.197,0.079l-0.198,0.08l-0.198,0.077l-0.2,0.077l-0.2,0.075l-0.199,0.074l-0.201,0.073l-0.2,0.071l-0.203,0.071l-0.203,0.069l-0.203,0.069l-0.204,0.066l-0.203,0.066l-0.205,0.064l-0.206,0.063l-0.206,0.063l-0.205,0.06l-0.207,0.06l-0.209,0.058l-0.207,0.057l-0.208,0.055l-0.209,0.055l-0.208,0.053l-0.21,0.052l-0.212,0.051l-0.211,0.049l-0.211,0.049l-0.212,0.046l-0.211,0.045l-0.213,0.045l-0.214,0.043l-0.214,0.042l-0.214,0.04l-0.214,0.039l-0.215,0.038l-0.217,0.037l-0.216,0.035l-0.214,0.033l-0.218,0.033l-0.217,0.031l-0.217,0.03l-0.22,0.028l-0.218,0.027l-0.218,0.026l-0.219,0.024l-0.221,0.024l-0.219,0.021l-0.22,0.021l-0.222,0.019l-0.221,0.017l-0.221,0.016l-0.223,0.015l-0.223,0.014l-0.222,0.011l-0.222,0.011l-0.225,0.009l-0.222,0.008l-0.225,0.007l-0.226,0.004l-0.222,0.004l-0.226,0.002l-0.224,0.001l-11.641,0l-0.225,-0.001l-0.225,-0.002l-0.223,-0.004l-0.225,-0.004l-0.225,-0.007l-0.223,-0.008l-0.224,-0.009l-0.222,-0.011l-0.222,-0.011l-0.223,-0.014l-0.223,-0.015l-0.221,-0.016l-0.221,-0.017l-0.222,-0.019l-0.22,-0.021l-0.219,-0.021l-0.221,-0.024l-0.219,-0.024l-0.218,-0.026l-0.218,-0.027l-0.22,-0.028l-0.217,-0.03l-0.217,-0.031l-0.218,-0.033l-0.214,-0.033l-0.216,-0.035l-0.217,-0.037l-0.215,-0.038l-0.214,-0.039l-0.214,-0.04l-0.214,-0.042l-0.215,-0.043l-0.212,-0.045l-0.211,-0.045l-0.212,-0.046l-0.211,-0.049l-0.211,-0.049l-0.212,-0.051l-0.21,-0.052l-0.208,-0.053l-0.209,-0.055l-0.209,-0.055l-0.206,-0.057l-0.209,-0.058l-0.207,-0.06l-0.205,-0.06l-0.206,-0.063l-0.206,-0.063l-0.205,-0.064l-0.203,-0.066l-0.204,-0.066l-0.203,-0.069l-0.203,-0.069l-0.203,-0.071l-0.2,-0.071l-0.201,-0.073l-0.199,-0.074l-0.201,-0.075l-0.199,-0.077l-0.198,-0.077l-0.198,-0.08l-0.197,-0.079l-0.197,-0.081l-0.197,-0.083l-0.195,-0.083l-0.194,-0.085l-0.195,-0.086l-0.193,-0.086l-0.192,-0.088l-0.194,-0.089l-0.192,-0.091l-0.19,-0.091l-0.191,-0.092l-0.19,-0.095l-0.189,-0.094l-0.189,-0.096l-0.188,-0.097l-0.187,-0.098l-0.186,-0.099l-0.185,-0.1l-0.186,-0.102l-0.184,-0.102l-0.184,-0.104l-0.183,-0.104l-0.183,-0.106l-0.182,-0.107l-0.18,-0.108l-0.181,-0.109l-0.179,-0.109l-0.179,-0.111l-0.178,-0.112l-0.178,-0.114l-0.176,-0.113l-0.176,-0.115l-0.176,-0.117l-0.173,-0.117l-0.174,-0.118l-0.174,-0.12l-0.171,-0.12l-0.172,-0.12l-0.171,-0.123l-0.17,-0.123l-0.169,-0.125l-0.168,-0.124l-0.167,-0.126l-0.167,-0.127l-0.166,-0.128l-0.166,-0.13l-0.165,-0.13l-0.164,-0.131l-0.162,-0.132l-0.162,-0.133l-0.161,-0.134l-0.16,-0.134l-0.16,-0.136l-0.158,-0.137l-0.158,-0.137l-0.158,-0.139l-0.155,-0.139l-0.156,-0.14l-0.155,-0.142l-0.153,-0.142l-0.154,-0.144l-0.152,-0.144l-0.149,-0.144l-0.151,-0.146l-0.15,-0.147l-0.148,-0.148l-0.148,-0.148l-0.147,-0.149l-0.146,-0.151l-0.145,-0.151l-0.143,-0.152l-0.143,-0.152l-0.143,-0.155l-0.141,-0.154l-0.14,-0.155l-0.14,-0.156l-0.139,-0.158l-0.137,-0.157l-0.137,-0.159l-0.136,-0.16l-0.135,-0.16l-0.133,-0.161l-0.134,-0.163l-0.131,-0.162l-0.131,-0.163l-0.13,-0.165l-0.13,-0.166l-0.127,-0.165l-0.128,-0.167l-0.126,-0.168l-0.124,-0.167l-0.125,-0.17l-0.123,-0.17l-0.123,-0.171l-0.121,-0.171l-0.12,-0.172l-0.119,-0.174l-0.118,-0.174l-0.117,-0.174l-0.116,-0.175l-0.115,-0.176l-0.114,-0.176l-0.113,-0.178l-0.113,-0.178l-0.11,-0.178l-0.11,-0.18l-0.11,-0.181l-0.107,-0.181l-0.106,-0.18l-0.107,-0.184l-0.104,-0.183l-0.103,-0.183l-0.103,-0.185l-0.101,-0.185l-0.1,-0.185l-0.1,-0.188l-0.098,-0.187l-0.097,-0.187l-0.096,-0.189l-0.094,-0.189l-0.094,-0.189l-0.093,-0.192l-0.091,-0.191l-0.091,-0.192l-0.088,-0.192l-0.088,-0.192l-0.087,-0.194l-0.086,-0.194l-0.085,-0.195l-0.083,-0.196l-0.082,-0.196l-0.082,-0.197l-0.08,-0.197l-0.078,-0.198l-0.078,-0.198l-0.077,-0.199l-0.075,-0.2l-0.074,-0.2l-0.073,-0.201l-0.071,-0.201l-0.071,-0.202l-0.069,-0.202l-0.068,-0.204l-0.067,-0.204l-0.066,-0.203l-0.064,-0.205l-0.063,-0.206l-0.062,-0.205l-0.061,-0.206l-0.06,-0.207l-0.058,-0.208l-0.057,-0.207l-0.055,-0.209l-0.055,-0.208l-0.053,-0.21l-0.052,-0.21l-0.051,-0.21l-0.049,-0.211l-0.048,-0.212l-0.047,-0.211l-0.046,-0.212l-0.044,-0.214l-0.043,-0.213l-0.042,-0.213l-0.04,-0.214l-0.039,-0.215l-0.038,-0.216l-0.036,-0.215l-0.036,-0.215l-0.033,-0.217l-0.033,-0.217l-0.031,-0.217l-0.03,-0.218l-0.028,-0.218l-0.027,-0.218l-0.026,-0.22l-0.024,-0.219l-0.023,-0.219l-0.022,-0.22l-0.021,-0.221l-0.018,-0.221l-0.018,-0.22l-0.016,-0.222l-0.015,-0.223l-0.013,-0.222l-0.012,-0.223l-0.011,-0.223l-0.009,-0.223l-0.008,-0.223l-0.006,-0.225l-0.005,-0.224l-0.004,-0.225l-0.002,-0.225l-0.001,-0.225l0.001,-0.226l0.002,-0.225l0.004,-0.225l0.005,-0.224l0.006,-0.224l0.008,-0.223l0.009,-0.224l0.011,-0.224l0.012,-0.222l0.013,-0.222l0.015,-0.223l0.016,-0.221l0.018,-0.221l0.018,-0.221l0.021,-0.221l0.022,-0.22l0.023,-0.219l0.024,-0.219l0.026,-0.219l0.027,-0.219l0.028,-0.219l0.03,-0.217l0.031,-0.217l0.033,-0.216l0.033,-0.217l0.036,-0.216l0.036,-0.216l0.038,-0.214l0.039,-0.216l0.04,-0.214l0.042,-0.213l0.043,-0.213l0.044,-0.213l0.046,-0.213l0.047,-0.211l0.048,-0.211l0.049,-0.212l0.051,-0.21l0.052,-0.21l0.053,-0.209l0.055,-0.209l0.055,-0.208l0.057,-0.208l0.058,-0.208l0.06,-0.207l0.061,-0.206l0.062,-0.206l0.063,-0.205l0.064,-0.205l0.066,-0.204l0.067,-0.203l0.068,-0.203l0.069,-0.203l0.071,-0.202l0.071,-0.202l0.073,-0.2l0.074,-0.199l0.075,-0.201l0.077,-0.199l0.078,-0.198l0.078,-0.198l0.081,-0.198l0.081,-0.196l0.082,-0.196l0.083,-0.195l0.085,-0.195l0.086,-0.195l0.087,-0.194l0.088,-0.192l0.088,-0.192l0.091,-0.193l0.092,-0.191l0.092,-0.19l0.093,-0.19l0.095,-0.189l0.096,-0.189l0.097,-0.187l0.098,-0.188l0.1,-0.186l0.099,-0.185l0.102,-0.186l0.103,-0.185l0.103,-0.183l0.104,-0.183l0.107,-0.184l0.107,-0.181l0.107,-0.18l0.108,-0.18l0.11,-0.18l0.111,-0.179l0.113,-0.178l0.113,-0.178l0.114,-0.176l0.115,-0.176l0.116,-0.175l0.117,-0.175l0.118,-0.173l0.119,-0.174l0.121,-0.173l0.12,-0.17l0.123,-0.171l0.123,-0.17l0.124,-0.169l0.126,-0.169l0.125,-0.166l0.127,-0.167l0.128,-0.166l0.13,-0.166l0.13,-0.165l0.131,-0.163l0.132,-0.163l0.133,-0.161l0.133,-0.162l0.135,-0.16l0.136,-0.159l0.137,-0.16l0.137,-0.158l0.139,-0.157l0.14,-0.156l0.14,-0.155l0.141,-0.155l0.143,-0.154l0.143,-0.152l0.143,-0.152l0.146,-0.152l0.145,-0.149l0.147,-0.149l0.148,-0.149l0.149,-0.149l0.149,-0.146l0.15,-0.145l0.151,-0.146l0.151,-0.143l0.154,-0.144l0.154,-0.142l0.154,-0.141l0.155,-0.14l0.156,-0.14l0.158,-0.139l0.157,-0.137l0.159,-0.137l0.16,-0.136l0.161,-0.135l0.16,-0.133l0.161,-0.132l0.164,-0.134l0.164,-0.13l0.164,-0.13l0.166,-0.129l0.165,-0.128l0.167,-0.127l0.168,-0.127l0.168,-0.124l0.169,-0.125l0.17,-0.123l0.171,-0.123l0.172,-0.121l0.171,-0.119l0.174,-0.12l0.174,-0.118l0.173,-0.117l0.176,-0.117l0.176,-0.115l0.177,-0.114l0.177,-0.113l0.177,-0.111l0.18,-0.112l0.179,-0.109l0.181,-0.109l0.182,-0.109l0.18,-0.105l0.182,-0.106l0.184,-0.105l0.184,-0.104l0.185,-0.103l0.185,-0.1l0.184,-0.1l0.187,-0.1l0.189,-0.098l0.186,-0.096l0.189,-0.097l0.19,-0.095l0.188,-0.093l0.192,-0.093l0.191,-0.091l0.191,-0.09l0.192,-0.089l0.193,-0.088l0.194,-0.087l0.195,-0.086l0.194,-0.085l0.195,-0.083l0.197,-0.083l0.197,-0.081l0.197,-0.08l0.198,-0.079l0.199,-0.077l0.198,-0.076l0.199,-0.075l0.201,-0.075l0.201,-0.073l0.202,-0.072l0.202,-0.07l0.202,-0.069l0.202,-0.068l0.204,-0.067l0.204,-0.066l0.205,-0.064l0.206,-0.064l0.206,-0.062l0.206,-0.06l0.206,-0.059l0.208,-0.059l0.207,-0.057l0.209,-0.056l0.209,-0.054l0.209,-0.053l0.21,-0.052l0.209,-0.05l0.211,-0.05l0.213,-0.049l0.212,-0.046l0.211,-0.046l0.214,-0.044l0.213,-0.043l0.212,-0.042l0.216,-0.04l0.216,-0.04l0.213,-0.037l0.215,-0.037l0.218,-0.035l0.216,-0.033l0.216,-0.033l0.217,-0.031l0.217,-0.03l0.218,-0.028l0.22,-0.027l0.218,-0.026l0.219,-0.025l0.221,-0.023l0.219,-0.021l0.22,-0.021l0.222,-0.019l0.221,-0.017l0.222,-0.017l0.222,-0.014l0.221,-0.014l0.224,-0.011l0.222,-0.011l0.224,-0.009l0.225,-0.008l0.223,-0.006l0.224,-0.005l0.225,-0.004l0.224,-0.002l0.223,-0.001l11.645,0l0.222,0.001Zm-11.86,2.999l-0.209,0.001l-0.207,0.002l-0.205,0.003l-0.207,0.005l-0.205,0.005l-0.204,0.007l-0.204,0.009l-0.205,0.01l-0.203,0.01l-0.204,0.013l-0.203,0.013l-0.202,0.015l-0.203,0.016l-0.201,0.017l-0.202,0.019l-0.202,0.02l-0.199,0.021l-0.201,0.022l-0.201,0.024l-0.198,0.025l-0.2,0.026l-0.199,0.027l-0.199,0.029l-0.199,0.029l-0.198,0.031l-0.196,0.032l-0.197,0.034l-0.198,0.034l-0.195,0.035l-0.194,0.037l-0.197,0.039l-0.195,0.039l-0.193,0.04l-0.195,0.042l-0.194,0.043l-0.191,0.043l-0.193,0.046l-0.194,0.047l-0.191,0.047l-0.191,0.048l-0.191,0.05l-0.19,0.051l-0.19,0.052l-0.189,0.053l-0.19,0.055l-0.188,0.055l-0.188,0.057l-0.187,0.057l-0.187,0.059l-0.186,0.06l-0.185,0.061l-0.187,0.063l-0.186,0.063l-0.184,0.064l-0.183,0.065l-0.183,0.067l-0.183,0.067l-0.183,0.07l-0.183,0.07l-0.18,0.07l-0.181,0.072l-0.181,0.073l-0.178,0.074l-0.179,0.075l-0.179,0.077l-0.179,0.077l-0.177,0.078l-0.176,0.079l-0.177,0.081l-0.176,0.082l-0.176,0.083l-0.174,0.083l-0.173,0.084l-0.175,0.087l-0.172,0.085l-0.171,0.088l-0.174,0.089l-0.17,0.089l-0.169,0.09l-0.172,0.093l-0.169,0.093l-0.168,0.093l-0.168,0.094l-0.167,0.095l-0.166,0.097l-0.168,0.099l-0.164,0.097l-0.165,0.1l-0.164,0.1l-0.163,0.101l-0.164,0.104l-0.162,0.103l-0.162,0.104l-0.16,0.105l-0.16,0.106l-0.16,0.108l-0.159,0.108l-0.157,0.108l-0.158,0.111l-0.157,0.11l-0.156,0.112l-0.156,0.112l-0.154,0.114l-0.155,0.115l-0.152,0.114l-0.152,0.117l-0.153,0.118l-0.151,0.118l-0.151,0.119l-0.149,0.119l-0.148,0.12l-0.149,0.122l-0.148,0.123l-0.147,0.123l-0.145,0.124l-0.145,0.125l-0.145,0.127l-0.143,0.126l-0.143,0.127l-0.143,0.129l-0.141,0.13l-0.14,0.129l-0.14,0.131l-0.139,0.132l-0.138,0.132l-0.138,0.134l-0.137,0.135l-0.135,0.134l-0.134,0.135l-0.135,0.138l-0.134,0.137l-0.132,0.138l-0.132,0.139l-0.131,0.14l-0.13,0.14l-0.129,0.142l-0.129,0.142l-0.127,0.142l-0.127,0.144l-0.126,0.145l-0.124,0.144l-0.125,0.147l-0.123,0.146l-0.122,0.148l-0.122,0.149l-0.121,0.149l-0.12,0.149l-0.118,0.15l-0.118,0.151l-0.118,0.152l-0.116,0.153l-0.116,0.154l-0.114,0.152l-0.113,0.156l-0.113,0.155l-0.112,0.156l-0.111,0.157l-0.11,0.157l-0.108,0.158l-0.108,0.159l-0.107,0.159l-0.107,0.161l-0.105,0.161l-0.104,0.161l-0.104,0.162l-0.102,0.163l-0.101,0.163l-0.101,0.164l-0.099,0.166l-0.099,0.166l-0.098,0.166l-0.096,0.165l-0.095,0.168l-0.095,0.168l-0.094,0.168l-0.092,0.169l-0.092,0.171l-0.091,0.17l-0.089,0.171l-0.089,0.172l-0.088,0.172l-0.086,0.172l-0.086,0.175l-0.085,0.174l-0.083,0.174l-0.082,0.174l-0.082,0.177l-0.08,0.177l-0.08,0.176l-0.078,0.177l-0.077,0.179l-0.077,0.178l-0.075,0.18l-0.074,0.179l-0.073,0.179l-0.072,0.182l-0.071,0.182l-0.07,0.181l-0.068,0.182l-0.068,0.184l-0.067,0.183l-0.065,0.184l-0.064,0.184l-0.063,0.185l-0.063,0.185l-0.061,0.187l-0.06,0.186l-0.059,0.187l-0.057,0.187l-0.057,0.188l-0.056,0.189l-0.054,0.189l-0.053,0.188l-0.052,0.191l-0.051,0.19l-0.05,0.191l-0.048,0.191l-0.048,0.192l-0.046,0.192l-0.045,0.193l-0.044,0.193l-0.043,0.193l-0.042,0.194l-0.04,0.195l-0.039,0.194l-0.038,0.196l-0.037,0.196l-0.036,0.195l-0.035,0.197l-0.033,0.197l-0.032,0.197l-0.031,0.198l-0.029,0.198l-0.029,0.199l-0.027,0.198l-0.026,0.199l-0.025,0.201l-0.024,0.199l-0.022,0.201l-0.021,0.201l-0.02,0.201l-0.018,0.201l-0.018,0.203l-0.016,0.202l-0.015,0.202l-0.013,0.203l-0.012,0.204l-0.011,0.204l-0.01,0.203l-0.008,0.205l-0.007,0.205l-0.006,0.205l-0.005,0.206l-0.003,0.205l-0.002,0.206l-0.001,0.207l0.001,0.206l0.002,0.206l0.003,0.206l0.005,0.205l0.006,0.205l0.007,0.206l0.008,0.204l0.01,0.203l0.011,0.204l0.012,0.204l0.013,0.203l0.015,0.202l0.016,0.202l0.018,0.203l0.018,0.201l0.02,0.201l0.021,0.201l0.022,0.201l0.024,0.2l0.025,0.199l0.026,0.2l0.027,0.199l0.029,0.199l0.029,0.197l0.031,0.198l0.032,0.197l0.034,0.198l0.034,0.196l0.035,0.195l0.038,0.196l0.038,0.196l0.039,0.195l0.04,0.194l0.042,0.193l0.043,0.195l0.044,0.193l0.045,0.192l0.046,0.192l0.048,0.192l0.048,0.191l0.05,0.191l0.051,0.19l0.052,0.19l0.053,0.189l0.054,0.189l0.056,0.189l0.057,0.187l0.057,0.188l0.059,0.187l0.06,0.187l0.061,0.186l0.062,0.185l0.064,0.185l0.064,0.184l0.066,0.185l0.066,0.183l0.068,0.182l0.068,0.183l0.07,0.182l0.071,0.182l0.072,0.18l0.073,0.18l0.074,0.18l0.075,0.179l0.077,0.179l0.077,0.178l0.078,0.177l0.08,0.176l0.08,0.177l0.082,0.177l0.082,0.174l0.084,0.175l0.084,0.174l0.086,0.173l0.086,0.173l0.088,0.172l0.089,0.172l0.09,0.172l0.09,0.169l0.092,0.17l0.092,0.17l0.094,0.168l0.095,0.168l0.095,0.168l0.096,0.165l0.098,0.167l0.099,0.166l0.099,0.164l0.1,0.164l0.102,0.164l0.102,0.163l0.104,0.162l0.104,0.161l0.105,0.161l0.107,0.16l0.107,0.16l0.108,0.159l0.108,0.158l0.11,0.157l0.111,0.158l0.112,0.155l0.113,0.156l0.113,0.154l0.115,0.154l0.115,0.154l0.116,0.151l0.118,0.153l0.118,0.151l0.118,0.15l0.12,0.149l0.121,0.15l0.122,0.148l0.122,0.148l0.123,0.147l0.124,0.145l0.125,0.145l0.126,0.145l0.127,0.144l0.127,0.142l0.129,0.142l0.129,0.142l0.13,0.14l0.131,0.14l0.132,0.139l0.133,0.139l0.133,0.137l0.134,0.136l0.135,0.136l0.136,0.135l0.136,0.134l0.137,0.133l0.14,0.134l0.138,0.132l0.14,0.13l0.141,0.131l0.14,0.128l0.142,0.128l0.144,0.128l0.143,0.127l0.144,0.125l0.146,0.126l0.145,0.124l0.148,0.123l0.147,0.123l0.148,0.121l0.15,0.122l0.149,0.119l0.15,0.119l0.151,0.118l0.152,0.117l0.152,0.116l0.153,0.115l0.155,0.115l0.154,0.114l0.156,0.112l0.156,0.112l0.157,0.11l0.158,0.111l0.157,0.108l0.159,0.108l0.16,0.108l0.16,0.106l0.16,0.105l0.163,0.105l0.161,0.103l0.163,0.102l0.164,0.101l0.164,0.101l0.165,0.1l0.166,0.098l0.166,0.098l0.165,0.096l0.168,0.096l0.168,0.094l0.169,0.094l0.168,0.092l0.17,0.092l0.171,0.091l0.172,0.089l0.172,0.09l0.171,0.087l0.173,0.087l0.173,0.085l0.174,0.084l0.176,0.084l0.174,0.082l0.175,0.081l0.177,0.081l0.177,0.08l0.177,0.078l0.179,0.077l0.179,0.077l0.179,0.075l0.178,0.074l0.181,0.073l0.181,0.072l0.182,0.071l0.181,0.07l0.182,0.068l0.184,0.068l0.183,0.066l0.185,0.066l0.183,0.065l0.185,0.063l0.185,0.062l0.186,0.061l0.187,0.06l0.187,0.059l0.187,0.057l0.188,0.057l0.189,0.056l0.189,0.054l0.188,0.053l0.191,0.052l0.19,0.051l0.191,0.05l0.192,0.049l0.192,0.047l0.19,0.046l0.193,0.045l0.193,0.044l0.194,0.043l0.195,0.042l0.195,0.041l0.193,0.039l0.195,0.037l0.196,0.038l0.196,0.035l0.197,0.035l0.196,0.033l0.197,0.032l0.2,0.031l0.197,0.03l0.199,0.028l0.199,0.028l0.198,0.025l0.2,0.025l0.201,0.023l0.201,0.023l0.199,0.021l0.202,0.02l0.202,0.018l0.201,0.018l0.203,0.016l0.203,0.015l0.202,0.013l0.203,0.012l0.204,0.011l0.205,0.01l0.204,0.008l0.205,0.007l0.204,0.007l0.205,0.004l0.209,0.003l0.205,0.002l0.207,0.001l11.635,0l0.207,-0.001l0.205,-0.002l0.209,-0.003l0.204,-0.004l0.205,-0.007l0.205,-0.007l0.204,-0.008l0.205,-0.01l0.204,-0.011l0.202,-0.012l0.202,-0.013l0.204,-0.015l0.203,-0.016l0.201,-0.018l0.202,-0.018l0.202,-0.02l0.199,-0.021l0.201,-0.023l0.201,-0.023l0.2,-0.025l0.198,-0.025l0.199,-0.028l0.199,-0.028l0.197,-0.03l0.2,-0.031l0.197,-0.032l0.196,-0.033l0.196,-0.035l0.197,-0.035l0.196,-0.038l0.195,-0.037l0.193,-0.039l0.195,-0.041l0.195,-0.042l0.194,-0.043l0.193,-0.044l0.192,-0.045l0.191,-0.046l0.191,-0.047l0.193,-0.049l0.191,-0.05l0.19,-0.051l0.191,-0.052l0.188,-0.053l0.188,-0.054l0.19,-0.056l0.188,-0.057l0.187,-0.057l0.186,-0.059l0.188,-0.06l0.186,-0.061l0.185,-0.062l0.184,-0.063l0.184,-0.065l0.185,-0.066l0.183,-0.066l0.184,-0.068l0.182,-0.068l0.181,-0.07l0.182,-0.071l0.18,-0.072l0.181,-0.073l0.179,-0.074l0.179,-0.075l0.179,-0.077l0.179,-0.077l0.177,-0.078l0.177,-0.08l0.177,-0.081l0.175,-0.081l0.174,-0.082l0.176,-0.084l0.174,-0.084l0.172,-0.085l0.174,-0.087l0.171,-0.087l0.172,-0.09l0.172,-0.089l0.17,-0.091l0.171,-0.092l0.168,-0.092l0.169,-0.094l0.168,-0.094l0.168,-0.096l0.165,-0.096l0.166,-0.098l0.166,-0.098l0.165,-0.1l0.164,-0.101l0.164,-0.101l0.163,-0.102l0.161,-0.103l0.163,-0.105l0.16,-0.105l0.16,-0.106l0.16,-0.108l0.159,-0.108l0.157,-0.108l0.158,-0.111l0.157,-0.11l0.156,-0.112l0.155,-0.112l0.155,-0.114l0.155,-0.115l0.153,-0.115l0.152,-0.116l0.152,-0.117l0.151,-0.118l0.15,-0.119l0.149,-0.119l0.15,-0.122l0.148,-0.121l0.147,-0.123l0.147,-0.123l0.146,-0.124l0.145,-0.126l0.145,-0.125l0.143,-0.127l0.144,-0.128l0.141,-0.128l0.141,-0.128l0.141,-0.131l0.139,-0.13l0.139,-0.132l0.14,-0.134l0.137,-0.133l0.136,-0.134l0.136,-0.135l0.135,-0.136l0.134,-0.136l0.133,-0.137l0.133,-0.139l0.132,-0.139l0.131,-0.14l0.129,-0.14l0.13,-0.142l0.129,-0.142l0.127,-0.142l0.127,-0.144l0.126,-0.145l0.125,-0.145l0.123,-0.145l0.124,-0.147l0.122,-0.148l0.121,-0.148l0.122,-0.15l0.12,-0.149l0.118,-0.15l0.118,-0.151l0.118,-0.153l0.116,-0.151l0.115,-0.154l0.115,-0.154l0.113,-0.154l0.113,-0.156l0.111,-0.155l0.111,-0.158l0.11,-0.157l0.109,-0.158l0.108,-0.159l0.107,-0.16l0.107,-0.16l0.105,-0.161l0.104,-0.161l0.103,-0.162l0.103,-0.163l0.101,-0.164l0.101,-0.164l0.099,-0.164l0.099,-0.166l0.098,-0.167l0.095,-0.165l0.096,-0.168l0.095,-0.168l0.093,-0.168l0.093,-0.17l0.092,-0.17l0.09,-0.169l0.09,-0.172l0.089,-0.172l0.087,-0.172l0.087,-0.173l0.086,-0.173l0.084,-0.174l0.084,-0.175l0.082,-0.174l0.082,-0.177l0.08,-0.177l0.08,-0.176l0.078,-0.177l0.077,-0.178l0.076,-0.179l0.076,-0.179l0.073,-0.18l0.074,-0.18l0.071,-0.18l0.072,-0.182l0.069,-0.182l0.069,-0.183l0.068,-0.182l0.066,-0.183l0.066,-0.185l0.064,-0.184l0.063,-0.185l0.063,-0.185l0.061,-0.186l0.06,-0.187l0.058,-0.187l0.058,-0.188l0.057,-0.187l0.055,-0.189l0.055,-0.189l0.053,-0.189l0.052,-0.19l0.051,-0.19l0.05,-0.191l0.048,-0.191l0.048,-0.192l0.046,-0.192l0.045,-0.192l0.044,-0.193l0.043,-0.195l0.042,-0.193l0.04,-0.194l0.039,-0.195l0.038,-0.196l0.037,-0.196l0.036,-0.195l0.034,-0.196l0.034,-0.198l0.032,-0.197l0.031,-0.198l0.029,-0.197l0.029,-0.199l0.027,-0.199l0.026,-0.2l0.025,-0.199l0.023,-0.2l0.023,-0.201l0.021,-0.201l0.02,-0.201l0.018,-0.201l0.017,-0.203l0.016,-0.202l0.015,-0.202l0.014,-0.203l0.012,-0.204l0.011,-0.203l0.01,-0.204l0.008,-0.205l0.007,-0.205l0.006,-0.205l0.005,-0.205l0.003,-0.206l0.002,-0.206l0.001,-0.206l-0.001,-0.207l-0.002,-0.206l-0.003,-0.205l-0.005,-0.206l-0.006,-0.205l-0.007,-0.205l-0.008,-0.205l-0.01,-0.204l-0.011,-0.203l-0.012,-0.204l-0.014,-0.203l-0.015,-0.202l-0.016,-0.202l-0.017,-0.203l-0.018,-0.201l-0.02,-0.201l-0.021,-0.201l-0.023,-0.201l-0.023,-0.199l-0.025,-0.201l-0.026,-0.199l-0.027,-0.198l-0.029,-0.199l-0.029,-0.198l-0.031,-0.198l-0.032,-0.197l-0.034,-0.197l-0.034,-0.197l-0.036,-0.195l-0.037,-0.196l-0.038,-0.196l-0.039,-0.194l-0.04,-0.195l-0.042,-0.194l-0.043,-0.193l-0.044,-0.193l-0.045,-0.193l-0.046,-0.192l-0.048,-0.192l-0.048,-0.191l-0.05,-0.191l-0.051,-0.19l-0.052,-0.191l-0.053,-0.188l-0.055,-0.189l-0.055,-0.189l-0.057,-0.188l-0.058,-0.187l-0.058,-0.187l-0.06,-0.186l-0.061,-0.187l-0.063,-0.185l-0.063,-0.185l-0.064,-0.184l-0.066,-0.184l-0.066,-0.183l-0.068,-0.184l-0.069,-0.182l-0.069,-0.181l-0.072,-0.182l-0.072,-0.182l-0.072,-0.179l-0.074,-0.179l-0.076,-0.18l-0.076,-0.178l-0.078,-0.179l-0.077,-0.177l-0.08,-0.176l-0.08,-0.177l-0.082,-0.177l-0.082,-0.174l-0.084,-0.174l-0.084,-0.174l-0.086,-0.175l-0.087,-0.172l-0.087,-0.172l-0.089,-0.172l-0.089,-0.171l-0.091,-0.17l-0.092,-0.171l-0.093,-0.169l-0.093,-0.168l-0.095,-0.168l-0.096,-0.168l-0.095,-0.165l-0.098,-0.166l-0.099,-0.166l-0.1,-0.166l-0.1,-0.164l-0.101,-0.163l-0.103,-0.163l-0.103,-0.162l-0.104,-0.161l-0.105,-0.161l-0.107,-0.161l-0.107,-0.159l-0.108,-0.159l-0.109,-0.158l-0.109,-0.157l-0.112,-0.157l-0.111,-0.156l-0.113,-0.155l-0.113,-0.156l-0.114,-0.152l-0.116,-0.154l-0.117,-0.153l-0.117,-0.152l-0.118,-0.151l-0.118,-0.15l-0.12,-0.149l-0.121,-0.149l-0.122,-0.149l-0.122,-0.148l-0.124,-0.146l-0.124,-0.147l-0.124,-0.144l-0.126,-0.145l-0.127,-0.144l-0.127,-0.142l-0.129,-0.142l-0.13,-0.142l-0.129,-0.14l-0.131,-0.14l-0.132,-0.139l-0.132,-0.138l-0.134,-0.137l-0.135,-0.138l-0.134,-0.135l-0.135,-0.134l-0.137,-0.135l-0.138,-0.134l-0.138,-0.132l-0.14,-0.132l-0.139,-0.131l-0.14,-0.129l-0.142,-0.13l-0.142,-0.129l-0.143,-0.127l-0.143,-0.126l-0.146,-0.127l-0.144,-0.125l-0.146,-0.124l-0.146,-0.123l-0.148,-0.123l-0.149,-0.122l-0.148,-0.12l-0.149,-0.119l-0.151,-0.119l-0.151,-0.118l-0.153,-0.118l-0.152,-0.117l-0.152,-0.114l-0.155,-0.115l-0.155,-0.114l-0.155,-0.112l-0.156,-0.112l-0.157,-0.11l-0.158,-0.111l-0.157,-0.108l-0.159,-0.108l-0.16,-0.108l-0.16,-0.106l-0.16,-0.105l-0.162,-0.104l-0.162,-0.103l-0.164,-0.104l-0.163,-0.101l-0.164,-0.1l-0.165,-0.1l-0.164,-0.097l-0.168,-0.099l-0.167,-0.097l-0.166,-0.095l-0.168,-0.094l-0.168,-0.093l-0.169,-0.093l-0.172,-0.093l-0.169,-0.09l-0.17,-0.089l-0.174,-0.089l-0.171,-0.088l-0.172,-0.085l-0.175,-0.087l-0.173,-0.084l-0.174,-0.083l-0.176,-0.083l-0.176,-0.082l-0.177,-0.081l-0.176,-0.079l-0.177,-0.078l-0.179,-0.077l-0.179,-0.077l-0.179,-0.075l-0.179,-0.074l-0.181,-0.073l-0.18,-0.072l-0.18,-0.07l-0.183,-0.07l-0.184,-0.07l-0.182,-0.067l-0.183,-0.067l-0.183,-0.065l-0.184,-0.064l-0.186,-0.063l-0.187,-0.063l-0.186,-0.061l-0.186,-0.06l-0.186,-0.059l-0.187,-0.057l-0.188,-0.057l-0.188,-0.055l-0.19,-0.055l-0.189,-0.053l-0.19,-0.052l-0.19,-0.051l-0.191,-0.05l-0.191,-0.048l-0.192,-0.047l-0.193,-0.047l-0.193,-0.046l-0.191,-0.043l-0.194,-0.043l-0.195,-0.042l-0.193,-0.04l-0.195,-0.039l-0.197,-0.039l-0.194,-0.037l-0.195,-0.035l-0.198,-0.034l-0.197,-0.034l-0.196,-0.032l-0.198,-0.031l-0.199,-0.029l-0.199,-0.029l-0.199,-0.027l-0.2,-0.026l-0.198,-0.025l-0.201,-0.024l-0.201,-0.022l-0.199,-0.021l-0.202,-0.02l-0.202,-0.019l-0.201,-0.017l-0.203,-0.016l-0.202,-0.015l-0.204,-0.013l-0.204,-0.013l-0.202,-0.01l-0.205,-0.01l-0.204,-0.009l-0.204,-0.007l-0.206,-0.005l-0.206,-0.005l-0.205,-0.003l-0.207,-0.002l-0.209,-0.001l-11.631,0Z" style="fill:#e11111;"/></svg>