<?xml version="1.0" encoding="UTF-8" standalone="no"?><!DOCTYPE svg PUBLIC "-//W3C//DTD SVG 1.1//EN" "http://www.w3.org/Graphics/SVG/1.1/DTD/svg11.dtd"><svg width="100%" height="100%" viewBox="0 0 78 66" version="1.1" xmlns="http://www.w3.org/2000/svg" xmlns:xlink="http://www.w3.org/1999/xlink" xml:space="preserve" xmlns:serif="http://www.serif.com/" style="fill-rule:evenodd;clip-rule:evenodd;stroke-linejoin:round;stroke-miterlimit:1.41421;"><path d="M55.93,39.641l-18.522,0l0,-3l18.522,0l0,3Z" style="fill:#fff;"/><path d="M55.93,29.288l-34.052,0l0,-3l34.052,0l0,3Z" style="fill:#fff;"/><path d="M45.049,1.205l0.205,0.002l0.204,0.003l0.204,0.005l0.204,0.005l0.204,0.007l0.203,0.009l0.203,0.009l0.203,0.011l0.202,0.013l0.202,0.013l0.201,0.015l0.202,0.016l0.201,0.017l0.2,0.018l0.201,0.02l0.199,0.021l0.2,0.022l0.199,0.024l0.199,0.024l0.198,0.026l0.198,0.027l0.198,0.029l0.197,0.029l0.197,0.031l0.197,0.032l0.196,0.033l0.195,0.035l0.196,0.035l0.195,0.037l0.194,0.038l0.194,0.039l0.194,0.04l0.193,0.042l0.193,0.042l0.192,0.044l0.192,0.045l0.191,0.046l0.191,0.048l0.191,0.048l0.19,0.049l0.189,0.051l0.189,0.052l0.189,0.053l0.188,0.054l0.188,0.055l0.187,0.057l0.187,0.057l0.186,0.059l0.186,0.06l0.185,0.06l0.185,0.062l0.184,0.064l0.184,0.064l0.183,0.065l0.183,0.066l0.182,0.068l0.182,0.068l0.181,0.07l0.18,0.07l0.18,0.072l0.18,0.073l0.179,0.074l0.179,0.074l0.177,0.076l0.177,0.077l0.177,0.078l0.176,0.079l0.176,0.08l0.175,0.082l0.174,0.082l0.174,0.083l0.174,0.084l0.172,0.085l0.173,0.087l0.171,0.087l0.171,0.088l0.17,0.089l0.17,0.091l0.169,0.091l0.168,0.092l0.168,0.093l0.167,0.094l0.167,0.095l0.166,0.097l0.165,0.097l0.165,0.098l0.164,0.099l0.163,0.1l0.163,0.101l0.162,0.102l0.161,0.103l0.161,0.103l0.16,0.105l0.16,0.106l0.159,0.106l0.158,0.108l0.157,0.108l0.157,0.11l0.156,0.11l0.155,0.111l0.154,0.112l0.154,0.113l0.154,0.114l0.152,0.115l0.152,0.115l0.151,0.117l0.15,0.117l0.15,0.119l0.149,0.119l0.148,0.12l0.147,0.121l0.147,0.122l0.146,0.122l0.145,0.124l0.145,0.124l0.143,0.126l0.143,0.125l0.142,0.127l0.142,0.128l0.14,0.129l0.14,0.129l0.139,0.13l0.138,0.131l0.138,0.132l0.136,0.133l0.136,0.133l0.136,0.135l0.134,0.135l0.133,0.136l0.133,0.136l0.132,0.138l0.131,0.138l0.13,0.139l0.13,0.14l0.128,0.14l0.128,0.142l0.127,0.142l0.126,0.143l0.125,0.144l0.124,0.144l0.124,0.145l0.122,0.146l0.122,0.147l0.121,0.147l0.12,0.149l0.119,0.148l0.119,0.15l0.117,0.15l0.117,0.151l0.115,0.152l0.115,0.153l0.114,0.153l0.113,0.154l0.112,0.154l0.111,0.156l0.111,0.156l0.109,0.156l0.108,0.158l0.108,0.158l0.106,0.158l0.106,0.16l0.105,0.16l0.103,0.16l0.103,0.162l0.102,0.162l0.101,0.163l0.1,0.163l0.099,0.164l0.098,0.165l0.097,0.165l0.096,0.166l0.096,0.167l0.094,0.167l0.093,0.168l0.092,0.168l0.092,0.169l0.09,0.17l0.089,0.171l0.088,0.17l0.088,0.172l0.086,0.172l0.085,0.172l0.084,0.174l0.083,0.174l0.083,0.174l0.081,0.175l0.08,0.176l0.079,0.176l0.078,0.177l0.077,0.177l0.076,0.178l0.075,0.179l0.073,0.178l0.073,0.179l0.072,0.181l0.071,0.18l0.069,0.182l0.069,0.181l0.067,0.182l0.066,0.183l0.066,0.183l0.064,0.184l0.063,0.184l0.062,0.185l0.061,0.185l0.059,0.186l0.059,0.187l0.057,0.186l0.057,0.187l0.055,0.188l0.054,0.188l0.053,0.189l0.052,0.189l0.051,0.19l0.049,0.19l0.049,0.19l0.047,0.191l0.046,0.191l0.045,0.192l0.044,0.193l0.043,0.192l0.041,0.194l0.04,0.193l0.039,0.194l0.038,0.195l0.037,0.195l0.036,0.195l0.034,0.195l0.033,0.197l0.032,0.196l0.031,0.197l0.029,0.197l0.029,0.198l0.027,0.198l0.026,0.199l0.024,0.198l0.024,0.199l0.022,0.2l0.021,0.2l0.02,0.2l0.018,0.201l0.017,0.2l0.016,0.202l0.015,0.202l0.014,0.201l0.012,0.203l0.011,0.202l0.009,0.203l0.009,0.204l0.007,0.203l0.006,0.204l0.004,0.204l0.003,0.205l0.002,0.204l0.001,0.206l-0.001,0.205l-0.002,0.204l-0.003,0.205l-0.004,0.204l-0.006,0.204l-0.007,0.203l-0.009,0.204l-0.009,0.203l-0.011,0.202l-0.012,0.203l-0.014,0.201l-0.015,0.202l-0.016,0.202l-0.017,0.2l-0.018,0.201l-0.02,0.2l-0.021,0.2l-0.022,0.2l-0.024,0.199l-0.024,0.198l-0.026,0.199l-0.027,0.198l-0.029,0.198l-0.029,0.197l-0.031,0.197l-0.032,0.196l-0.033,0.197l-0.034,0.195l-0.036,0.195l-0.037,0.195l-0.038,0.195l-0.039,0.194l-0.04,0.193l-0.041,0.194l-0.043,0.192l-0.044,0.193l-0.045,0.192l-0.046,0.191l-0.047,0.191l-0.049,0.19l-0.049,0.19l-0.051,0.19l-0.052,0.189l-0.053,0.189l-0.054,0.188l-0.055,0.188l-0.057,0.187l-0.057,0.186l-0.059,0.187l-0.059,0.186l-0.061,0.185l-0.062,0.185l-0.063,0.184l-0.064,0.184l-0.066,0.183l-0.066,0.183l-0.067,0.182l-0.069,0.181l-0.069,0.182l-0.071,0.18l-0.072,0.181l-0.073,0.179l-0.073,0.178l-0.075,0.179l-0.076,0.178l-0.077,0.177l-0.078,0.177l-0.079,0.176l-0.08,0.176l-0.081,0.175l-0.083,0.174l-0.083,0.174l-0.084,0.174l-0.085,0.172l-0.086,0.172l-0.088,0.172l-0.088,0.17l-0.089,0.171l-0.09,0.17l-0.092,0.169l-0.092,0.168l-0.093,0.168l-0.094,0.167l-0.096,0.167l-0.096,0.166l-0.097,0.165l-0.098,0.165l-0.099,0.164l-0.1,0.163l-0.101,0.163l-0.102,0.162l-0.103,0.162l-0.103,0.16l-0.105,0.16l-0.106,0.16l-0.106,0.158l-0.108,0.158l-0.108,0.158l-0.109,0.156l-0.111,0.156l-0.111,0.156l-0.112,0.154l-0.113,0.154l-0.114,0.153l-0.115,0.153l-0.115,0.152l-0.117,0.151l-0.117,0.15l-0.119,0.15l-0.119,0.148l-0.12,0.149l-0.121,0.147l-0.122,0.147l-0.122,0.146l-0.124,0.145l-0.124,0.144l-0.125,0.144l-0.126,0.143l-0.127,0.142l-0.128,0.142l-0.128,0.14l-0.13,0.14l-0.13,0.139l-0.131,0.138l-0.132,0.138l-0.133,0.136l-0.133,0.136l-0.134,0.135l-0.136,0.135l-0.136,0.133l-0.136,0.133l-0.138,0.132l-0.138,0.131l-0.139,0.13l-0.14,0.129l-0.14,0.129l-0.142,0.128l-0.142,0.127l-0.143,0.125l-0.143,0.126l-0.145,0.124l-0.145,0.124l-0.146,0.122l-0.147,0.122l-0.147,0.121l-0.148,0.12l-0.149,0.119l-0.15,0.119l-0.15,0.117l-0.151,0.117l-0.152,0.115l-0.152,0.115l-0.154,0.114l-0.154,0.113l-0.154,0.112l-0.155,0.111l-0.156,0.11l-0.157,0.11l-0.157,0.108l-0.158,0.108l-0.159,0.106l-0.16,0.106l-0.16,0.105l-0.161,0.104l-0.161,0.102l-0.162,0.102l-0.163,0.101l-0.163,0.1l-0.164,0.099l-0.165,0.098l-0.165,0.097l-0.166,0.097l-0.167,0.095l-0.167,0.094l-0.168,0.093l-0.168,0.092l-0.169,0.092l-0.17,0.09l-0.17,0.089l-0.171,0.088l-0.171,0.087l-0.173,0.087l-0.172,0.085l-0.174,0.084l-0.174,0.083l-0.174,0.082l-0.175,0.082l-0.176,0.08l-0.176,0.079l-0.177,0.078l-0.177,0.077l-0.177,0.076l-0.179,0.075l-0.179,0.073l-0.18,0.073l-0.18,0.072l-0.18,0.07l-0.181,0.07l-0.182,0.068l-0.182,0.068l-0.183,0.066l-0.183,0.065l-0.184,0.065l-0.184,0.063l-0.185,0.062l-0.185,0.06l-0.186,0.06l-0.186,0.059l-0.187,0.057l-0.187,0.057l-0.188,0.055l-0.188,0.054l-0.189,0.053l-0.189,0.052l-0.189,0.051l-0.19,0.049l-0.191,0.049l-0.191,0.047l-0.191,0.046l-0.192,0.045l-0.192,0.044l-0.193,0.042l-0.193,0.042l-0.194,0.04l-0.194,0.039l-0.194,0.038l-0.195,0.037l-0.196,0.035l-0.195,0.035l-0.196,0.033l-0.197,0.032l-0.197,0.031l-0.197,0.029l-0.198,0.029l-0.198,0.027l-0.198,0.026l-0.199,0.024l-0.199,0.024l-0.2,0.022l-0.199,0.021l-0.201,0.02l-0.2,0.018l-0.201,0.017l-0.202,0.016l-0.201,0.015l-0.202,0.013l-0.202,0.013l-0.203,0.011l-0.203,0.009l-0.203,0.009l-0.204,0.007l-0.204,0.005l-0.204,0.005l-0.204,0.003l-0.205,0.002l-0.203,0.001l-11.884,0l-0.203,-0.001l-0.204,-0.002l-0.205,-0.003l-0.204,-0.005l-0.204,-0.005l-0.204,-0.007l-0.203,-0.009l-0.203,-0.009l-0.202,-0.011l-0.203,-0.013l-0.202,-0.013l-0.201,-0.015l-0.202,-0.016l-0.2,-0.017l-0.201,-0.018l-0.2,-0.02l-0.2,-0.021l-0.2,-0.022l-0.199,-0.024l-0.199,-0.024l-0.198,-0.026l-0.198,-0.027l-0.198,-0.029l-0.197,-0.029l-0.197,-0.031l-0.196,-0.032l-0.197,-0.033l-0.195,-0.035l-0.196,-0.035l-0.194,-0.037l-0.195,-0.038l-0.194,-0.039l-0.193,-0.04l-0.194,-0.042l-0.192,-0.042l-0.193,-0.044l-0.191,-0.045l-0.192,-0.046l-0.191,-0.047l-0.19,-0.049l-0.19,-0.049l-0.19,-0.051l-0.189,-0.052l-0.189,-0.053l-0.188,-0.054l-0.188,-0.055l-0.187,-0.057l-0.187,-0.057l-0.186,-0.059l-0.186,-0.06l-0.185,-0.061l-0.185,-0.061l-0.184,-0.063l-0.184,-0.065l-0.183,-0.065l-0.183,-0.066l-0.182,-0.068l-0.181,-0.068l-0.182,-0.07l-0.18,-0.07l-0.18,-0.072l-0.18,-0.073l-0.179,-0.073l-0.178,-0.075l-0.178,-0.076l-0.177,-0.077l-0.177,-0.078l-0.176,-0.079l-0.176,-0.08l-0.175,-0.082l-0.174,-0.082l-0.174,-0.083l-0.173,-0.084l-0.173,-0.085l-0.172,-0.087l-0.172,-0.087l-0.17,-0.088l-0.171,-0.089l-0.17,-0.091l-0.169,-0.091l-0.168,-0.092l-0.168,-0.093l-0.167,-0.094l-0.167,-0.095l-0.166,-0.097l-0.165,-0.097l-0.165,-0.098l-0.164,-0.099l-0.163,-0.1l-0.163,-0.101l-0.162,-0.102l-0.161,-0.102l-0.161,-0.104l-0.16,-0.105l-0.16,-0.106l-0.158,-0.106l-0.158,-0.108l-0.158,-0.108l-0.156,-0.11l-0.157,-0.11l-0.155,-0.111l-0.154,-0.112l-0.154,-0.113l-0.153,-0.114l-0.153,-0.115l-0.152,-0.115l-0.151,-0.117l-0.15,-0.117l-0.15,-0.119l-0.149,-0.119l-0.148,-0.12l-0.147,-0.121l-0.147,-0.122l-0.146,-0.122l-0.145,-0.124l-0.144,-0.124l-0.144,-0.126l-0.143,-0.125l-0.142,-0.127l-0.142,-0.128l-0.14,-0.129l-0.14,-0.129l-0.139,-0.13l-0.138,-0.131l-0.138,-0.132l-0.136,-0.133l-0.136,-0.133l-0.135,-0.135l-0.135,-0.135l-0.133,-0.136l-0.133,-0.136l-0.132,-0.138l-0.131,-0.138l-0.13,-0.139l-0.129,-0.14l-0.129,-0.14l-0.127,-0.142l-0.128,-0.142l-0.126,-0.143l-0.125,-0.144l-0.124,-0.144l-0.124,-0.146l-0.122,-0.145l-0.122,-0.147l-0.121,-0.147l-0.12,-0.148l-0.119,-0.149l-0.119,-0.15l-0.117,-0.15l-0.116,-0.151l-0.116,-0.152l-0.115,-0.153l-0.114,-0.153l-0.113,-0.154l-0.112,-0.154l-0.111,-0.156l-0.11,-0.156l-0.11,-0.156l-0.108,-0.158l-0.108,-0.158l-0.106,-0.158l-0.106,-0.16l-0.105,-0.16l-0.103,-0.16l-0.103,-0.162l-0.102,-0.162l-0.101,-0.163l-0.1,-0.163l-0.099,-0.164l-0.098,-0.165l-0.097,-0.165l-0.097,-0.166l-0.095,-0.167l-0.094,-0.167l-0.093,-0.168l-0.092,-0.168l-0.091,-0.169l-0.091,-0.17l-0.089,-0.171l-0.088,-0.17l-0.087,-0.172l-0.087,-0.172l-0.085,-0.172l-0.084,-0.174l-0.083,-0.174l-0.082,-0.174l-0.082,-0.175l-0.08,-0.176l-0.079,-0.176l-0.078,-0.177l-0.077,-0.177l-0.076,-0.178l-0.074,-0.178l-0.074,-0.179l-0.073,-0.179l-0.072,-0.181l-0.07,-0.18l-0.07,-0.182l-0.068,-0.181l-0.068,-0.182l-0.066,-0.183l-0.065,-0.183l-0.064,-0.184l-0.064,-0.184l-0.061,-0.185l-0.061,-0.185l-0.06,-0.186l-0.059,-0.186l-0.057,-0.187l-0.057,-0.187l-0.055,-0.188l-0.054,-0.188l-0.053,-0.189l-0.052,-0.189l-0.05,-0.189l-0.05,-0.19l-0.049,-0.191l-0.047,-0.191l-0.046,-0.191l-0.045,-0.193l-0.044,-0.192l-0.042,-0.192l-0.042,-0.193l-0.04,-0.194l-0.039,-0.194l-0.038,-0.195l-0.037,-0.195l-0.035,-0.195l-0.035,-0.195l-0.033,-0.197l-0.032,-0.196l-0.031,-0.197l-0.029,-0.197l-0.028,-0.198l-0.028,-0.198l-0.026,-0.199l-0.024,-0.198l-0.024,-0.199l-0.022,-0.2l-0.021,-0.2l-0.019,-0.2l-0.019,-0.2l-0.017,-0.201l-0.016,-0.202l-0.015,-0.202l-0.013,-0.201l-0.013,-0.203l-0.011,-0.202l-0.009,-0.203l-0.009,-0.203l-0.007,-0.204l-0.005,-0.204l-0.005,-0.204l-0.003,-0.205l-0.002,-0.205l-0.001,-0.204l0.001,-0.205l0.002,-0.205l0.003,-0.205l0.005,-0.204l0.005,-0.204l0.007,-0.204l0.009,-0.203l0.009,-0.203l0.011,-0.202l0.013,-0.203l0.013,-0.201l0.015,-0.202l0.016,-0.202l0.017,-0.201l0.019,-0.2l0.019,-0.2l0.021,-0.2l0.022,-0.2l0.024,-0.199l0.024,-0.198l0.026,-0.199l0.028,-0.198l0.028,-0.198l0.029,-0.197l0.031,-0.197l0.032,-0.196l0.033,-0.197l0.035,-0.195l0.035,-0.195l0.037,-0.195l0.038,-0.195l0.039,-0.194l0.04,-0.194l0.042,-0.193l0.042,-0.192l0.044,-0.192l0.045,-0.193l0.046,-0.191l0.047,-0.191l0.049,-0.191l0.05,-0.19l0.05,-0.189l0.052,-0.189l0.053,-0.189l0.054,-0.188l0.055,-0.188l0.057,-0.187l0.057,-0.187l0.059,-0.186l0.06,-0.186l0.061,-0.185l0.061,-0.185l0.064,-0.184l0.064,-0.184l0.065,-0.183l0.066,-0.183l0.068,-0.182l0.068,-0.181l0.07,-0.182l0.07,-0.18l0.072,-0.181l0.073,-0.179l0.073,-0.179l0.075,-0.178l0.076,-0.178l0.077,-0.177l0.078,-0.177l0.079,-0.176l0.08,-0.176l0.082,-0.175l0.082,-0.174l0.083,-0.174l0.084,-0.174l0.085,-0.172l0.087,-0.172l0.087,-0.172l0.088,-0.17l0.089,-0.171l0.091,-0.17l0.091,-0.169l0.092,-0.168l0.093,-0.168l0.094,-0.167l0.095,-0.167l0.097,-0.166l0.097,-0.165l0.098,-0.165l0.099,-0.164l0.1,-0.163l0.101,-0.163l0.102,-0.162l0.103,-0.162l0.103,-0.16l0.105,-0.16l0.106,-0.16l0.106,-0.158l0.108,-0.158l0.108,-0.158l0.11,-0.156l0.11,-0.156l0.111,-0.156l0.112,-0.154l0.113,-0.154l0.114,-0.153l0.115,-0.153l0.116,-0.152l0.116,-0.151l0.117,-0.15l0.119,-0.15l0.119,-0.149l0.12,-0.148l0.121,-0.147l0.122,-0.147l0.122,-0.145l0.124,-0.146l0.124,-0.144l0.125,-0.144l0.126,-0.143l0.128,-0.142l0.127,-0.142l0.129,-0.14l0.129,-0.14l0.13,-0.139l0.131,-0.138l0.132,-0.138l0.133,-0.136l0.133,-0.136l0.135,-0.135l0.135,-0.135l0.136,-0.133l0.136,-0.133l0.138,-0.132l0.138,-0.131l0.139,-0.13l0.14,-0.129l0.14,-0.129l0.142,-0.128l0.142,-0.127l0.143,-0.125l0.144,-0.126l0.144,-0.124l0.145,-0.124l0.146,-0.122l0.147,-0.122l0.147,-0.121l0.148,-0.12l0.149,-0.119l0.15,-0.119l0.15,-0.117l0.151,-0.117l0.152,-0.115l0.153,-0.115l0.153,-0.114l0.154,-0.113l0.154,-0.112l0.155,-0.111l0.157,-0.11l0.156,-0.11l0.158,-0.108l0.158,-0.108l0.158,-0.106l0.16,-0.106l0.16,-0.105l0.161,-0.103l0.161,-0.103l0.162,-0.102l0.163,-0.101l0.163,-0.1l0.164,-0.099l0.165,-0.098l0.165,-0.097l0.166,-0.097l0.167,-0.095l0.167,-0.094l0.168,-0.093l0.168,-0.092l0.169,-0.091l0.17,-0.091l0.171,-0.089l0.17,-0.088l0.172,-0.087l0.172,-0.087l0.173,-0.085l0.173,-0.084l0.174,-0.083l0.174,-0.082l0.175,-0.082l0.176,-0.08l0.176,-0.079l0.177,-0.078l0.177,-0.077l0.178,-0.076l0.178,-0.074l0.179,-0.074l0.18,-0.073l0.18,-0.072l0.18,-0.07l0.182,-0.07l0.181,-0.068l0.182,-0.068l0.183,-0.066l0.183,-0.065l0.184,-0.065l0.184,-0.063l0.185,-0.061l0.185,-0.061l0.186,-0.06l0.186,-0.059l0.187,-0.057l0.187,-0.057l0.188,-0.055l0.188,-0.054l0.189,-0.053l0.189,-0.052l0.19,-0.051l0.19,-0.049l0.19,-0.048l0.191,-0.048l0.192,-0.046l0.191,-0.045l0.193,-0.044l0.192,-0.042l0.194,-0.042l0.193,-0.04l0.194,-0.039l0.195,-0.038l0.194,-0.037l0.196,-0.035l0.195,-0.035l0.197,-0.033l0.196,-0.032l0.197,-0.031l0.197,-0.029l0.198,-0.029l0.198,-0.027l0.198,-0.026l0.199,-0.024l0.199,-0.024l0.2,-0.022l0.2,-0.021l0.2,-0.02l0.201,-0.018l0.2,-0.017l0.202,-0.016l0.201,-0.015l0.202,-0.013l0.203,-0.013l0.202,-0.011l0.203,-0.009l0.203,-0.009l0.204,-0.007l0.204,-0.005l0.204,-0.005l0.205,-0.003l0.204,-0.002l0.203,-0.001l11.884,0l0.203,0.001Zm-12.082,2.999l-0.189,0.001l-0.185,0.002l-0.186,0.002l-0.185,0.005l-0.185,0.005l-0.184,0.006l-0.185,0.008l-0.184,0.009l-0.183,0.01l-0.184,0.011l-0.183,0.012l-0.182,0.013l-0.183,0.015l-0.182,0.015l-0.181,0.017l-0.182,0.018l-0.181,0.019l-0.181,0.02l-0.18,0.021l-0.18,0.022l-0.18,0.024l-0.179,0.024l-0.179,0.026l-0.178,0.027l-0.179,0.028l-0.178,0.029l-0.177,0.03l-0.177,0.031l-0.177,0.032l-0.176,0.033l-0.176,0.034l-0.176,0.036l-0.175,0.036l-0.175,0.038l-0.174,0.038l-0.174,0.04l-0.174,0.041l-0.173,0.042l-0.173,0.042l-0.172,0.044l-0.172,0.045l-0.172,0.046l-0.171,0.047l-0.171,0.048l-0.17,0.049l-0.17,0.05l-0.169,0.051l-0.169,0.052l-0.168,0.053l-0.169,0.054l-0.167,0.055l-0.167,0.056l-0.167,0.057l-0.166,0.058l-0.166,0.059l-0.165,0.06l-0.165,0.061l-0.165,0.062l-0.164,0.063l-0.163,0.064l-0.163,0.065l-0.162,0.066l-0.162,0.066l-0.162,0.068l-0.161,0.069l-0.16,0.069l-0.16,0.071l-0.16,0.072l-0.158,0.072l-0.159,0.074l-0.158,0.074l-0.157,0.075l-0.157,0.076l-0.156,0.078l-0.156,0.078l-0.155,0.079l-0.155,0.08l-0.155,0.08l-0.153,0.082l-0.153,0.083l-0.153,0.083l-0.152,0.085l-0.151,0.085l-0.151,0.086l-0.15,0.087l-0.15,0.088l-0.149,0.089l-0.148,0.089l-0.148,0.091l-0.148,0.091l-0.147,0.093l-0.146,0.093l-0.145,0.094l-0.145,0.095l-0.145,0.095l-0.143,0.097l-0.144,0.097l-0.142,0.099l-0.142,0.099l-0.141,0.099l-0.141,0.101l-0.14,0.102l-0.14,0.102l-0.138,0.103l-0.139,0.104l-0.137,0.105l-0.137,0.106l-0.136,0.106l-0.136,0.107l-0.135,0.108l-0.134,0.109l-0.133,0.11l-0.133,0.11l-0.132,0.111l-0.132,0.112l-0.131,0.113l-0.13,0.113l-0.13,0.115l-0.128,0.114l-0.128,0.116l-0.128,0.117l-0.127,0.117l-0.126,0.118l-0.125,0.119l-0.125,0.119l-0.123,0.121l-0.124,0.12l-0.122,0.122l-0.122,0.122l-0.121,0.124l-0.12,0.124l-0.119,0.124l-0.119,0.125l-0.118,0.126l-0.117,0.127l-0.117,0.128l-0.116,0.128l-0.115,0.128l-0.114,0.13l-0.113,0.13l-0.113,0.131l-0.112,0.131l-0.111,0.133l-0.11,0.133l-0.11,0.133l-0.109,0.135l-0.108,0.134l-0.107,0.136l-0.106,0.136l-0.106,0.137l-0.105,0.138l-0.104,0.137l-0.103,0.139l-0.102,0.14l-0.102,0.14l-0.1,0.14l-0.1,0.142l-0.1,0.142l-0.098,0.142l-0.097,0.143l-0.097,0.144l-0.095,0.145l-0.095,0.145l-0.094,0.145l-0.093,0.147l-0.093,0.146l-0.091,0.147l-0.09,0.148l-0.09,0.149l-0.089,0.149l-0.088,0.15l-0.087,0.15l-0.086,0.151l-0.086,0.152l-0.084,0.151l-0.083,0.153l-0.083,0.153l-0.082,0.153l-0.08,0.155l-0.08,0.155l-0.079,0.155l-0.078,0.156l-0.078,0.156l-0.076,0.157l-0.075,0.157l-0.074,0.158l-0.074,0.158l-0.072,0.159l-0.072,0.16l-0.071,0.16l-0.069,0.16l-0.069,0.161l-0.068,0.162l-0.066,0.162l-0.066,0.162l-0.065,0.163l-0.064,0.163l-0.063,0.164l-0.062,0.165l-0.061,0.165l-0.06,0.165l-0.059,0.166l-0.058,0.166l-0.057,0.167l-0.056,0.167l-0.055,0.167l-0.054,0.168l-0.053,0.169l-0.052,0.169l-0.051,0.169l-0.05,0.17l-0.049,0.171l-0.048,0.17l-0.047,0.171l-0.046,0.172l-0.045,0.172l-0.044,0.172l-0.042,0.173l-0.042,0.173l-0.041,0.174l-0.039,0.173l-0.039,0.176l-0.038,0.174l-0.036,0.175l-0.036,0.176l-0.034,0.176l-0.033,0.176l-0.032,0.177l-0.031,0.177l-0.03,0.177l-0.029,0.178l-0.028,0.179l-0.027,0.178l-0.026,0.179l-0.024,0.18l-0.024,0.179l-0.022,0.18l-0.021,0.181l-0.02,0.18l-0.019,0.181l-0.018,0.182l-0.017,0.181l-0.015,0.182l-0.015,0.183l-0.013,0.182l-0.012,0.183l-0.011,0.184l-0.01,0.183l-0.009,0.184l-0.008,0.185l-0.006,0.184l-0.005,0.185l-0.005,0.185l-0.003,0.186l-0.001,0.185l-0.001,0.187l0.001,0.186l0.001,0.185l0.003,0.186l0.005,0.185l0.005,0.185l0.006,0.184l0.008,0.185l0.009,0.184l0.01,0.183l0.011,0.184l0.012,0.183l0.013,0.182l0.015,0.183l0.015,0.182l0.017,0.181l0.018,0.182l0.019,0.181l0.02,0.18l0.021,0.181l0.022,0.18l0.024,0.179l0.024,0.18l0.026,0.179l0.027,0.178l0.028,0.179l0.029,0.178l0.03,0.177l0.031,0.177l0.032,0.177l0.033,0.176l0.034,0.176l0.036,0.176l0.036,0.175l0.038,0.174l0.039,0.176l0.039,0.173l0.041,0.174l0.042,0.173l0.042,0.173l0.044,0.172l0.045,0.172l0.046,0.172l0.047,0.171l0.048,0.17l0.049,0.171l0.05,0.17l0.051,0.169l0.052,0.169l0.053,0.169l0.054,0.168l0.055,0.167l0.056,0.167l0.057,0.167l0.058,0.166l0.059,0.166l0.06,0.165l0.061,0.165l0.062,0.165l0.063,0.164l0.064,0.163l0.065,0.163l0.066,0.162l0.066,0.162l0.068,0.162l0.069,0.161l0.069,0.16l0.071,0.16l0.072,0.16l0.072,0.159l0.074,0.158l0.074,0.158l0.075,0.157l0.076,0.157l0.078,0.156l0.078,0.156l0.079,0.155l0.08,0.155l0.08,0.155l0.082,0.153l0.083,0.153l0.083,0.153l0.084,0.151l0.086,0.152l0.086,0.151l0.087,0.15l0.088,0.15l0.089,0.149l0.09,0.149l0.09,0.148l0.091,0.147l0.093,0.146l0.093,0.147l0.094,0.145l0.095,0.145l0.095,0.145l0.097,0.144l0.097,0.143l0.098,0.142l0.1,0.142l0.1,0.142l0.1,0.14l0.102,0.14l0.102,0.14l0.103,0.139l0.104,0.137l0.105,0.138l0.106,0.137l0.106,0.136l0.107,0.136l0.108,0.134l0.109,0.135l0.11,0.133l0.11,0.133l0.111,0.133l0.112,0.131l0.113,0.131l0.113,0.13l0.114,0.13l0.115,0.128l0.116,0.128l0.117,0.128l0.117,0.127l0.118,0.126l0.119,0.125l0.119,0.124l0.12,0.124l0.121,0.124l0.122,0.122l0.122,0.122l0.124,0.121l0.123,0.12l0.125,0.119l0.125,0.119l0.126,0.118l0.127,0.118l0.128,0.116l0.128,0.116l0.128,0.115l0.13,0.114l0.13,0.113l0.131,0.113l0.132,0.112l0.132,0.111l0.133,0.11l0.133,0.11l0.134,0.109l0.135,0.108l0.136,0.107l0.136,0.106l0.137,0.106l0.137,0.105l0.139,0.104l0.138,0.103l0.14,0.102l0.14,0.102l0.141,0.101l0.141,0.099l0.142,0.099l0.142,0.099l0.144,0.097l0.143,0.097l0.145,0.095l0.145,0.095l0.145,0.094l0.146,0.093l0.147,0.093l0.148,0.091l0.148,0.091l0.148,0.089l0.149,0.089l0.15,0.088l0.15,0.087l0.151,0.086l0.151,0.085l0.152,0.085l0.153,0.083l0.153,0.083l0.153,0.082l0.155,0.08l0.155,0.08l0.155,0.079l0.156,0.078l0.156,0.078l0.157,0.076l0.157,0.075l0.158,0.074l0.159,0.074l0.158,0.072l0.16,0.072l0.16,0.071l0.16,0.069l0.161,0.069l0.162,0.068l0.162,0.066l0.162,0.066l0.163,0.065l0.163,0.064l0.164,0.063l0.165,0.062l0.165,0.061l0.165,0.06l0.166,0.059l0.166,0.058l0.167,0.057l0.167,0.056l0.167,0.055l0.169,0.054l0.168,0.053l0.169,0.052l0.169,0.051l0.17,0.05l0.17,0.049l0.171,0.048l0.171,0.047l0.172,0.046l0.172,0.045l0.172,0.044l0.173,0.042l0.173,0.042l0.174,0.041l0.174,0.04l0.174,0.038l0.175,0.038l0.175,0.036l0.176,0.036l0.176,0.034l0.176,0.033l0.177,0.032l0.177,0.031l0.177,0.03l0.178,0.029l0.179,0.028l0.178,0.027l0.179,0.026l0.179,0.024l0.18,0.024l0.18,0.022l0.18,0.021l0.181,0.02l0.181,0.019l0.181,0.018l0.182,0.017l0.182,0.015l0.183,0.015l0.182,0.013l0.183,0.012l0.184,0.011l0.183,0.01l0.184,0.009l0.185,0.008l0.184,0.006l0.185,0.005l0.185,0.005l0.186,0.002l0.185,0.002l0.189,0.001l11.874,0l0.189,-0.001l0.185,-0.002l0.186,-0.002l0.185,-0.005l0.185,-0.005l0.185,-0.006l0.184,-0.008l0.184,-0.009l0.183,-0.01l0.184,-0.011l0.183,-0.012l0.183,-0.013l0.182,-0.015l0.182,-0.015l0.182,-0.017l0.181,-0.018l0.181,-0.019l0.181,-0.02l0.18,-0.021l0.18,-0.022l0.18,-0.024l0.179,-0.024l0.179,-0.026l0.179,-0.027l0.178,-0.028l0.178,-0.029l0.177,-0.03l0.177,-0.031l0.177,-0.032l0.176,-0.033l0.176,-0.034l0.176,-0.036l0.175,-0.036l0.175,-0.038l0.174,-0.038l0.174,-0.04l0.174,-0.041l0.173,-0.042l0.173,-0.042l0.172,-0.044l0.172,-0.045l0.172,-0.046l0.171,-0.047l0.171,-0.048l0.17,-0.049l0.17,-0.05l0.169,-0.051l0.169,-0.052l0.169,-0.053l0.168,-0.054l0.167,-0.055l0.168,-0.056l0.166,-0.057l0.166,-0.058l0.166,-0.059l0.166,-0.06l0.165,-0.061l0.164,-0.062l0.164,-0.063l0.163,-0.064l0.163,-0.065l0.163,-0.066l0.162,-0.066l0.161,-0.068l0.161,-0.069l0.16,-0.069l0.16,-0.071l0.16,-0.072l0.159,-0.072l0.158,-0.073l0.158,-0.075l0.158,-0.075l0.156,-0.076l0.157,-0.078l0.155,-0.078l0.156,-0.079l0.155,-0.08l0.154,-0.08l0.153,-0.082l0.153,-0.083l0.153,-0.083l0.152,-0.085l0.151,-0.085l0.151,-0.086l0.15,-0.087l0.15,-0.088l0.149,-0.089l0.148,-0.089l0.149,-0.091l0.147,-0.091l0.147,-0.093l0.146,-0.093l0.145,-0.094l0.145,-0.095l0.145,-0.095l0.144,-0.097l0.143,-0.097l0.143,-0.099l0.141,-0.099l0.142,-0.099l0.14,-0.101l0.14,-0.102l0.14,-0.102l0.139,-0.103l0.138,-0.104l0.137,-0.105l0.137,-0.106l0.136,-0.106l0.136,-0.107l0.135,-0.108l0.134,-0.109l0.134,-0.11l0.132,-0.11l0.133,-0.111l0.131,-0.112l0.131,-0.113l0.13,-0.113l0.13,-0.114l0.129,-0.115l0.128,-0.116l0.127,-0.116l0.127,-0.118l0.126,-0.118l0.125,-0.119l0.125,-0.119l0.124,-0.12l0.123,-0.121l0.122,-0.122l0.122,-0.122l0.121,-0.124l0.12,-0.124l0.12,-0.124l0.118,-0.125l0.118,-0.126l0.117,-0.127l0.117,-0.128l0.116,-0.128l0.115,-0.128l0.114,-0.13l0.114,-0.13l0.112,-0.131l0.112,-0.132l0.111,-0.132l0.111,-0.133l0.109,-0.133l0.109,-0.134l0.108,-0.135l0.107,-0.136l0.106,-0.136l0.106,-0.137l0.105,-0.138l0.104,-0.137l0.103,-0.139l0.103,-0.14l0.101,-0.14l0.101,-0.14l0.1,-0.142l0.099,-0.142l0.098,-0.142l0.097,-0.143l0.097,-0.144l0.095,-0.145l0.095,-0.145l0.094,-0.145l0.094,-0.147l0.092,-0.146l0.091,-0.147l0.091,-0.148l0.089,-0.149l0.089,-0.149l0.088,-0.15l0.087,-0.15l0.087,-0.151l0.085,-0.151l0.084,-0.152l0.084,-0.153l0.082,-0.153l0.082,-0.153l0.081,-0.155l0.08,-0.155l0.079,-0.155l0.078,-0.156l0.077,-0.156l0.076,-0.157l0.075,-0.157l0.075,-0.158l0.073,-0.158l0.072,-0.159l0.072,-0.16l0.071,-0.16l0.069,-0.16l0.069,-0.161l0.068,-0.161l0.067,-0.163l0.066,-0.162l0.064,-0.163l0.064,-0.163l0.063,-0.164l0.062,-0.165l0.061,-0.165l0.06,-0.165l0.059,-0.166l0.058,-0.166l0.057,-0.167l0.056,-0.167l0.055,-0.167l0.054,-0.168l0.053,-0.169l0.052,-0.169l0.051,-0.169l0.05,-0.17l0.049,-0.171l0.048,-0.17l0.047,-0.171l0.046,-0.172l0.045,-0.172l0.044,-0.172l0.043,-0.173l0.041,-0.173l0.041,-0.174l0.04,-0.174l0.038,-0.174l0.038,-0.175l0.036,-0.175l0.036,-0.176l0.034,-0.176l0.033,-0.176l0.032,-0.177l0.032,-0.177l0.03,-0.177l0.028,-0.178l0.028,-0.179l0.027,-0.178l0.026,-0.179l0.024,-0.18l0.024,-0.179l0.022,-0.18l0.021,-0.181l0.02,-0.18l0.019,-0.181l0.018,-0.182l0.017,-0.181l0.016,-0.182l0.014,-0.183l0.013,-0.182l0.013,-0.183l0.011,-0.184l0.01,-0.184l0.008,-0.183l0.008,-0.184l0.006,-0.185l0.006,-0.185l0.004,-0.185l0.003,-0.186l0.001,-0.185l0.001,-0.186l-0.001,-0.187l-0.001,-0.185l-0.003,-0.186l-0.004,-0.185l-0.006,-0.185l-0.006,-0.185l-0.008,-0.184l-0.008,-0.183l-0.01,-0.184l-0.011,-0.184l-0.013,-0.183l-0.013,-0.182l-0.014,-0.183l-0.016,-0.182l-0.017,-0.181l-0.018,-0.182l-0.019,-0.181l-0.02,-0.18l-0.021,-0.181l-0.022,-0.18l-0.024,-0.179l-0.024,-0.18l-0.026,-0.179l-0.027,-0.178l-0.028,-0.179l-0.028,-0.178l-0.03,-0.177l-0.032,-0.177l-0.032,-0.177l-0.033,-0.176l-0.034,-0.176l-0.036,-0.176l-0.036,-0.175l-0.038,-0.175l-0.038,-0.174l-0.04,-0.174l-0.041,-0.174l-0.041,-0.173l-0.043,-0.173l-0.044,-0.172l-0.045,-0.172l-0.046,-0.172l-0.047,-0.171l-0.048,-0.17l-0.049,-0.171l-0.05,-0.17l-0.051,-0.169l-0.052,-0.169l-0.053,-0.169l-0.054,-0.168l-0.055,-0.167l-0.056,-0.167l-0.057,-0.167l-0.058,-0.166l-0.059,-0.166l-0.06,-0.165l-0.061,-0.165l-0.062,-0.165l-0.063,-0.164l-0.064,-0.163l-0.064,-0.163l-0.066,-0.162l-0.067,-0.163l-0.068,-0.161l-0.069,-0.161l-0.069,-0.16l-0.071,-0.16l-0.072,-0.16l-0.072,-0.159l-0.073,-0.158l-0.075,-0.158l-0.075,-0.157l-0.076,-0.157l-0.077,-0.156l-0.078,-0.156l-0.079,-0.155l-0.08,-0.155l-0.081,-0.155l-0.082,-0.153l-0.082,-0.153l-0.084,-0.153l-0.084,-0.152l-0.085,-0.151l-0.087,-0.151l-0.087,-0.15l-0.088,-0.15l-0.089,-0.149l-0.089,-0.149l-0.091,-0.148l-0.091,-0.147l-0.092,-0.146l-0.094,-0.147l-0.094,-0.145l-0.095,-0.145l-0.095,-0.145l-0.097,-0.144l-0.097,-0.143l-0.098,-0.142l-0.099,-0.142l-0.1,-0.142l-0.101,-0.14l-0.101,-0.14l-0.103,-0.14l-0.103,-0.139l-0.104,-0.137l-0.105,-0.138l-0.106,-0.137l-0.106,-0.136l-0.107,-0.136l-0.108,-0.135l-0.109,-0.134l-0.109,-0.133l-0.111,-0.133l-0.111,-0.132l-0.112,-0.132l-0.112,-0.131l-0.114,-0.13l-0.114,-0.13l-0.115,-0.128l-0.116,-0.128l-0.117,-0.128l-0.117,-0.127l-0.118,-0.126l-0.118,-0.125l-0.12,-0.124l-0.12,-0.124l-0.121,-0.124l-0.122,-0.122l-0.122,-0.122l-0.123,-0.12l-0.124,-0.121l-0.125,-0.119l-0.125,-0.119l-0.126,-0.118l-0.127,-0.117l-0.127,-0.117l-0.128,-0.116l-0.129,-0.114l-0.13,-0.115l-0.13,-0.113l-0.131,-0.113l-0.131,-0.112l-0.133,-0.111l-0.132,-0.11l-0.134,-0.11l-0.134,-0.109l-0.135,-0.108l-0.136,-0.107l-0.136,-0.106l-0.137,-0.106l-0.137,-0.105l-0.138,-0.104l-0.139,-0.103l-0.14,-0.102l-0.14,-0.102l-0.14,-0.101l-0.142,-0.099l-0.141,-0.099l-0.143,-0.099l-0.143,-0.097l-0.144,-0.097l-0.145,-0.095l-0.145,-0.095l-0.145,-0.094l-0.146,-0.093l-0.147,-0.093l-0.147,-0.091l-0.149,-0.091l-0.148,-0.089l-0.149,-0.089l-0.15,-0.088l-0.15,-0.087l-0.151,-0.086l-0.151,-0.085l-0.152,-0.085l-0.153,-0.083l-0.153,-0.083l-0.153,-0.082l-0.154,-0.08l-0.155,-0.08l-0.156,-0.079l-0.155,-0.078l-0.157,-0.078l-0.156,-0.076l-0.158,-0.075l-0.158,-0.074l-0.158,-0.074l-0.159,-0.072l-0.16,-0.072l-0.16,-0.071l-0.16,-0.069l-0.161,-0.069l-0.161,-0.068l-0.162,-0.066l-0.163,-0.066l-0.163,-0.065l-0.163,-0.064l-0.164,-0.063l-0.164,-0.062l-0.165,-0.061l-0.166,-0.06l-0.166,-0.059l-0.166,-0.058l-0.166,-0.057l-0.168,-0.056l-0.167,-0.055l-0.168,-0.054l-0.169,-0.053l-0.169,-0.052l-0.169,-0.051l-0.17,-0.05l-0.17,-0.049l-0.171,-0.048l-0.171,-0.047l-0.172,-0.046l-0.172,-0.045l-0.172,-0.044l-0.173,-0.042l-0.173,-0.042l-0.174,-0.041l-0.174,-0.04l-0.174,-0.038l-0.175,-0.038l-0.175,-0.036l-0.176,-0.036l-0.176,-0.034l-0.176,-0.033l-0.177,-0.032l-0.177,-0.031l-0.177,-0.03l-0.178,-0.029l-0.178,-0.028l-0.179,-0.027l-0.179,-0.026l-0.179,-0.024l-0.18,-0.024l-0.18,-0.022l-0.18,-0.021l-0.181,-0.02l-0.181,-0.019l-0.181,-0.018l-0.182,-0.017l-0.182,-0.015l-0.182,-0.015l-0.183,-0.013l-0.183,-0.012l-0.184,-0.011l-0.183,-0.01l-0.184,-0.009l-0.184,-0.008l-0.185,-0.006l-0.185,-0.005l-0.185,-0.005l-0.186,-0.002l-0.185,-0.002l-0.189,-0.001l-11.874,0Z" style="fill:#fff;"/></svg>