<?xml version="1.0" encoding="UTF-8" standalone="no"?><!DOCTYPE svg PUBLIC "-//W3C//DTD SVG 1.1//EN" "http://www.w3.org/Graphics/SVG/1.1/DTD/svg11.dtd"><svg width="100%" height="100%" viewBox="0 0 264 264" version="1.1" xmlns="http://www.w3.org/2000/svg" xmlns:xlink="http://www.w3.org/1999/xlink" xml:space="preserve" xmlns:serif="http://www.serif.com/" style="fill-rule:evenodd;clip-rule:evenodd;stroke-linejoin:round;stroke-miterlimit:1.41421;"><path d="M19.486,68.022c35.1,-61.887 113.84,-83.635 175.728,-48.536c61.887,35.1 83.635,113.84 48.536,175.728c-35.1,61.887 -113.841,83.635 -175.728,48.536c-61.887,-35.1 -83.635,-113.841 -48.536,-175.728Z" style="fill:#fff;"/><path d="M132.159,1.205l0.395,0.001l0.394,0.003l0.788,0.01l0.394,0.006l0.394,0.008l0.395,0.009l0.394,0.01l0.394,0.011l0.395,0.013l0.394,0.014l0.395,0.015l0.395,0.016l0.394,0.017l0.395,0.019l0.394,0.019l0.395,0.021l0.395,0.022l0.394,0.024l0.395,0.024l0.395,0.026l0.394,0.027l0.395,0.028l0.395,0.029l0.394,0.031l0.395,0.032l0.395,0.033l0.394,0.034l0.395,0.035l0.395,0.037l0.394,0.038l0.395,0.039l0.394,0.04l0.79,0.084l0.394,0.044l0.394,0.045l0.395,0.047l0.394,0.047l0.394,0.049l0.395,0.05l0.788,0.104l0.394,0.054l0.394,0.055l0.394,0.056l0.394,0.057l0.394,0.059l0.394,0.06l0.393,0.061l0.394,0.062l0.393,0.064l0.394,0.064l0.393,0.066l0.394,0.068l0.393,0.068l0.393,0.07l0.393,0.071l0.393,0.072l0.393,0.073l0.392,0.075l0.393,0.076l0.392,0.077l0.393,0.078l0.392,0.08l0.392,0.081l0.392,0.082l0.392,0.083l0.784,0.17l0.391,0.087l0.392,0.089l0.391,0.089l0.391,0.091l0.391,0.092l0.391,0.093l0.391,0.095l0.39,0.096l0.391,0.097l0.39,0.098l0.39,0.099l0.39,0.101l0.39,0.102l0.389,0.104l0.39,0.104l0.389,0.106l0.389,0.107l0.389,0.108l0.389,0.11l0.388,0.111l0.389,0.112l0.388,0.113l0.388,0.115l0.387,0.116l0.388,0.117l0.387,0.118l0.388,0.12l0.387,0.121l0.386,0.122l0.387,0.124l0.386,0.124l0.386,0.126l0.772,0.256l0.385,0.13l0.386,0.131l0.385,0.132l0.384,0.134l0.385,0.135l0.384,0.136l0.384,0.137l0.384,0.139l0.384,0.14l0.383,0.141l0.383,0.143l0.383,0.144l0.383,0.145l0.382,0.146l0.382,0.148l0.382,0.149l0.381,0.15l0.762,0.304l0.762,0.31l0.38,0.157l0.379,0.158l0.38,0.159l0.379,0.16l0.379,0.162l0.379,0.163l0.756,0.33l0.378,0.167l0.377,0.168l0.378,0.17l0.377,0.171l0.376,0.172l0.376,0.173l0.376,0.175l0.376,0.176l0.375,0.177l0.375,0.179l0.374,0.18l0.375,0.181l0.373,0.183l0.374,0.184l0.373,0.185l0.373,0.186l0.373,0.188l0.372,0.189l0.372,0.19l0.371,0.192l0.371,0.193l0.371,0.194l0.74,0.392l0.37,0.199l0.369,0.199l0.369,0.201l0.368,0.202l0.369,0.203l0.367,0.205l0.368,0.206l0.367,0.207l0.366,0.209l0.73,0.42l0.726,0.424l0.722,0.428l0.36,0.216l0.359,0.216l0.358,0.218l0.357,0.218l0.356,0.22l0.355,0.22l0.354,0.221l0.706,0.446l0.351,0.225l0.35,0.225l0.35,0.226l0.349,0.227l0.694,0.458l0.345,0.23l0.345,0.231l0.344,0.232l0.343,0.233l0.342,0.233l0.341,0.235l0.34,0.236l0.339,0.237l0.338,0.237l0.674,0.478l0.335,0.241l0.334,0.241l0.333,0.242l0.333,0.243l0.331,0.244l0.331,0.245l0.329,0.246l0.329,0.247l0.328,0.247l0.652,0.498l0.325,0.251l0.323,0.251l0.323,0.252l0.322,0.253l0.321,0.254l0.32,0.254l0.319,0.256l0.318,0.257l0.317,0.257l0.316,0.258l0.315,0.259l0.314,0.26l0.313,0.261l0.624,0.524l0.31,0.263l0.618,0.53l0.307,0.266l0.306,0.266l0.61,0.536l0.303,0.269l0.302,0.27l0.302,0.271l0.3,0.272l0.3,0.273l0.298,0.273l0.298,0.274l0.296,0.275l0.296,0.276l0.295,0.276l0.293,0.278l0.292,0.278l0.292,0.279l0.291,0.28l0.289,0.28l0.289,0.282l0.288,0.282l0.572,0.566l0.568,0.57l0.283,0.286l0.562,0.574l0.28,0.289l0.278,0.289l0.278,0.29l0.277,0.29l0.55,0.584l0.274,0.293l0.272,0.293l0.272,0.295l0.271,0.295l0.538,0.592l0.268,0.297l0.266,0.298l0.266,0.299l0.528,0.6l0.263,0.301l0.261,0.301l0.261,0.303l0.518,0.606l0.514,0.61l0.51,0.612l0.506,0.616l0.251,0.308l0.251,0.309l0.249,0.311l0.248,0.31l0.248,0.311l0.246,0.312l0.245,0.313l0.245,0.314l0.243,0.313l0.242,0.315l0.241,0.316l0.24,0.316l0.239,0.316l0.239,0.317l0.237,0.318l0.236,0.319l0.235,0.319l0.234,0.32l0.233,0.321l0.232,0.321l0.46,0.644l0.229,0.323l0.228,0.324l0.227,0.324l0.45,0.65l0.224,0.327l0.222,0.326l0.222,0.328l0.44,0.656l0.218,0.329l0.434,0.66l0.215,0.331l0.428,0.664l0.212,0.333l0.211,0.333l0.21,0.334l0.209,0.334l0.208,0.335l0.207,0.336l0.206,0.336l0.408,0.674l0.203,0.338l0.201,0.338l0.201,0.339l0.398,0.68l0.197,0.34l0.197,0.342l0.195,0.341l0.194,0.342l0.193,0.343l0.192,0.343l0.191,0.344l0.19,0.344l0.189,0.345l0.188,0.346l0.187,0.345l0.37,0.694l0.184,0.347l0.182,0.348l0.182,0.349l0.18,0.348l0.358,0.7l0.177,0.35l0.176,0.351l0.175,0.352l0.174,0.351l0.173,0.353l0.342,0.706l0.17,0.354l0.168,0.354l0.168,0.355l0.166,0.355l0.165,0.355l0.165,0.357l0.163,0.356l0.162,0.357l0.161,0.358l0.159,0.357l0.159,0.359l0.158,0.359l0.157,0.359l0.31,0.72l0.153,0.36l0.152,0.361l0.151,0.362l0.151,0.361l0.149,0.363l0.148,0.363l0.292,0.726l0.145,0.364l0.143,0.364l0.143,0.365l0.141,0.365l0.14,0.366l0.139,0.366l0.138,0.366l0.137,0.367l0.136,0.367l0.135,0.367l0.134,0.368l0.132,0.369l0.131,0.368l0.131,0.369l0.129,0.37l0.128,0.369l0.127,0.371l0.126,0.37l0.125,0.371l0.124,0.371l0.122,0.372l0.242,0.744l0.119,0.373l0.118,0.373l0.117,0.373l0.116,0.373l0.115,0.374l0.114,0.375l0.112,0.375l0.111,0.374l0.111,0.376l0.109,0.375l0.108,0.376l0.107,0.377l0.106,0.376l0.105,0.377l0.103,0.378l0.103,0.377l0.101,0.378l0.1,0.378l0.099,0.378l0.098,0.379l0.097,0.379l0.096,0.379l0.188,0.76l0.092,0.38l0.091,0.38l0.09,0.381l0.089,0.381l0.088,0.381l0.087,0.382l0.085,0.382l0.168,0.764l0.082,0.383l0.081,0.383l0.08,0.383l0.156,0.766l0.076,0.385l0.076,0.384l0.074,0.384l0.073,0.385l0.072,0.384l0.07,0.385l0.07,0.386l0.068,0.385l0.067,0.386l0.132,0.772l0.063,0.386l0.063,0.387l0.061,0.386l0.061,0.387l0.059,0.388l0.058,0.387l0.057,0.388l0.056,0.387l0.054,0.388l0.054,0.389l0.052,0.388l0.051,0.388l0.05,0.389l0.049,0.389l0.048,0.389l0.046,0.389l0.045,0.39l0.045,0.389l0.043,0.39l0.082,0.78l0.04,0.39l0.038,0.391l0.037,0.39l0.036,0.391l0.035,0.391l0.034,0.391l0.032,0.391l0.031,0.391l0.031,0.392l0.029,0.391l0.054,0.784l0.025,0.391l0.025,0.392l0.023,0.393l0.022,0.392l0.021,0.392l0.019,0.393l0.019,0.392l0.017,0.393l0.016,0.393l0.015,0.393l0.026,0.786l0.011,0.393l0.01,0.394l0.009,0.393l0.008,0.393l0.007,0.394l0.005,0.393l0.004,0.394l0.003,0.394l0.002,0.393l0.001,0.394l-0.001,0.395l-0.002,0.394l-0.003,0.394l-0.004,0.394l-0.005,0.394l-0.007,0.394l-0.007,0.394l-0.009,0.395l-0.01,0.394l-0.012,0.395l-0.012,0.394l-0.014,0.394l-0.015,0.395l-0.016,0.394l-0.017,0.395l-0.019,0.395l-0.019,0.395l-0.021,0.394l-0.022,0.394l-0.024,0.395l-0.024,0.395l-0.026,0.395l-0.027,0.394l-0.028,0.395l-0.029,0.395l-0.031,0.394l-0.032,0.395l-0.033,0.395l-0.034,0.394l-0.035,0.395l-0.037,0.394l-0.038,0.395l-0.039,0.395l-0.04,0.394l-0.042,0.395l-0.043,0.395l-0.044,0.394l-0.045,0.394l-0.046,0.395l-0.048,0.394l-0.048,0.394l-0.05,0.394l-0.052,0.395l-0.052,0.394l-0.054,0.394l-0.055,0.394l-0.056,0.394l-0.057,0.394l-0.059,0.394l-0.06,0.394l-0.061,0.393l-0.062,0.394l-0.064,0.394l-0.064,0.393l-0.066,0.393l-0.068,0.394l-0.068,0.393l-0.07,0.393l-0.071,0.393l-0.072,0.393l-0.073,0.393l-0.075,0.392l-0.076,0.393l-0.077,0.393l-0.078,0.392l-0.08,0.392l-0.081,0.392l-0.082,0.392l-0.083,0.392l-0.085,0.392l-0.085,0.392l-0.088,0.391l-0.088,0.391l-0.089,0.392l-0.091,0.391l-0.092,0.391l-0.093,0.391l-0.095,0.391l-0.096,0.39l-0.097,0.39l-0.098,0.391l-0.1,0.39l-0.1,0.39l-0.103,0.39l-0.103,0.389l-0.104,0.39l-0.106,0.389l-0.107,0.389l-0.108,0.389l-0.11,0.389l-0.111,0.388l-0.112,0.388l-0.113,0.389l-0.115,0.388l-0.116,0.388l-0.117,0.387l-0.118,0.387l-0.12,0.387l-0.121,0.388l-0.122,0.386l-0.124,0.387l-0.124,0.386l-0.126,0.386l-0.128,0.386l-0.128,0.386l-0.13,0.385l-0.131,0.386l-0.132,0.385l-0.134,0.384l-0.135,0.385l-0.136,0.384l-0.138,0.384l-0.138,0.384l-0.14,0.384l-0.142,0.383l-0.142,0.383l-0.144,0.383l-0.145,0.383l-0.147,0.382l-0.147,0.382l-0.149,0.381l-0.15,0.382l-0.152,0.382l-0.153,0.38l-0.154,0.381l-0.155,0.38l-0.157,0.381l-0.158,0.379l-0.159,0.38l-0.16,0.379l-0.162,0.379l-0.163,0.379l-0.165,0.378l-0.165,0.378l-0.167,0.378l-0.169,0.378l-0.169,0.377l-0.171,0.376l-0.172,0.377l-0.174,0.376l-0.174,0.376l-0.176,0.376l-0.178,0.375l-0.178,0.375l-0.18,0.374l-0.181,0.375l-0.183,0.373l-0.184,0.374l-0.185,0.373l-0.186,0.373l-0.188,0.373l-0.189,0.372l-0.19,0.372l-0.192,0.371l-0.193,0.371l-0.194,0.371l-0.196,0.37l-0.197,0.37l-0.198,0.37l-0.199,0.369l-0.201,0.369l-0.202,0.369l-0.203,0.368l-0.205,0.367l-0.206,0.368l-0.208,0.367l-0.208,0.366l-0.21,0.365l-0.21,0.365l-0.212,0.363l-0.212,0.363l-0.214,0.361l-0.214,0.361l-0.216,0.36l-0.216,0.359l-0.218,0.358l-0.218,0.357l-0.22,0.356l-0.22,0.355l-0.222,0.354l-0.222,0.353l-0.223,0.353l-0.225,0.351l-0.225,0.351l-0.226,0.349l-0.227,0.348l-0.229,0.348l-0.229,0.347l-0.23,0.345l-0.231,0.345l-0.232,0.344l-0.233,0.343l-0.234,0.342l-0.234,0.341l-0.236,0.34l-0.237,0.339l-0.237,0.338l-0.239,0.337l-0.239,0.337l-0.241,0.335l-0.241,0.334l-0.242,0.333l-0.243,0.333l-0.244,0.331l-0.245,0.331l-0.246,0.329l-0.247,0.329l-0.247,0.328l-0.249,0.326l-0.249,0.326l-0.251,0.325l-0.251,0.324l-0.252,0.322l-0.253,0.322l-0.254,0.321l-0.255,0.32l-0.255,0.319l-0.257,0.318l-0.257,0.317l-0.258,0.316l-0.259,0.315l-0.26,0.314l-0.261,0.313l-0.262,0.312l-0.262,0.312l-0.264,0.31l-0.264,0.309l-0.265,0.308l-0.266,0.308l-0.266,0.306l-0.268,0.305l-0.268,0.305l-0.27,0.303l-0.27,0.303l-0.271,0.301l-0.271,0.3l-0.273,0.3l-0.273,0.298l-0.274,0.298l-0.275,0.296l-0.276,0.296l-0.276,0.294l-0.278,0.294l-0.278,0.293l-0.279,0.291l-0.28,0.291l-0.28,0.289l-0.282,0.289l-0.282,0.287l-0.283,0.287l-0.284,0.286l-0.284,0.284l-0.285,0.284l-0.286,0.283l-0.287,0.281l-0.288,0.281l-0.288,0.28l-0.289,0.278l-0.29,0.278l-0.29,0.277l-0.292,0.275l-0.292,0.275l-0.293,0.274l-0.293,0.272l-0.295,0.272l-0.295,0.271l-0.296,0.269l-0.296,0.269l-0.297,0.268l-0.299,0.266l-0.298,0.266l-0.3,0.264l-0.3,0.264l-0.301,0.263l-0.302,0.261l-0.302,0.261l-0.303,0.259l-0.304,0.259l-0.304,0.257l-0.305,0.257l-0.306,0.255l-0.306,0.255l-0.308,0.253l-0.308,0.253l-0.308,0.251l-0.31,0.251l-0.309,0.249l-0.311,0.248l-0.312,0.248l-0.312,0.246l-0.312,0.245l-0.314,0.245l-0.314,0.243l-0.314,0.242l-0.316,0.241l-0.316,0.24l-0.316,0.239l-0.318,0.239l-0.317,0.237l-0.319,0.236l-0.319,0.235l-0.32,0.234l-0.321,0.233l-0.321,0.232l-0.322,0.23l-0.322,0.23l-0.323,0.229l-0.324,0.228l-0.324,0.227l-0.325,0.225l-0.325,0.225l-0.327,0.224l-0.326,0.222l-0.328,0.222l-0.328,0.22l-0.328,0.22l-0.329,0.218l-0.33,0.217l-0.331,0.217l-0.331,0.215l-0.331,0.214l-0.332,0.213l-0.333,0.213l-0.333,0.211l-0.334,0.21l-0.334,0.209l-0.335,0.208l-0.336,0.207l-0.336,0.205l-0.337,0.205l-0.337,0.204l-0.338,0.203l-0.338,0.201l-0.339,0.201l-0.34,0.199l-0.34,0.199l-0.34,0.197l-0.341,0.197l-0.342,0.195l-0.342,0.194l-0.343,0.193l-0.343,0.192l-0.344,0.191l-0.345,0.19l-0.344,0.189l-0.346,0.188l-0.346,0.187l-0.346,0.186l-0.347,0.184l-0.347,0.184l-0.348,0.182l-0.349,0.182l-0.348,0.18l-0.35,0.179l-0.35,0.179l-0.35,0.177l-0.351,0.176l-0.351,0.175l-0.353,0.174l-0.352,0.172l-0.353,0.172l-0.353,0.171l-0.354,0.17l-0.354,0.168l-0.355,0.168l-0.355,0.166l-0.356,0.165l-0.356,0.165l-0.356,0.163l-0.357,0.162l-0.358,0.161l-0.358,0.16l-0.358,0.158l-0.359,0.158l-0.359,0.157l-0.36,0.155l-0.36,0.155l-0.361,0.153l-0.361,0.152l-0.361,0.151l-0.362,0.151l-0.362,0.149l-0.363,0.147l-0.363,0.147l-0.363,0.146l-0.364,0.145l-0.364,0.143l-0.365,0.143l-0.365,0.141l-0.366,0.14l-0.366,0.139l-0.366,0.138l-0.367,0.137l-0.367,0.136l-0.368,0.135l-0.367,0.133l-0.369,0.133l-0.368,0.131l-0.37,0.131l-0.369,0.129l-0.37,0.128l-0.37,0.127l-0.37,0.126l-0.371,0.125l-0.371,0.123l-0.372,0.123l-0.372,0.121l-0.372,0.121l-0.373,0.119l-0.373,0.118l-0.373,0.117l-0.374,0.116l-0.374,0.115l-0.374,0.114l-0.375,0.112l-0.375,0.112l-0.375,0.11l-0.376,0.109l-0.376,0.108l-0.376,0.107l-0.376,0.106l-0.377,0.105l-0.378,0.103l-0.377,0.103l-0.378,0.101l-0.378,0.1l-0.379,0.099l-0.378,0.098l-0.379,0.097l-0.38,0.096l-0.379,0.094l-0.38,0.094l-0.38,0.092l-0.381,0.091l-0.38,0.09l-0.381,0.089l-0.382,0.088l-0.381,0.087l-0.382,0.085l-0.382,0.085l-0.382,0.083l-0.383,0.082l-0.383,0.081l-0.383,0.08l-0.383,0.078l-0.384,0.078l-0.384,0.076l-0.384,0.076l-0.384,0.074l-0.385,0.073l-0.385,0.072l-0.385,0.07l-0.385,0.07l-0.385,0.068l-0.386,0.067l-0.386,0.067l-0.386,0.065l-0.386,0.063l-0.387,0.063l-0.387,0.062l-0.387,0.06l-0.387,0.059l-0.387,0.058l-0.388,0.057l-0.388,0.056l-0.387,0.054l-0.389,0.054l-0.388,0.052l-0.389,0.051l-0.388,0.05l-0.389,0.049l-0.389,0.048l-0.39,0.046l-0.389,0.045l-0.389,0.045l-0.39,0.043l-0.39,0.041l-0.39,0.041l-0.39,0.04l-0.391,0.038l-0.39,0.037l-0.391,0.036l-0.391,0.035l-0.391,0.034l-0.391,0.032l-0.391,0.031l-0.392,0.031l-0.391,0.029l-0.392,0.027l-0.392,0.027l-0.392,0.026l-0.392,0.024l-0.392,0.023l-0.392,0.022l-0.392,0.021l-0.393,0.019l-0.393,0.019l-0.392,0.017l-0.393,0.016l-0.393,0.015l-0.393,0.013l-0.393,0.013l-0.393,0.011l-0.393,0.01l-0.394,0.009l-0.393,0.008l-0.394,0.007l-0.393,0.005l-0.394,0.004l-0.394,0.003l-0.394,0.002l-0.394,0.001l-0.393,-0.001l-0.395,-0.002l-0.394,-0.003l-0.394,-0.004l-0.394,-0.005l-0.394,-0.007l-0.395,-0.007l-0.394,-0.009l-0.394,-0.01l-0.395,-0.012l-0.394,-0.012l-0.395,-0.014l-0.394,-0.015l-0.395,-0.016l-0.394,-0.017l-0.395,-0.019l-0.394,-0.019l-0.395,-0.021l-0.395,-0.022l-0.394,-0.024l-0.395,-0.024l-0.395,-0.026l-0.394,-0.027l-0.395,-0.028l-0.395,-0.029l-0.395,-0.031l-0.394,-0.032l-0.395,-0.033l-0.395,-0.034l-0.394,-0.035l-0.395,-0.037l-0.394,-0.038l-0.395,-0.039l-0.395,-0.04l-0.394,-0.042l-0.395,-0.042l-0.394,-0.044l-0.394,-0.046l-0.395,-0.046l-0.394,-0.048l-0.394,-0.048l-0.395,-0.05l-0.394,-0.052l-0.394,-0.052l-0.394,-0.054l-0.394,-0.055l-0.394,-0.056l-0.394,-0.057l-0.394,-0.059l-0.394,-0.06l-0.393,-0.061l-0.394,-0.062l-0.394,-0.064l-0.393,-0.064l-0.394,-0.066l-0.393,-0.068l-0.393,-0.068l-0.393,-0.07l-0.393,-0.071l-0.393,-0.072l-0.393,-0.073l-0.393,-0.075l-0.392,-0.076l-0.393,-0.077l-0.392,-0.078l-0.392,-0.08l-0.392,-0.081l-0.392,-0.082l-0.392,-0.083l-0.392,-0.085l-0.392,-0.085l-0.392,-0.088l-0.391,-0.088l-0.391,-0.089l-0.391,-0.091l-0.391,-0.092l-0.391,-0.093l-0.391,-0.095l-0.39,-0.096l-0.391,-0.097l-0.39,-0.098l-0.39,-0.1l-0.39,-0.1l-0.39,-0.102l-0.389,-0.104l-0.39,-0.104l-0.389,-0.106l-0.389,-0.107l-0.389,-0.109l-0.389,-0.109l-0.388,-0.111l-0.389,-0.112l-0.388,-0.113l-0.388,-0.115l-0.387,-0.116l-0.388,-0.117l-0.388,-0.118l-0.387,-0.12l-0.387,-0.121l-0.386,-0.122l-0.387,-0.124l-0.386,-0.124l-0.386,-0.126l-0.386,-0.128l-0.386,-0.128l-0.386,-0.13l-0.385,-0.131l-0.385,-0.132l-0.385,-0.134l-0.384,-0.135l-0.384,-0.136l-0.384,-0.138l-0.384,-0.138l-0.384,-0.14l-0.383,-0.142l-0.383,-0.142l-0.383,-0.144l-0.383,-0.145l-0.382,-0.146l-0.382,-0.148l-0.382,-0.149l-0.381,-0.15l-0.382,-0.152l-0.38,-0.153l-0.381,-0.154l-0.381,-0.155l-0.38,-0.157l-0.38,-0.158l-0.379,-0.159l-0.379,-0.16l-0.379,-0.162l-0.379,-0.163l-0.378,-0.165l-0.378,-0.165l-0.378,-0.167l-0.378,-0.169l-0.377,-0.169l-0.377,-0.171l-0.376,-0.172l-0.376,-0.174l-0.376,-0.174l-0.376,-0.176l-0.375,-0.178l-0.375,-0.178l-0.375,-0.18l-0.374,-0.181l-0.374,-0.183l-0.373,-0.184l-0.373,-0.185l-0.373,-0.186l-0.373,-0.188l-0.372,-0.189l-0.372,-0.19l-0.371,-0.192l-0.371,-0.193l-0.371,-0.194l-0.37,-0.196l-0.37,-0.196l-0.37,-0.199l-0.369,-0.199l-0.369,-0.201l-0.369,-0.202l-0.368,-0.203l-0.368,-0.205l-0.367,-0.206l-0.367,-0.208l-0.366,-0.208l-0.365,-0.21l-0.365,-0.21l-0.364,-0.212l-0.362,-0.212l-0.362,-0.214l-0.36,-0.214l-0.36,-0.216l-0.359,-0.216l-0.358,-0.218l-0.357,-0.218l-0.356,-0.22l-0.355,-0.22l-0.354,-0.222l-0.354,-0.222l-0.352,-0.223l-0.351,-0.225l-0.351,-0.225l-0.349,-0.226l-0.349,-0.227l-0.347,-0.229l-0.347,-0.229l-0.346,-0.23l-0.344,-0.231l-0.344,-0.232l-0.343,-0.233l-0.342,-0.234l-0.341,-0.234l-0.34,-0.236l-0.339,-0.237l-0.338,-0.237l-0.337,-0.239l-0.337,-0.239l-0.335,-0.241l-0.334,-0.241l-0.334,-0.242l-0.332,-0.243l-0.331,-0.244l-0.331,-0.245l-0.33,-0.246l-0.328,-0.247l-0.328,-0.247l-0.326,-0.249l-0.326,-0.25l-0.325,-0.25l-0.324,-0.251l-0.322,-0.252l-0.322,-0.253l-0.321,-0.254l-0.32,-0.255l-0.319,-0.255l-0.318,-0.257l-0.317,-0.257l-0.316,-0.258l-0.315,-0.259l-0.314,-0.26l-0.313,-0.261l-0.313,-0.262l-0.311,-0.262l-0.31,-0.264l-0.309,-0.264l-0.309,-0.265l-0.307,-0.266l-0.306,-0.266l-0.306,-0.268l-0.304,-0.268l-0.303,-0.27l-0.303,-0.27l-0.301,-0.271l-0.3,-0.271l-0.3,-0.273l-0.298,-0.273l-0.298,-0.274l-0.297,-0.275l-0.295,-0.276l-0.295,-0.277l-0.293,-0.277l-0.293,-0.278l-0.291,-0.279l-0.291,-0.28l-0.289,-0.28l-0.289,-0.282l-0.288,-0.282l-0.286,-0.283l-0.286,-0.283l-0.285,-0.285l-0.283,-0.285l-0.283,-0.286l-0.282,-0.287l-0.28,-0.288l-0.28,-0.288l-0.279,-0.289l-0.277,-0.29l-0.277,-0.29l-0.275,-0.292l-0.275,-0.292l-0.274,-0.293l-0.273,-0.293l-0.271,-0.295l-0.271,-0.295l-0.269,-0.296l-0.269,-0.296l-0.268,-0.297l-0.266,-0.299l-0.266,-0.298l-0.265,-0.3l-0.263,-0.3l-0.263,-0.301l-0.261,-0.301l-0.261,-0.303l-0.259,-0.303l-0.259,-0.304l-0.257,-0.304l-0.257,-0.305l-0.256,-0.306l-0.254,-0.307l-0.253,-0.307l-0.253,-0.308l-0.251,-0.308l-0.251,-0.31l-0.249,-0.309l-0.249,-0.311l-0.247,-0.312l-0.246,-0.312l-0.245,-0.312l-0.245,-0.314l-0.243,-0.314l-0.242,-0.314l-0.241,-0.316l-0.24,-0.316l-0.24,-0.316l-0.238,-0.318l-0.237,-0.318l-0.236,-0.318l-0.235,-0.319l-0.234,-0.32l-0.233,-0.321l-0.232,-0.321l-0.231,-0.322l-0.229,-0.322l-0.229,-0.323l-0.228,-0.324l-0.227,-0.324l-0.225,-0.325l-0.225,-0.326l-0.224,-0.326l-0.222,-0.326l-0.222,-0.328l-0.22,-0.328l-0.22,-0.328l-0.218,-0.329l-0.218,-0.33l-0.216,-0.331l-0.215,-0.331l-0.214,-0.331l-0.214,-0.332l-0.212,-0.333l-0.211,-0.333l-0.21,-0.334l-0.209,-0.335l-0.208,-0.334l-0.207,-0.336l-0.206,-0.336l-0.204,-0.337l-0.204,-0.337l-0.203,-0.338l-0.201,-0.338l-0.201,-0.339l-0.2,-0.34l-0.198,-0.34l-0.197,-0.34l-0.197,-0.342l-0.195,-0.341l-0.194,-0.342l-0.193,-0.343l-0.192,-0.343l-0.191,-0.344l-0.19,-0.344l-0.189,-0.345l-0.188,-0.346l-0.187,-0.346l-0.186,-0.346l-0.184,-0.347l-0.184,-0.347l-0.182,-0.348l-0.182,-0.349l-0.18,-0.349l-0.179,-0.349l-0.179,-0.35l-0.177,-0.35l-0.176,-0.351l-0.175,-0.352l-0.174,-0.351l-0.173,-0.353l-0.171,-0.353l-0.171,-0.353l-0.17,-0.354l-0.168,-0.354l-0.168,-0.355l-0.166,-0.355l-0.165,-0.356l-0.165,-0.356l-0.163,-0.356l-0.162,-0.357l-0.161,-0.358l-0.16,-0.358l-0.158,-0.358l-0.158,-0.359l-0.157,-0.359l-0.155,-0.36l-0.155,-0.36l-0.153,-0.36l-0.152,-0.361l-0.152,-0.362l-0.15,-0.362l-0.149,-0.362l-0.148,-0.363l-0.146,-0.363l-0.146,-0.363l-0.145,-0.364l-0.143,-0.365l-0.143,-0.364l-0.141,-0.365l-0.14,-0.366l-0.139,-0.366l-0.139,-0.366l-0.136,-0.367l-0.136,-0.367l-0.135,-0.368l-0.134,-0.367l-0.132,-0.369l-0.132,-0.369l-0.13,-0.368l-0.129,-0.37l-0.128,-0.369l-0.127,-0.371l-0.126,-0.37l-0.125,-0.371l-0.124,-0.371l-0.122,-0.372l-0.122,-0.372l-0.12,-0.372l-0.119,-0.373l-0.118,-0.373l-0.117,-0.373l-0.116,-0.374l-0.115,-0.374l-0.114,-0.374l-0.112,-0.375l-0.112,-0.375l-0.11,-0.375l-0.109,-0.376l-0.108,-0.376l-0.107,-0.376l-0.106,-0.376l-0.105,-0.377l-0.103,-0.378l-0.103,-0.377l-0.101,-0.378l-0.1,-0.378l-0.099,-0.378l-0.098,-0.379l-0.097,-0.379l-0.096,-0.38l-0.094,-0.379l-0.094,-0.38l-0.092,-0.38l-0.091,-0.381l-0.09,-0.38l-0.089,-0.381l-0.088,-0.382l-0.087,-0.381l-0.085,-0.382l-0.085,-0.382l-0.083,-0.382l-0.082,-0.383l-0.081,-0.383l-0.08,-0.383l-0.079,-0.383l-0.077,-0.384l-0.076,-0.384l-0.076,-0.384l-0.074,-0.384l-0.073,-0.385l-0.072,-0.384l-0.07,-0.385l-0.07,-0.386l-0.068,-0.385l-0.068,-0.386l-0.066,-0.386l-0.065,-0.386l-0.063,-0.386l-0.063,-0.387l-0.062,-0.387l-0.06,-0.387l-0.059,-0.387l-0.058,-0.387l-0.057,-0.388l-0.056,-0.388l-0.055,-0.388l-0.053,-0.388l-0.052,-0.388l-0.051,-0.389l-0.05,-0.388l-0.049,-0.389l-0.048,-0.389l-0.046,-0.389l-0.046,-0.39l-0.044,-0.39l-0.043,-0.389l-0.042,-0.39l-0.04,-0.39l-0.04,-0.39l-0.038,-0.391l-0.037,-0.39l-0.036,-0.391l-0.035,-0.391l-0.034,-0.391l-0.032,-0.391l-0.032,-0.391l-0.03,-0.392l-0.029,-0.391l-0.028,-0.392l-0.026,-0.392l-0.026,-0.392l-0.024,-0.392l-0.023,-0.392l-0.022,-0.392l-0.021,-0.392l-0.019,-0.393l-0.019,-0.393l-0.017,-0.392l-0.016,-0.393l-0.015,-0.393l-0.014,-0.393l-0.012,-0.393l-0.011,-0.393l-0.011,-0.394l-0.008,-0.393l-0.008,-0.393l-0.007,-0.394l-0.005,-0.393l-0.004,-0.394l-0.003,-0.394l-0.002,-0.394l-0.001,-0.394l0.001,-0.394l0.001,-0.394l0.003,-0.394l0.005,-0.394l0.005,-0.394l0.006,-0.394l0.008,-0.394l0.009,-0.395l0.01,-0.394l0.011,-0.395l0.013,-0.394l0.014,-0.395l0.015,-0.394l0.016,-0.395l0.017,-0.394l0.019,-0.395l0.019,-0.394l0.021,-0.395l0.022,-0.395l0.024,-0.394l0.024,-0.395l0.026,-0.395l0.027,-0.395l0.028,-0.394l0.029,-0.395l0.031,-0.395l0.032,-0.394l0.033,-0.395l0.034,-0.395l0.035,-0.394l0.037,-0.395l0.038,-0.395l0.039,-0.394l0.04,-0.394l0.042,-0.395l0.042,-0.395l0.044,-0.394l0.045,-0.394l0.047,-0.395l0.047,-0.394l0.049,-0.394l0.05,-0.395l0.052,-0.394l0.052,-0.394l0.054,-0.394l0.055,-0.394l0.056,-0.394l0.057,-0.394l0.059,-0.394l0.06,-0.394l0.061,-0.393l0.062,-0.394l0.064,-0.394l0.064,-0.393l0.066,-0.393l0.068,-0.394l0.068,-0.393l0.07,-0.393l0.071,-0.393l0.072,-0.393l0.073,-0.393l0.075,-0.393l0.076,-0.392l0.077,-0.393l0.078,-0.392l0.08,-0.392l0.081,-0.392l0.082,-0.393l0.083,-0.391l0.085,-0.392l0.085,-0.392l0.087,-0.391l0.089,-0.392l0.089,-0.391l0.091,-0.391l0.092,-0.391l0.093,-0.391l0.095,-0.391l0.096,-0.39l0.097,-0.391l0.098,-0.39l0.1,-0.39l0.1,-0.39l0.102,-0.39l0.104,-0.389l0.104,-0.39l0.106,-0.389l0.107,-0.389l0.108,-0.389l0.11,-0.389l0.111,-0.388l0.112,-0.389l0.113,-0.388l0.115,-0.388l0.116,-0.388l0.117,-0.387l0.118,-0.388l0.12,-0.387l0.121,-0.387l0.122,-0.386l0.124,-0.387l0.124,-0.386l0.126,-0.387l0.128,-0.385l0.128,-0.386l0.13,-0.386l0.131,-0.385l0.132,-0.385l0.134,-0.385l0.135,-0.384l0.136,-0.384l0.138,-0.384l0.138,-0.384l0.14,-0.384l0.142,-0.383l0.142,-0.383l0.144,-0.383l0.145,-0.383l0.146,-0.382l0.148,-0.382l0.149,-0.382l0.15,-0.381l0.152,-0.382l0.153,-0.381l0.154,-0.38l0.155,-0.381l0.157,-0.38l0.157,-0.379l0.16,-0.38l0.16,-0.379l0.162,-0.379l0.163,-0.379l0.165,-0.378l0.165,-0.378l0.167,-0.378l0.168,-0.378l0.17,-0.377l0.171,-0.377l0.172,-0.376l0.173,-0.376l0.175,-0.376l0.176,-0.376l0.177,-0.375l0.179,-0.375l0.18,-0.374l0.181,-0.375l0.183,-0.374l0.184,-0.373l0.185,-0.373l0.186,-0.373l0.188,-0.373l0.189,-0.372l0.19,-0.372l0.192,-0.371l0.193,-0.371l0.194,-0.371l0.195,-0.37l0.197,-0.37l0.199,-0.37l0.199,-0.369l0.201,-0.369l0.202,-0.369l0.203,-0.368l0.205,-0.367l0.206,-0.368l0.207,-0.367l0.209,-0.366l0.21,-0.366l0.21,-0.364l0.211,-0.363l0.213,-0.363l0.214,-0.362l0.214,-0.36l0.216,-0.36l0.216,-0.359l0.218,-0.358l0.218,-0.357l0.22,-0.356l0.22,-0.355l0.221,-0.354l0.223,-0.353l0.223,-0.353l0.225,-0.351l0.225,-0.351l0.226,-0.349l0.227,-0.349l0.229,-0.347l0.229,-0.347l0.23,-0.346l0.231,-0.344l0.232,-0.344l0.233,-0.343l0.233,-0.342l0.235,-0.341l0.236,-0.34l0.237,-0.339l0.237,-0.338l0.239,-0.337l0.239,-0.337l0.241,-0.335l0.241,-0.334l0.242,-0.334l0.243,-0.332l0.244,-0.332l0.245,-0.33l0.246,-0.329l0.247,-0.329l0.247,-0.328l0.249,-0.326l0.249,-0.326l0.251,-0.325l0.251,-0.324l0.252,-0.322l0.253,-0.322l0.254,-0.321l0.255,-0.32l0.255,-0.319l0.257,-0.318l0.257,-0.317l0.258,-0.316l0.259,-0.315l0.26,-0.314l0.261,-0.313l0.262,-0.313l0.262,-0.311l0.263,-0.31l0.265,-0.309l0.265,-0.309l0.266,-0.307l0.266,-0.306l0.268,-0.305l0.268,-0.305l0.27,-0.303l0.27,-0.303l0.27,-0.301l0.272,-0.3l0.273,-0.3l0.273,-0.299l0.274,-0.297l0.275,-0.296l0.276,-0.296l0.276,-0.294l0.278,-0.294l0.278,-0.293l0.279,-0.291l0.28,-0.291l0.28,-0.289l0.282,-0.289l0.282,-0.288l0.283,-0.286l0.283,-0.286l0.285,-0.285l0.285,-0.283l0.286,-0.283l0.287,-0.282l0.288,-0.28l0.288,-0.28l0.289,-0.279l0.29,-0.277l0.29,-0.277l0.292,-0.275l0.292,-0.275l0.293,-0.274l0.293,-0.272l0.295,-0.272l0.295,-0.271l0.296,-0.269l0.296,-0.269l0.297,-0.268l0.298,-0.266l0.299,-0.266l0.3,-0.265l0.3,-0.263l0.301,-0.263l0.301,-0.261l0.303,-0.261l0.303,-0.259l0.303,-0.259l0.305,-0.258l0.305,-0.256l0.306,-0.256l0.306,-0.254l0.308,-0.253l0.308,-0.253l0.308,-0.251l0.309,-0.251l0.31,-0.249l0.311,-0.248l0.311,-0.248l0.312,-0.246l0.313,-0.245l0.314,-0.245l0.314,-0.243l0.314,-0.242l0.315,-0.241l0.316,-0.24l0.317,-0.24l0.317,-0.238l0.318,-0.237l0.319,-0.236l0.319,-0.235l0.32,-0.234l0.321,-0.233l0.321,-0.232l0.322,-0.231l0.322,-0.229l0.323,-0.229l0.324,-0.228l0.324,-0.227l0.325,-0.225l0.325,-0.225l0.327,-0.224l0.326,-0.222l0.328,-0.222l0.328,-0.22l0.328,-0.22l0.329,-0.218l0.33,-0.218l0.331,-0.216l0.33,-0.215l0.332,-0.214l0.332,-0.214l0.333,-0.212l0.333,-0.211l0.334,-0.21l0.334,-0.209l0.335,-0.208l0.336,-0.207l0.336,-0.206l0.337,-0.204l0.337,-0.204l0.338,-0.203l0.338,-0.201l0.339,-0.201l0.34,-0.199l0.34,-0.199l0.34,-0.197l0.341,-0.197l0.342,-0.195l0.342,-0.194l0.343,-0.193l0.343,-0.192l0.344,-0.191l0.344,-0.19l0.345,-0.189l0.346,-0.188l0.345,-0.187l0.347,-0.186l0.347,-0.184l0.347,-0.184l0.348,-0.182l0.348,-0.182l0.349,-0.18l0.35,-0.179l0.35,-0.179l0.35,-0.177l0.351,-0.176l0.351,-0.175l0.352,-0.174l0.353,-0.173l0.352,-0.171l0.354,-0.171l0.354,-0.17l0.354,-0.168l0.355,-0.168l0.355,-0.166l0.355,-0.165l0.356,-0.165l0.357,-0.163l0.357,-0.162l0.358,-0.161l0.358,-0.16l0.358,-0.158l0.359,-0.158l0.359,-0.157l0.36,-0.155l0.36,-0.155l0.36,-0.153l0.361,-0.152l0.362,-0.152l0.362,-0.15l0.362,-0.149l0.363,-0.148l0.363,-0.146l0.363,-0.146l0.364,-0.145l0.364,-0.143l0.365,-0.143l0.365,-0.141l0.366,-0.14l0.366,-0.139l0.366,-0.138l0.367,-0.137l0.367,-0.136l0.367,-0.135l0.368,-0.134l0.369,-0.132l0.368,-0.132l0.369,-0.13l0.37,-0.129l0.37,-0.128l0.37,-0.127l0.37,-0.126l0.371,-0.125l0.371,-0.124l0.372,-0.122l0.372,-0.122l0.372,-0.12l0.373,-0.119l0.373,-0.118l0.373,-0.117l0.374,-0.116l0.373,-0.115l0.375,-0.114l0.375,-0.112l0.374,-0.112l0.376,-0.11l0.375,-0.109l0.377,-0.108l0.376,-0.107l0.376,-0.106l0.377,-0.105l0.377,-0.103l0.378,-0.103l0.378,-0.101l0.378,-0.1l0.378,-0.099l0.379,-0.098l0.379,-0.097l0.379,-0.096l0.38,-0.094l0.38,-0.094l0.38,-0.092l0.38,-0.091l0.381,-0.09l0.381,-0.089l0.381,-0.088l0.382,-0.087l0.382,-0.085l0.382,-0.085l0.382,-0.083l0.383,-0.082l0.383,-0.081l0.383,-0.08l0.383,-0.078l0.384,-0.078l0.384,-0.076l0.384,-0.076l0.384,-0.074l0.384,-0.073l0.385,-0.072l0.385,-0.07l0.386,-0.07l0.385,-0.068l0.386,-0.068l0.386,-0.066l0.386,-0.065l0.386,-0.063l0.387,-0.063l0.386,-0.062l0.388,-0.06l0.387,-0.059l0.387,-0.058l0.388,-0.057l0.387,-0.056l0.388,-0.055l0.388,-0.053l0.389,-0.052l0.388,-0.051l0.389,-0.05l0.389,-0.049l0.389,-0.048l0.389,-0.046l0.39,-0.046l0.389,-0.044l0.39,-0.043l0.39,-0.042l0.39,-0.04l0.39,-0.04l0.391,-0.038l0.39,-0.037l0.391,-0.036l0.391,-0.035l0.391,-0.034l0.391,-0.032l0.391,-0.032l0.392,-0.03l0.391,-0.029l0.392,-0.028l0.392,-0.026l0.391,-0.026l0.392,-0.024l0.393,-0.023l0.392,-0.022l0.392,-0.021l0.393,-0.019l0.392,-0.019l0.393,-0.017l0.393,-0.016l0.393,-0.015l0.393,-0.014l0.393,-0.012l0.393,-0.011l0.393,-0.01l0.394,-0.009l0.393,-0.008l0.394,-0.007l0.393,-0.005l0.394,-0.004l0.394,-0.003l0.394,-0.002l0.393,-0.001l0.394,0.001Zm-0.778,3l-0.385,0.002l-0.384,0.003l-0.385,0.004l-0.385,0.005l-0.384,0.006l-0.385,0.008l-0.384,0.009l-0.384,0.01l-0.384,0.011l-0.384,0.012l-0.384,0.013l-0.384,0.015l-0.384,0.015l-0.384,0.017l-0.383,0.018l-0.384,0.019l-0.383,0.021l-0.383,0.021l-0.384,0.023l-0.383,0.023l-0.382,0.025l-0.383,0.026l-0.383,0.027l-0.382,0.029l-0.383,0.029l-0.382,0.031l-0.382,0.032l-0.382,0.032l-0.382,0.034l-0.382,0.036l-0.381,0.036l-0.382,0.037l-0.381,0.039l-0.381,0.04l-0.381,0.041l-0.381,0.042l-0.381,0.043l-0.38,0.044l-0.381,0.046l-0.38,0.046l-0.38,0.048l-0.38,0.049l-0.379,0.05l-0.38,0.051l-0.379,0.052l-0.379,0.053l-0.379,0.055l-0.379,0.055l-0.378,0.057l-0.379,0.058l-0.378,0.059l-0.378,0.06l-0.377,0.061l-0.378,0.063l-0.377,0.063l-0.377,0.065l-0.377,0.065l-0.377,0.067l-0.376,0.068l-0.376,0.069l-0.377,0.07l-0.375,0.072l-0.376,0.072l-0.375,0.074l-0.375,0.074l-0.375,0.076l-0.375,0.077l-0.374,0.078l-0.374,0.079l-0.374,0.08l-0.373,0.082l-0.374,0.082l-0.373,0.084l-0.373,0.084l-0.372,0.086l-0.373,0.087l-0.372,0.088l-0.371,0.089l-0.372,0.09l-0.371,0.092l-0.371,0.092l-0.371,0.094l-0.37,0.094l-0.37,0.096l-0.37,0.097l-0.369,0.098l-0.37,0.099l-0.369,0.1l-0.368,0.101l-0.368,0.102l-0.368,0.104l-0.368,0.104l-0.368,0.106l-0.367,0.107l-0.366,0.107l-0.367,0.109l-0.366,0.11l-0.366,0.111l-0.365,0.112l-0.365,0.114l-0.365,0.114l-0.364,0.115l-0.365,0.117l-0.363,0.118l-0.364,0.118l-0.363,0.12l-0.363,0.121l-0.362,0.122l-0.362,0.123l-0.362,0.124l-0.361,0.125l-0.361,0.126l-0.36,0.128l-0.361,0.128l-0.36,0.13l-0.359,0.13l-0.359,0.132l-0.359,0.133l-0.358,0.133l-0.358,0.135l-0.358,0.136l-0.357,0.137l-0.357,0.138l-0.356,0.14l-0.356,0.14l-0.356,0.141l-0.355,0.143l-0.355,0.143l-0.354,0.145l-0.354,0.145l-0.354,0.147l-0.353,0.147l-0.353,0.149l-0.352,0.15l-0.352,0.151l-0.351,0.152l-0.351,0.153l-0.351,0.154l-0.35,0.155l-0.35,0.157l-0.349,0.157l-0.349,0.158l-0.348,0.16l-0.348,0.16l-0.348,0.162l-0.347,0.162l-0.346,0.164l-0.346,0.164l-0.346,0.166l-0.345,0.167l-0.345,0.168l-0.344,0.169l-0.344,0.17l-0.343,0.171l-0.343,0.172l-0.343,0.173l-0.342,0.174l-0.341,0.175l-0.341,0.176l-0.34,0.177l-0.34,0.179l-0.34,0.179l-0.339,0.181l-0.338,0.181l-0.338,0.182l-0.337,0.184l-0.337,0.184l-0.337,0.186l-0.336,0.187l-0.335,0.187l-0.335,0.189l-0.334,0.19l-0.334,0.191l-0.333,0.191l-0.333,0.193l-0.332,0.194l-0.332,0.195l-0.331,0.196l-0.331,0.197l-0.33,0.198l-0.329,0.199l-0.329,0.2l-0.329,0.201l-0.327,0.202l-0.328,0.204l-0.326,0.204l-0.326,0.205l-0.326,0.206l-0.325,0.207l-0.325,0.209l-0.324,0.209l-0.323,0.21l-0.323,0.212l-0.322,0.212l-0.321,0.213l-0.321,0.215l-0.321,0.215l-0.319,0.217l-0.32,0.217l-0.318,0.219l-0.318,0.219l-0.318,0.22l-0.316,0.222l-0.317,0.223l-0.315,0.223l-0.315,0.225l-0.315,0.225l-0.313,0.227l-0.313,0.227l-0.313,0.229l-0.312,0.229l-0.311,0.231l-0.311,0.232l-0.31,0.232l-0.309,0.234l-0.308,0.234l-0.309,0.236l-0.307,0.237l-0.307,0.237l-0.306,0.239l-0.305,0.239l-0.305,0.241l-0.304,0.242l-0.304,0.242l-0.302,0.244l-0.303,0.245l-0.301,0.245l-0.301,0.247l-0.3,0.247l-0.299,0.249l-0.299,0.249l-0.298,0.251l-0.298,0.252l-0.296,0.252l-0.296,0.254l-0.296,0.254l-0.294,0.256l-0.294,0.256l-0.293,0.258l-0.293,0.258l-0.292,0.259l-0.291,0.261l-0.29,0.261l-0.29,0.263l-0.289,0.263l-0.288,0.265l-0.288,0.265l-0.286,0.266l-0.287,0.268l-0.285,0.268l-0.284,0.269l-0.284,0.27l-0.283,0.272l-0.283,0.272l-0.281,0.273l-0.281,0.274l-0.28,0.275l-0.28,0.276l-0.278,0.277l-0.278,0.278l-0.278,0.28l-0.276,0.279l-0.275,0.281l-0.275,0.282l-0.274,0.283l-0.274,0.284l-0.272,0.285l-0.272,0.286l-0.271,0.286l-0.27,0.288l-0.269,0.289l-0.269,0.289l-0.268,0.291l-0.267,0.292l-0.266,0.292l-0.265,0.294l-0.265,0.294l-0.264,0.296l-0.263,0.296l-0.262,0.297l-0.261,0.298l-0.261,0.3l-0.26,0.3l-0.258,0.301l-0.259,0.302l-0.257,0.303l-0.256,0.304l-0.256,0.305l-0.255,0.306l-0.254,0.307l-0.253,0.308l-0.252,0.308l-0.251,0.31l-0.251,0.311l-0.249,0.311l-0.249,0.313l-0.248,0.313l-0.247,0.315l-0.247,0.315l-0.245,0.316l-0.245,0.318l-0.243,0.318l-0.243,0.319l-0.242,0.32l-0.241,0.321l-0.24,0.322l-0.24,0.323l-0.238,0.324l-0.238,0.324l-0.236,0.326l-0.236,0.327l-0.235,0.328l-0.234,0.328l-0.233,0.329l-0.232,0.331l-0.231,0.331l-0.231,0.332l-0.229,0.333l-0.228,0.335l-0.228,0.335l-0.227,0.336l-0.225,0.336l-0.225,0.338l-0.224,0.339l-0.223,0.34l-0.222,0.34l-0.221,0.342l-0.22,0.342l-0.22,0.344l-0.218,0.344l-0.217,0.345l-0.217,0.346l-0.215,0.347l-0.215,0.348l-0.213,0.349l-0.213,0.35l-0.211,0.351l-0.211,0.351l-0.209,0.353l-0.209,0.353l-0.208,0.355l-0.207,0.355l-0.205,0.356l-0.205,0.357l-0.204,0.358l-0.203,0.359l-0.201,0.359l-0.2,0.359l-0.199,0.36l-0.198,0.36l-0.196,0.361l-0.195,0.361l-0.193,0.361l-0.193,0.362l-0.191,0.361l-0.19,0.363l-0.188,0.362l-0.188,0.363l-0.186,0.364l-0.184,0.364l-0.184,0.364l-0.182,0.364l-0.181,0.365l-0.179,0.365l-0.179,0.365l-0.177,0.366l-0.176,0.366l-0.174,0.366l-0.173,0.367l-0.172,0.367l-0.171,0.367l-0.17,0.368l-0.168,0.367l-0.167,0.369l-0.165,0.368l-0.165,0.369l-0.163,0.369l-0.162,0.369l-0.16,0.37l-0.16,0.37l-0.158,0.37l-0.157,0.371l-0.155,0.371l-0.154,0.371l-0.154,0.371l-0.151,0.372l-0.151,0.372l-0.149,0.372l-0.148,0.372l-0.147,0.373l-0.145,0.373l-0.145,0.373l-0.143,0.374l-0.141,0.373l-0.141,0.374l-0.139,0.375l-0.138,0.374l-0.137,0.375l-0.136,0.375l-0.134,0.375l-0.133,0.375l-0.132,0.376l-0.13,0.376l-0.129,0.376l-0.128,0.376l-0.127,0.377l-0.126,0.377l-0.124,0.377l-0.123,0.377l-0.122,0.377l-0.121,0.378l-0.119,0.378l-0.118,0.378l-0.117,0.378l-0.116,0.378l-0.114,0.379l-0.113,0.379l-0.112,0.379l-0.111,0.379l-0.11,0.379l-0.108,0.38l-0.107,0.38l-0.106,0.379l-0.104,0.38l-0.104,0.381l-0.102,0.38l-0.101,0.381l-0.099,0.38l-0.099,0.381l-0.097,0.381l-0.096,0.381l-0.095,0.382l-0.093,0.381l-0.093,0.382l-0.091,0.382l-0.09,0.382l-0.088,0.382l-0.088,0.382l-0.086,0.382l-0.085,0.383l-0.084,0.382l-0.083,0.383l-0.081,0.383l-0.08,0.383l-0.079,0.383l-0.078,0.383l-0.076,0.383l-0.076,0.384l-0.074,0.383l-0.073,0.384l-0.071,0.384l-0.071,0.383l-0.069,0.384l-0.068,0.384l-0.067,0.384l-0.066,0.385l-0.064,0.384l-0.064,0.384l-0.062,0.385l-0.06,0.384l-0.06,0.385l-0.058,0.384l-0.058,0.385l-0.056,0.385l-0.055,0.385l-0.053,0.384l-0.053,0.385l-0.051,0.385l-0.05,0.386l-0.049,0.385l-0.048,0.385l-0.046,0.385l-0.046,0.385l-0.044,0.386l-0.043,0.385l-0.041,0.385l-0.041,0.386l-0.039,0.385l-0.038,0.386l-0.037,0.385l-0.036,0.386l-0.035,0.385l-0.033,0.386l-0.032,0.385l-0.031,0.386l-0.03,0.385l-0.029,0.386l-0.027,0.385l-0.027,0.386l-0.025,0.386l-0.024,0.385l-0.023,0.386l-0.021,0.385l-0.021,0.386l-0.019,0.385l-0.018,0.386l-0.017,0.385l-0.016,0.386l-0.014,0.385l-0.014,0.386l-0.012,0.385l-0.011,0.385l-0.01,0.386l-0.009,0.385l-0.007,0.385l-0.006,0.385l-0.006,0.385l-0.004,0.385l-0.003,0.385l-0.001,0.385l-0.001,0.385l0.001,0.385l0.002,0.385l0.003,0.384l0.004,0.385l0.005,0.385l0.006,0.384l0.008,0.385l0.009,0.384l0.01,0.384l0.011,0.384l0.012,0.384l0.013,0.384l0.03,0.768l0.017,0.384l0.018,0.383l0.019,0.384l0.042,0.766l0.023,0.383l0.023,0.384l0.025,0.382l0.026,0.383l0.027,0.383l0.029,0.382l0.029,0.383l0.031,0.382l0.032,0.382l0.033,0.382l0.034,0.382l0.035,0.382l0.036,0.381l0.037,0.382l0.039,0.381l0.04,0.381l0.041,0.381l0.042,0.381l0.043,0.381l0.044,0.38l0.046,0.381l0.046,0.38l0.048,0.38l0.049,0.38l0.05,0.379l0.051,0.38l0.052,0.379l0.053,0.379l0.11,0.758l0.057,0.378l0.058,0.378l0.059,0.379l0.06,0.378l0.061,0.377l0.063,0.378l0.063,0.377l0.13,0.754l0.067,0.377l0.068,0.376l0.069,0.376l0.07,0.376l0.144,0.752l0.148,0.75l0.076,0.375l0.077,0.374l0.078,0.375l0.079,0.374l0.08,0.374l0.082,0.373l0.082,0.374l0.168,0.746l0.086,0.372l0.087,0.372l0.088,0.373l0.089,0.371l0.09,0.372l0.184,0.742l0.094,0.371l0.094,0.37l0.096,0.37l0.097,0.37l0.098,0.369l0.099,0.369l0.1,0.369l0.101,0.369l0.102,0.368l0.208,0.736l0.106,0.367l0.214,0.734l0.109,0.367l0.11,0.366l0.111,0.366l0.112,0.365l0.228,0.73l0.232,0.728l0.236,0.728l0.12,0.363l0.121,0.362l0.122,0.363l0.123,0.362l0.124,0.361l0.125,0.362l0.126,0.361l0.128,0.36l0.128,0.361l0.13,0.359l0.13,0.36l0.132,0.359l0.133,0.359l0.133,0.358l0.135,0.358l0.136,0.358l0.137,0.357l0.138,0.357l0.28,0.712l0.141,0.356l0.286,0.71l0.29,0.708l0.147,0.353l0.147,0.354l0.149,0.352l0.15,0.353l0.151,0.352l0.152,0.351l0.153,0.351l0.154,0.351l0.155,0.35l0.157,0.35l0.157,0.349l0.158,0.349l0.32,0.696l0.162,0.348l0.162,0.347l0.328,0.692l0.166,0.346l0.167,0.345l0.168,0.345l0.169,0.344l0.17,0.344l0.171,0.343l0.172,0.343l0.173,0.343l0.174,0.341l0.175,0.342l0.176,0.341l0.177,0.34l0.358,0.68l0.18,0.338l0.182,0.339l0.182,0.338l0.184,0.337l0.37,0.674l0.187,0.335l0.187,0.336l0.189,0.335l0.19,0.334l0.191,0.334l0.191,0.333l0.193,0.333l0.194,0.332l0.195,0.332l0.196,0.331l0.197,0.33l0.198,0.331l0.199,0.329l0.2,0.329l0.201,0.328l0.202,0.328l0.204,0.328l0.204,0.326l0.205,0.326l0.206,0.326l0.207,0.325l0.209,0.325l0.209,0.323l0.21,0.324l0.212,0.322l0.212,0.323l0.213,0.321l0.43,0.642l0.217,0.319l0.217,0.32l0.218,0.318l0.22,0.318l0.221,0.318l0.221,0.316l0.222,0.317l0.224,0.315l0.225,0.315l0.225,0.314l0.227,0.314l0.227,0.313l0.229,0.313l0.229,0.312l0.231,0.311l0.464,0.62l0.234,0.31l0.234,0.308l0.236,0.308l0.237,0.308l0.237,0.307l0.239,0.306l0.239,0.305l0.241,0.305l0.242,0.304l0.242,0.303l0.244,0.303l0.49,0.604l0.247,0.301l0.247,0.3l0.498,0.598l0.251,0.298l0.251,0.297l0.253,0.297l0.508,0.592l0.512,0.588l0.516,0.586l0.26,0.292l0.26,0.291l0.261,0.29l0.263,0.29l0.263,0.289l0.53,0.576l0.266,0.286l0.536,0.572l0.269,0.284l0.27,0.284l0.544,0.566l0.273,0.281l0.274,0.281l0.275,0.28l0.276,0.28l0.277,0.278l0.278,0.278l0.279,0.277l0.281,0.277l0.28,0.275l0.282,0.275l0.283,0.274l0.284,0.273l0.285,0.273l0.286,0.272l0.286,0.271l0.288,0.27l0.578,0.538l0.291,0.268l0.292,0.267l0.292,0.266l0.588,0.53l0.295,0.264l0.297,0.263l0.297,0.262l0.298,0.261l0.3,0.261l0.3,0.259l0.301,0.259l0.302,0.258l0.303,0.258l0.304,0.256l0.305,0.256l0.306,0.255l0.307,0.253l0.308,0.254l0.308,0.252l0.31,0.251l0.311,0.251l0.311,0.249l0.313,0.249l0.313,0.248l0.63,0.494l0.316,0.245l0.318,0.245l0.318,0.243l0.319,0.243l0.32,0.242l0.321,0.241l0.322,0.24l0.323,0.24l0.324,0.238l0.325,0.238l0.325,0.236l0.327,0.236l0.328,0.235l0.328,0.234l0.329,0.233l0.331,0.232l0.331,0.231l0.332,0.23l0.333,0.23l0.67,0.456l0.336,0.227l0.336,0.225l0.338,0.225l0.339,0.224l0.34,0.223l0.34,0.222l0.342,0.221l0.342,0.22l0.344,0.22l0.344,0.218l0.345,0.217l0.346,0.216l0.347,0.216l0.348,0.214l0.349,0.214l0.35,0.213l0.702,0.422l0.706,0.418l0.355,0.208l0.355,0.207l0.356,0.205l0.357,0.205l0.358,0.204l0.359,0.203l0.359,0.201l0.359,0.2l0.36,0.199l0.36,0.197l0.361,0.197l0.361,0.195l0.361,0.193l0.362,0.193l0.362,0.191l0.362,0.19l0.362,0.188l0.363,0.187l0.364,0.186l0.364,0.185l0.364,0.184l0.364,0.182l0.365,0.181l0.73,0.358l0.366,0.177l0.366,0.176l0.366,0.174l0.367,0.173l0.367,0.172l0.367,0.171l0.367,0.17l0.368,0.168l0.369,0.167l0.368,0.165l0.369,0.165l0.369,0.163l0.369,0.162l0.74,0.32l0.37,0.158l0.742,0.312l0.371,0.154l0.371,0.153l0.372,0.152l0.372,0.151l0.372,0.149l0.372,0.148l0.373,0.147l0.746,0.29l0.374,0.143l0.374,0.141l0.373,0.141l0.375,0.139l0.374,0.138l0.375,0.137l0.75,0.27l0.375,0.133l0.376,0.132l0.376,0.13l0.376,0.129l0.376,0.128l0.377,0.127l0.377,0.126l0.377,0.124l0.377,0.123l0.377,0.122l0.378,0.121l0.378,0.119l0.378,0.118l0.378,0.117l0.378,0.116l0.379,0.114l0.379,0.113l0.379,0.112l0.379,0.111l0.379,0.109l0.38,0.109l0.38,0.107l0.379,0.106l0.38,0.104l0.381,0.104l0.38,0.102l0.381,0.101l0.38,0.099l0.381,0.099l0.381,0.097l0.381,0.096l0.382,0.095l0.381,0.093l0.382,0.093l0.382,0.091l0.382,0.09l0.764,0.176l0.382,0.086l0.383,0.085l0.382,0.084l0.766,0.164l0.383,0.08l0.383,0.079l0.383,0.078l0.383,0.076l0.384,0.076l0.383,0.074l0.384,0.073l0.383,0.071l0.384,0.071l0.384,0.069l0.384,0.068l0.384,0.067l0.384,0.066l0.385,0.064l0.384,0.063l0.385,0.062l0.384,0.061l0.385,0.06l0.384,0.058l0.385,0.058l0.385,0.056l0.384,0.055l0.77,0.106l0.385,0.051l0.386,0.05l0.385,0.049l0.385,0.048l0.385,0.046l0.385,0.045l0.386,0.045l0.77,0.084l0.386,0.041l0.385,0.039l0.386,0.038l0.385,0.037l0.385,0.036l0.386,0.035l0.386,0.033l0.385,0.032l0.386,0.031l0.385,0.03l0.386,0.029l0.386,0.027l0.385,0.027l0.386,0.025l0.385,0.024l0.386,0.023l0.385,0.021l0.386,0.021l0.385,0.019l0.386,0.018l0.385,0.017l0.386,0.016l0.77,0.028l0.386,0.012l0.385,0.011l0.386,0.01l0.77,0.016l0.77,0.012l0.385,0.004l0.77,0.004l0.385,0.001l0.385,-0.001l0.385,-0.002l0.384,-0.003l0.385,-0.004l0.385,-0.005l0.384,-0.006l0.385,-0.008l0.384,-0.009l0.384,-0.01l0.384,-0.011l0.384,-0.012l0.384,-0.013l0.384,-0.015l0.384,-0.015l0.384,-0.017l0.383,-0.018l0.383,-0.019l0.384,-0.021l0.383,-0.021l0.384,-0.023l0.382,-0.023l0.383,-0.025l0.383,-0.026l0.383,-0.028l0.382,-0.028l0.383,-0.029l0.382,-0.031l0.382,-0.032l0.382,-0.033l0.382,-0.034l0.382,-0.035l0.381,-0.036l0.382,-0.038l0.381,-0.038l0.381,-0.04l0.381,-0.041l0.381,-0.042l0.381,-0.043l0.38,-0.044l0.381,-0.046l0.38,-0.046l0.38,-0.048l0.38,-0.049l0.379,-0.05l0.38,-0.051l0.379,-0.052l0.379,-0.053l0.379,-0.055l0.379,-0.055l0.378,-0.057l0.379,-0.058l0.378,-0.059l0.378,-0.06l0.377,-0.061l0.378,-0.063l0.377,-0.063l0.377,-0.065l0.377,-0.065l0.377,-0.067l0.376,-0.068l0.377,-0.069l0.375,-0.07l0.376,-0.072l0.376,-0.072l0.375,-0.074l0.375,-0.074l0.375,-0.076l0.374,-0.077l0.375,-0.078l0.374,-0.079l0.374,-0.081l0.373,-0.081l0.374,-0.082l0.373,-0.084l0.373,-0.085l0.372,-0.085l0.373,-0.087l0.372,-0.088l0.371,-0.089l0.372,-0.09l0.371,-0.092l0.371,-0.092l0.371,-0.094l0.37,-0.094l0.37,-0.096l0.37,-0.097l0.369,-0.098l0.369,-0.099l0.369,-0.1l0.369,-0.101l0.368,-0.102l0.368,-0.104l0.368,-0.104l0.367,-0.106l0.367,-0.107l0.367,-0.108l0.367,-0.108l0.366,-0.11l0.365,-0.111l0.366,-0.113l0.365,-0.113l0.365,-0.114l0.364,-0.116l0.365,-0.116l0.363,-0.118l0.364,-0.118l0.363,-0.12l0.362,-0.121l0.363,-0.122l0.362,-0.123l0.362,-0.124l0.361,-0.125l0.361,-0.127l0.36,-0.127l0.361,-0.128l0.359,-0.13l0.36,-0.13l0.359,-0.132l0.359,-0.133l0.358,-0.134l0.358,-0.134l0.358,-0.136l0.357,-0.137l0.357,-0.139l0.356,-0.139l0.356,-0.14l0.356,-0.141l0.355,-0.143l0.355,-0.143l0.354,-0.145l0.354,-0.145l0.354,-0.147l0.353,-0.148l0.353,-0.148l0.352,-0.15l0.352,-0.151l0.351,-0.152l0.351,-0.153l0.351,-0.154l0.35,-0.155l0.35,-0.157l0.349,-0.157l0.349,-0.158l0.348,-0.16l0.348,-0.16l0.348,-0.162l0.347,-0.162l0.346,-0.164l0.346,-0.165l0.346,-0.165l0.345,-0.167l0.345,-0.168l0.344,-0.169l0.344,-0.17l0.343,-0.171l0.343,-0.172l0.343,-0.173l0.341,-0.174l0.342,-0.175l0.341,-0.176l0.34,-0.178l0.34,-0.178l0.339,-0.179l0.34,-0.181l0.338,-0.181l0.338,-0.183l0.337,-0.183l0.337,-0.185l0.337,-0.185l0.336,-0.187l0.335,-0.188l0.335,-0.188l0.334,-0.19l0.334,-0.191l0.333,-0.192l0.333,-0.193l0.332,-0.193l0.332,-0.195l0.331,-0.196l0.331,-0.197l0.33,-0.198l0.329,-0.199l0.329,-0.2l0.328,-0.201l0.328,-0.203l0.327,-0.203l0.327,-0.204l0.327,-0.205l0.325,-0.206l0.325,-0.207l0.324,-0.209l0.324,-0.209l0.324,-0.21l0.323,-0.212l0.322,-0.212l0.321,-0.214l0.321,-0.214l0.321,-0.215l0.319,-0.217l0.32,-0.217l0.318,-0.219l0.318,-0.219l0.318,-0.221l0.316,-0.221l0.317,-0.223l0.315,-0.223l0.315,-0.225l0.315,-0.225l0.313,-0.227l0.313,-0.227l0.313,-0.229l0.312,-0.23l0.311,-0.23l0.31,-0.232l0.31,-0.232l0.31,-0.234l0.308,-0.235l0.308,-0.235l0.308,-0.237l0.307,-0.237l0.306,-0.239l0.305,-0.24l0.305,-0.24l0.304,-0.242l0.303,-0.242l0.303,-0.244l0.302,-0.245l0.302,-0.245l0.301,-0.247l0.3,-0.247l0.299,-0.249l0.299,-0.25l0.298,-0.25l0.297,-0.252l0.297,-0.252l0.296,-0.254l0.296,-0.254l0.294,-0.256l0.294,-0.256l0.293,-0.258l0.293,-0.258l0.292,-0.26l0.291,-0.26l0.29,-0.262l0.29,-0.262l0.289,-0.263l0.288,-0.265l0.287,-0.265l0.287,-0.266l0.286,-0.268l0.286,-0.268l0.284,-0.269l0.284,-0.271l0.283,-0.271l0.283,-0.272l0.281,-0.273l0.281,-0.274l0.28,-0.275l0.28,-0.277l0.278,-0.276l0.278,-0.279l0.278,-0.279l0.276,-0.279l0.275,-0.281l0.275,-0.283l0.274,-0.282l0.274,-0.284l0.272,-0.285l0.272,-0.286l0.271,-0.287l0.27,-0.287l0.269,-0.289l0.269,-0.29l0.268,-0.29l0.267,-0.292l0.266,-0.292l0.265,-0.294l0.265,-0.294l0.264,-0.296l0.263,-0.296l0.262,-0.297l0.261,-0.299l0.261,-0.299l0.259,-0.3l0.259,-0.301l0.258,-0.302l0.258,-0.303l0.256,-0.304l0.256,-0.305l0.255,-0.306l0.253,-0.307l0.253,-0.308l0.253,-0.309l0.251,-0.309l0.251,-0.311l0.249,-0.311l0.249,-0.313l0.248,-0.314l0.247,-0.314l0.247,-0.315l0.245,-0.317l0.245,-0.317l0.243,-0.318l0.243,-0.319l0.242,-0.32l0.241,-0.321l0.24,-0.322l0.24,-0.323l0.238,-0.324l0.238,-0.325l0.236,-0.325l0.236,-0.327l0.235,-0.328l0.234,-0.328l0.233,-0.33l0.232,-0.33l0.231,-0.331l0.23,-0.332l0.23,-0.334l0.228,-0.334l0.228,-0.335l0.227,-0.336l0.225,-0.336l0.225,-0.338l0.224,-0.339l0.223,-0.34l0.222,-0.34l0.221,-0.342l0.22,-0.342l0.219,-0.344l0.219,-0.344l0.217,-0.345l0.216,-0.346l0.216,-0.347l0.214,-0.348l0.214,-0.349l0.213,-0.35l0.211,-0.351l0.211,-0.351l0.209,-0.353l0.209,-0.353l0.208,-0.355l0.207,-0.355l0.205,-0.356l0.205,-0.357l0.204,-0.358l0.203,-0.359l0.201,-0.359l0.2,-0.359l0.199,-0.36l0.197,-0.361l0.197,-0.36l0.195,-0.361l0.193,-0.361l0.193,-0.362l0.191,-0.362l0.19,-0.362l0.188,-0.363l0.187,-0.363l0.187,-0.363l0.184,-0.364l0.184,-0.364l0.182,-0.364l0.181,-0.365l0.179,-0.365l0.179,-0.365l0.177,-0.366l0.176,-0.366l0.174,-0.366l0.173,-0.367l0.172,-0.367l0.171,-0.367l0.17,-0.368l0.168,-0.367l0.167,-0.369l0.165,-0.368l0.165,-0.369l0.163,-0.369l0.162,-0.369l0.16,-0.37l0.16,-0.37l0.158,-0.37l0.157,-0.371l0.155,-0.371l0.154,-0.371l0.153,-0.371l0.152,-0.372l0.151,-0.372l0.149,-0.372l0.148,-0.372l0.147,-0.373l0.145,-0.373l0.145,-0.374l0.143,-0.373l0.141,-0.373l0.141,-0.374l0.139,-0.375l0.138,-0.374l0.137,-0.375l0.135,-0.375l0.135,-0.375l0.133,-0.375l0.131,-0.376l0.131,-0.376l0.129,-0.376l0.128,-0.376l0.127,-0.377l0.126,-0.377l0.124,-0.377l0.123,-0.377l0.122,-0.377l0.121,-0.378l0.119,-0.378l0.118,-0.378l0.117,-0.378l0.116,-0.379l0.114,-0.378l0.113,-0.379l0.112,-0.379l0.111,-0.379l0.109,-0.379l0.109,-0.38l0.107,-0.38l0.106,-0.379l0.104,-0.381l0.104,-0.38l0.102,-0.38l0.101,-0.381l0.099,-0.381l0.099,-0.38l0.097,-0.381l0.096,-0.381l0.095,-0.382l0.093,-0.382l0.093,-0.381l0.091,-0.382l0.09,-0.382l0.088,-0.382l0.088,-0.382l0.086,-0.382l0.085,-0.383l0.084,-0.382l0.082,-0.383l0.082,-0.383l0.08,-0.383l0.079,-0.383l0.078,-0.383l0.076,-0.383l0.076,-0.384l0.074,-0.383l0.073,-0.384l0.071,-0.384l0.071,-0.383l0.069,-0.384l0.068,-0.384l0.067,-0.385l0.066,-0.384l0.064,-0.384l0.063,-0.384l0.062,-0.385l0.061,-0.384l0.06,-0.385l0.058,-0.384l0.058,-0.385l0.056,-0.385l0.055,-0.385l0.053,-0.385l0.053,-0.385l0.051,-0.385l0.05,-0.385l0.049,-0.385l0.048,-0.385l0.046,-0.385l0.045,-0.385l0.044,-0.386l0.043,-0.385l0.042,-0.385l0.041,-0.386l0.039,-0.385l0.038,-0.386l0.037,-0.385l0.036,-0.386l0.035,-0.385l0.033,-0.386l0.032,-0.385l0.031,-0.386l0.03,-0.386l0.029,-0.385l0.027,-0.386l0.027,-0.385l0.025,-0.386l0.024,-0.385l0.023,-0.386l0.021,-0.386l0.021,-0.385l0.019,-0.385l0.018,-0.386l0.017,-0.385l0.016,-0.386l0.014,-0.385l0.014,-0.386l0.012,-0.385l0.011,-0.385l0.01,-0.386l0.008,-0.385l0.008,-0.385l0.006,-0.385l0.005,-0.385l0.005,-0.385l0.002,-0.386l0.002,-0.385l0.001,-0.384l-0.001,-0.385l-0.002,-0.385l-0.003,-0.384l-0.004,-0.385l-0.005,-0.385l-0.006,-0.384l-0.008,-0.385l-0.009,-0.384l-0.01,-0.384l-0.011,-0.384l-0.012,-0.385l-0.013,-0.383l-0.015,-0.384l-0.015,-0.384l-0.017,-0.384l-0.018,-0.383l-0.019,-0.384l-0.021,-0.383l-0.021,-0.383l-0.023,-0.384l-0.024,-0.383l-0.024,-0.383l-0.026,-0.382l-0.028,-0.383l-0.028,-0.383l-0.029,-0.382l-0.031,-0.382l-0.032,-0.382l-0.033,-0.382l-0.034,-0.382l-0.035,-0.382l-0.036,-0.381l-0.038,-0.382l-0.038,-0.381l-0.04,-0.381l-0.041,-0.382l-0.042,-0.38l-0.043,-0.381l-0.044,-0.38l-0.046,-0.381l-0.046,-0.38l-0.048,-0.38l-0.049,-0.38l-0.05,-0.379l-0.051,-0.38l-0.052,-0.379l-0.053,-0.379l-0.055,-0.379l-0.055,-0.379l-0.057,-0.378l-0.058,-0.379l-0.059,-0.378l-0.06,-0.378l-0.061,-0.378l-0.063,-0.377l-0.063,-0.377l-0.065,-0.377l-0.066,-0.377l-0.066,-0.377l-0.068,-0.376l-0.069,-0.377l-0.071,-0.376l-0.071,-0.375l-0.072,-0.376l-0.074,-0.375l-0.074,-0.375l-0.076,-0.375l-0.077,-0.375l-0.078,-0.374l-0.079,-0.374l-0.081,-0.374l-0.081,-0.374l-0.082,-0.373l-0.084,-0.373l-0.084,-0.373l-0.086,-0.372l-0.087,-0.373l-0.088,-0.372l-0.089,-0.371l-0.091,-0.372l-0.091,-0.371l-0.092,-0.371l-0.094,-0.371l-0.094,-0.37l-0.096,-0.37l-0.097,-0.37l-0.098,-0.369l-0.099,-0.37l-0.1,-0.369l-0.101,-0.368l-0.103,-0.368l-0.103,-0.368l-0.104,-0.368l-0.106,-0.368l-0.107,-0.366l-0.108,-0.367l-0.108,-0.367l-0.11,-0.366l-0.111,-0.365l-0.113,-0.366l-0.113,-0.365l-0.114,-0.365l-0.116,-0.365l-0.116,-0.363l-0.118,-0.364l-0.118,-0.364l-0.12,-0.363l-0.121,-0.363l-0.122,-0.362l-0.123,-0.362l-0.124,-0.362l-0.125,-0.361l-0.127,-0.361l-0.127,-0.361l-0.128,-0.36l-0.13,-0.36l-0.13,-0.359l-0.132,-0.359l-0.133,-0.359l-0.133,-0.358l-0.135,-0.358l-0.136,-0.358l-0.137,-0.357l-0.138,-0.357l-0.14,-0.356l-0.14,-0.356l-0.141,-0.356l-0.143,-0.355l-0.143,-0.355l-0.145,-0.354l-0.145,-0.354l-0.147,-0.354l-0.148,-0.353l-0.148,-0.352l-0.15,-0.353l-0.151,-0.352l-0.152,-0.351l-0.153,-0.351l-0.154,-0.351l-0.155,-0.35l-0.157,-0.35l-0.157,-0.349l-0.158,-0.349l-0.16,-0.348l-0.16,-0.348l-0.162,-0.348l-0.162,-0.347l-0.164,-0.346l-0.164,-0.347l-0.166,-0.345l-0.167,-0.345l-0.168,-0.345l-0.169,-0.344l-0.17,-0.344l-0.171,-0.343l-0.172,-0.343l-0.173,-0.343l-0.174,-0.342l-0.175,-0.341l-0.176,-0.341l-0.178,-0.34l-0.178,-0.34l-0.179,-0.34l-0.18,-0.338l-0.182,-0.339l-0.183,-0.338l-0.183,-0.338l-0.185,-0.337l-0.185,-0.336l-0.187,-0.336l-0.188,-0.335l-0.188,-0.335l-0.19,-0.334l-0.191,-0.334l-0.192,-0.333l-0.192,-0.333l-0.194,-0.332l-0.195,-0.332l-0.196,-0.331l-0.197,-0.331l-0.198,-0.33l-0.199,-0.329l-0.2,-0.329l-0.201,-0.329l-0.202,-0.327l-0.204,-0.328l-0.204,-0.327l-0.205,-0.326l-0.206,-0.325l-0.208,-0.325l-0.208,-0.325l-0.209,-0.324l-0.21,-0.323l-0.212,-0.323l-0.212,-0.322l-0.214,-0.321l-0.214,-0.321l-0.215,-0.321l-0.217,-0.319l-0.217,-0.32l-0.219,-0.318l-0.219,-0.318l-0.221,-0.318l-0.221,-0.316l-0.223,-0.317l-0.223,-0.315l-0.225,-0.315l-0.225,-0.315l-0.227,-0.313l-0.227,-0.313l-0.229,-0.313l-0.23,-0.312l-0.23,-0.311l-0.232,-0.31l-0.232,-0.311l-0.234,-0.309l-0.235,-0.309l-0.235,-0.308l-0.237,-0.307l-0.237,-0.307l-0.239,-0.306l-0.239,-0.305l-0.241,-0.305l-0.242,-0.304l-0.242,-0.304l-0.244,-0.302l-0.245,-0.303l-0.245,-0.301l-0.247,-0.301l-0.247,-0.3l-0.249,-0.299l-0.25,-0.299l-0.25,-0.298l-0.252,-0.298l-0.252,-0.296l-0.254,-0.296l-0.254,-0.296l-0.256,-0.294l-0.256,-0.294l-0.258,-0.293l-0.258,-0.293l-0.26,-0.292l-0.26,-0.291l-0.261,-0.29l-0.263,-0.29l-0.263,-0.289l-0.265,-0.288l-0.265,-0.288l-0.266,-0.286l-0.268,-0.286l-0.268,-0.286l-0.269,-0.284l-0.27,-0.284l-0.272,-0.283l-0.272,-0.283l-0.273,-0.281l-0.274,-0.281l-0.275,-0.281l-0.276,-0.279l-0.277,-0.278l-0.279,-0.278l-0.279,-0.278l-0.28,-0.276l-0.281,-0.275l-0.281,-0.275l-0.283,-0.274l-0.284,-0.274l-0.285,-0.272l-0.286,-0.272l-0.287,-0.271l-0.287,-0.27l-0.289,-0.269l-0.29,-0.269l-0.29,-0.268l-0.292,-0.267l-0.292,-0.266l-0.294,-0.265l-0.294,-0.265l-0.296,-0.264l-0.296,-0.263l-0.297,-0.262l-0.299,-0.261l-0.299,-0.261l-0.3,-0.26l-0.301,-0.258l-0.302,-0.259l-0.303,-0.257l-0.304,-0.256l-0.305,-0.256l-0.306,-0.255l-0.307,-0.254l-0.308,-0.253l-0.309,-0.252l-0.309,-0.251l-0.311,-0.251l-0.311,-0.25l-0.313,-0.248l-0.313,-0.248l-0.315,-0.247l-0.315,-0.247l-0.317,-0.245l-0.317,-0.245l-0.318,-0.243l-0.319,-0.243l-0.32,-0.242l-0.321,-0.241l-0.322,-0.24l-0.323,-0.24l-0.324,-0.238l-0.325,-0.238l-0.325,-0.236l-0.327,-0.236l-0.328,-0.235l-0.328,-0.234l-0.33,-0.233l-0.33,-0.232l-0.331,-0.231l-0.333,-0.231l-0.333,-0.229l-0.334,-0.228l-0.335,-0.228l-0.336,-0.227l-0.337,-0.225l-0.338,-0.225l-0.338,-0.224l-0.34,-0.223l-0.34,-0.222l-0.342,-0.221l-0.342,-0.22l-0.344,-0.22l-0.344,-0.218l-0.345,-0.217l-0.346,-0.217l-0.347,-0.215l-0.348,-0.215l-0.349,-0.213l-0.35,-0.213l-0.351,-0.211l-0.351,-0.211l-0.353,-0.209l-0.353,-0.209l-0.355,-0.208l-0.355,-0.207l-0.356,-0.205l-0.357,-0.205l-0.358,-0.204l-0.359,-0.203l-0.359,-0.201l-0.359,-0.2l-0.36,-0.199l-0.361,-0.198l-0.36,-0.196l-0.361,-0.195l-0.361,-0.193l-0.362,-0.193l-0.362,-0.191l-0.362,-0.19l-0.363,-0.188l-0.363,-0.188l-0.363,-0.186l-0.364,-0.184l-0.364,-0.184l-0.364,-0.182l-0.365,-0.181l-0.365,-0.179l-0.365,-0.179l-0.366,-0.177l-0.366,-0.176l-0.366,-0.174l-0.367,-0.173l-0.367,-0.172l-0.367,-0.171l-0.368,-0.17l-0.367,-0.168l-0.369,-0.167l-0.368,-0.165l-0.369,-0.165l-0.369,-0.163l-0.369,-0.162l-0.37,-0.16l-0.37,-0.16l-0.37,-0.158l-0.371,-0.157l-0.371,-0.155l-0.371,-0.155l-0.371,-0.153l-0.372,-0.151l-0.372,-0.151l-0.372,-0.149l-0.372,-0.148l-0.373,-0.147l-0.373,-0.145l-0.373,-0.145l-0.374,-0.143l-0.374,-0.142l-0.374,-0.14l-0.374,-0.139l-0.374,-0.138l-0.375,-0.137l-0.375,-0.136l-0.375,-0.134l-0.376,-0.133l-0.375,-0.132l-0.376,-0.13l-0.376,-0.129l-0.376,-0.128l-0.377,-0.127l-0.377,-0.126l-0.377,-0.124l-0.377,-0.123l-0.377,-0.122l-0.378,-0.121l-0.378,-0.119l-0.378,-0.118l-0.378,-0.117l-0.378,-0.116l-0.379,-0.114l-0.379,-0.113l-0.379,-0.112l-0.379,-0.111l-0.379,-0.11l-0.38,-0.108l-0.38,-0.107l-0.379,-0.106l-0.381,-0.104l-0.38,-0.104l-0.38,-0.102l-0.381,-0.101l-0.381,-0.099l-0.38,-0.099l-0.381,-0.097l-0.382,-0.096l-0.381,-0.095l-0.381,-0.093l-0.382,-0.093l-0.382,-0.091l-0.382,-0.09l-0.382,-0.088l-0.382,-0.088l-0.382,-0.086l-0.383,-0.085l-0.382,-0.084l-0.383,-0.083l-0.383,-0.081l-0.383,-0.08l-0.383,-0.079l-0.383,-0.078l-0.383,-0.076l-0.384,-0.076l-0.383,-0.074l-0.384,-0.073l-0.384,-0.071l-0.383,-0.071l-0.384,-0.069l-0.384,-0.068l-0.384,-0.067l-0.385,-0.066l-0.384,-0.064l-0.384,-0.064l-0.385,-0.062l-0.384,-0.06l-0.385,-0.06l-0.384,-0.059l-0.385,-0.057l-0.385,-0.056l-0.385,-0.055l-0.385,-0.053l-0.385,-0.053l-0.385,-0.051l-0.385,-0.05l-0.385,-0.049l-0.385,-0.048l-0.385,-0.046l-0.385,-0.046l-0.386,-0.044l-0.385,-0.043l-0.385,-0.041l-0.386,-0.041l-0.385,-0.039l-0.386,-0.038l-0.385,-0.037l-0.386,-0.036l-0.385,-0.035l-0.386,-0.033l-0.385,-0.032l-0.386,-0.031l-0.385,-0.03l-0.386,-0.029l-0.386,-0.027l-0.385,-0.027l-0.386,-0.025l-0.385,-0.024l-0.386,-0.023l-0.385,-0.021l-0.386,-0.021l-0.385,-0.019l-0.386,-0.018l-0.385,-0.017l-0.386,-0.016l-0.385,-0.014l-0.386,-0.014l-0.385,-0.012l-0.385,-0.011l-0.386,-0.01l-0.385,-0.009l-0.385,-0.007l-0.385,-0.006l-0.385,-0.006l-0.385,-0.004l-0.385,-0.003l-0.385,-0.001l-0.385,-0.001l-0.385,0.001Z" style="fill:#262626;"/><g id="Layer1000"><path id="path3713" d="M55.586,106.02c-1.266,2.364 -4.177,3.273 -6.501,2.028c-2.324,-1.244 -3.182,-4.171 -1.916,-6.535c1.266,-2.364 4.177,-3.273 6.501,-2.029c2.324,1.245 3.181,4.171 1.916,6.536Z"/><path id="path3715" d="M55.586,106.02c-1.266,2.364 -4.177,3.273 -6.501,2.028c-2.324,-1.244 -3.182,-4.171 -1.916,-6.535c1.266,-2.364 4.177,-3.273 6.501,-2.029c2.324,1.245 3.182,4.171 1.916,6.536Z"/><path id="path3717" d="M61.705,75.547l-3.885,5.673l15.126,10.443l-0.908,1.327l-16.332,-11.276l4.793,-7l1.206,0.833Z"/><path id="path3719" d="M73.369,68.333c-1.886,-1.8 -3.934,-1.522 -6.144,0.835l-1.421,1.514l5.67,5.41l1.5,-1.6c0.965,-1.03 1.486,-2.108 1.564,-3.238c0.076,-1.13 -0.312,-2.104 -1.169,-2.921Zm1.046,-1.078c1.21,1.155 1.781,2.459 1.713,3.91c-0.067,1.452 -0.76,2.88 -2.076,4.284l-1.536,1.638l6.618,6.316l-1.099,1.172l-14.372,-13.716l2.617,-2.791c2.829,-3.016 5.541,-3.288 8.135,-0.813Z"/><path id="path3721" d="M83.789,52.974l4.773,21.402l-1.359,1.039l-1.627,-7.351l-12.962,-6.548l1.385,-1.058l11.154,5.707l-2.723,-12.152l1.359,-1.039Z"/><path id="path3723" d="M103.561,58.533c0.795,1.597 0.886,3.199 0.274,4.807c-0.582,1.535 -1.626,2.693 -3.135,3.475c-1.231,0.638 -2.493,0.881 -3.785,0.725c-1.292,-0.153 -2.419,-0.69 -3.38,-1.609l0.952,-1.237c0.777,0.743 1.657,1.189 2.642,1.338c0.984,0.15 1.958,-0.026 2.92,-0.524c1.155,-0.599 1.936,-1.451 2.344,-2.555c0.435,-1.167 0.344,-2.371 -0.275,-3.613c-0.565,-1.134 -1.423,-1.871 -2.575,-2.21c-1.152,-0.339 -2.344,-0.189 -3.575,0.449l-1.742,0.904l-0.675,-1.354l1.721,-0.892c1.031,-0.534 1.743,-1.292 2.135,-2.272c0.393,-0.98 0.346,-1.96 -0.142,-2.94c-1.037,-2.082 -2.73,-2.514 -5.077,-1.297c-0.808,0.419 -1.427,1.048 -1.856,1.887c-0.43,0.839 -0.579,1.719 -0.449,2.642l-1.552,-0.142c-0.103,-1.159 0.129,-2.25 0.695,-3.272c0.582,-1.067 1.438,-1.895 2.569,-2.481c1.469,-0.763 2.843,-0.99 4.12,-0.682c1.315,0.328 2.32,1.189 3.016,2.585c0.922,1.851 0.725,3.584 -0.592,5.199c1.108,-0.187 2.15,-0.002 3.125,0.555c0.974,0.558 1.74,1.396 2.297,2.514Z"/><path id="path3725" d="M123.331,48.534c-0.535,-2.389 -1.817,-4.222 -3.845,-5.499c-2.029,-1.275 -4.234,-1.625 -6.617,-1.048c-2.383,0.577 -4.22,1.904 -5.51,3.983c-1.29,2.08 -1.668,4.314 -1.133,6.703c0.537,2.399 1.825,4.232 3.866,5.5c2.039,1.269 4.251,1.615 6.634,1.038c2.382,-0.577 4.213,-1.901 5.492,-3.973c1.279,-2.072 1.649,-4.306 1.113,-6.704Zm1.548,-0.375c0.618,2.761 0.16,5.368 -1.373,7.823c-1.534,2.453 -3.685,4.015 -6.455,4.685c-2.785,0.675 -5.389,0.264 -7.812,-1.233c-2.422,-1.496 -3.943,-3.625 -4.561,-6.386c-0.62,-2.769 -0.159,-5.384 1.381,-7.844c1.542,-2.46 3.701,-4.026 6.478,-4.698c2.769,-0.671 5.364,-0.252 7.784,1.253c2.42,1.506 3.939,3.639 4.558,6.4Z"/><path id="path3727" d="M139.137,52.901c0.066,-2.749 -1.706,-4.141 -5.318,-4.176l-3.005,-0.03l-0.197,8.194l3.483,0.034c1.479,0.014 2.681,-0.345 3.605,-1.077c0.926,-0.732 1.403,-1.714 1.432,-2.945Zm-1.597,-9.234c0.062,-2.596 -1.361,-3.909 -4.266,-3.937l-2.245,-0.022l-0.181,7.555l2.683,0.026c1.195,0.012 2.155,-0.306 2.88,-0.955c0.726,-0.649 1.101,-1.537 1.129,-2.667Zm3.185,9.191c-0.041,1.693 -0.671,3.044 -1.89,4.053c-1.22,1.008 -2.81,1.503 -4.771,1.483l-5.068,-0.05l0.481,-20.111l4.115,0.041c1.831,0.017 3.221,0.5 4.171,1.448c0.924,0.921 1.365,2.233 1.325,3.935c-0.045,1.884 -0.834,3.223 -2.367,4.016c1.214,0.28 2.193,0.907 2.935,1.878c0.743,0.971 1.099,2.074 1.069,3.307Z"/><path id="path3729" d="M162.61,53.176c0.642,-2.381 0.37,-4.618 -0.815,-6.715c-1.184,-2.096 -2.955,-3.451 -5.311,-4.067c-2.357,-0.616 -4.583,-0.303 -6.68,0.936c-2.098,1.239 -3.466,3.048 -4.108,5.427c-0.643,2.389 -0.366,4.631 0.833,6.726c1.198,2.096 2.975,3.45 5.332,4.066c2.356,0.616 4.576,0.305 6.659,-0.934c2.083,-1.238 3.446,-3.051 4.09,-5.439Zm1.531,0.399c-0.741,2.75 -2.354,4.854 -4.838,6.311c-2.484,1.457 -5.095,1.829 -7.834,1.113c-2.754,-0.719 -4.845,-2.318 -6.273,-4.797c-1.428,-2.48 -1.772,-5.094 -1.03,-7.844c0.743,-2.758 2.361,-4.867 4.855,-6.326c2.494,-1.461 5.115,-1.831 7.86,-1.114c2.738,0.715 4.818,2.316 6.239,4.803c1.422,2.486 1.762,5.105 1.021,7.854Z"/><path id="path3731" d="M187.367,49.251c-0.625,1.027 -1.517,1.688 -2.674,1.982c-1.156,0.295 -2.239,0.133 -3.248,-0.483c-1.009,-0.617 -1.653,-1.511 -1.933,-2.683c-0.28,-1.172 -0.108,-2.271 0.517,-3.299l1.207,0.737c-0.435,0.715 -0.565,1.468 -0.389,2.26c0.175,0.791 0.61,1.399 1.304,1.824c0.695,0.424 1.428,0.53 2.2,0.317c0.771,-0.214 1.374,-0.677 1.809,-1.392l1.207,0.737Zm-9.752,23.89l-1.348,-0.824l8.617,-14.164l-22.022,6.326l10.649,-17.504l1.349,0.825l-8.611,14.154l22.031,-6.342l-10.665,17.529Z"/><path id="path3733" d="M207.723,83.562c0.502,-2.52 -0.008,-4.809 -1.533,-6.867c-1.39,-1.88 -3.288,-2.982 -5.691,-3.307c-2.403,-0.325 -4.58,0.254 -6.53,1.738c-1.951,1.484 -3.106,3.442 -3.467,5.877c-0.36,2.433 0.157,4.594 1.553,6.48c1.447,1.954 3.448,3.088 6.004,3.4l-1.639,1.247c-2.296,-0.619 -4.057,-1.756 -5.285,-3.414c-1.805,-2.438 -2.523,-5.082 -2.156,-7.931c0.367,-2.849 1.716,-5.16 4.046,-6.934c2.289,-1.742 4.851,-2.401 7.685,-1.976c2.833,0.425 5.096,1.78 6.788,4.067c1.442,1.948 2.07,4.067 1.885,6.358l-1.66,1.262Z"/><path id="path3735" d="M199.932,104.668l-4.054,-8.982l18.146,-8.558l4.055,8.981l-1.34,0.633l-3.4,-7.533l-6.194,2.921l3.299,7.309l-1.351,0.637l-3.299,-7.308l-7.91,3.731l3.4,7.532l-1.352,0.637Z"/><path id="path3737" d="M216.977,111.578c2.53,-0.701 3.394,-2.604 2.59,-5.71l-0.516,-1.996l-7.604,2.106l0.546,2.111c0.351,1.356 0.982,2.357 1.894,3.001c0.911,0.644 1.941,0.808 3.09,0.488Zm0.349,1.452c-1.624,0.45 -3.03,0.275 -4.218,-0.527c-1.189,-0.8 -2.022,-2.126 -2.501,-3.976l-0.558,-2.16l-8.877,2.461l-0.4,-1.545l19.278,-5.344l0.952,3.679c1.028,3.977 -0.198,6.448 -3.676,7.412Z"/><path id="path3739" d="M218.739,125.806c2.565,-0.228 3.74,-1.805 3.526,-4.728l-0.166,-2.258l-7.462,0.666l0.198,2.699c0.088,1.201 0.482,2.132 1.182,2.788c0.7,0.655 1.607,0.933 2.722,0.833Zm-8.968,2.643c2.715,-0.243 3.939,-2.18 3.672,-5.814l-0.222,-3.023l-8.093,0.722l0.257,3.504c0.109,1.487 0.564,2.655 1.363,3.502c0.799,0.847 1.806,1.217 3.022,1.109l0.001,0Zm0.175,1.59c-1.672,0.149 -3.057,-0.332 -4.153,-1.445c-1.096,-1.113 -1.717,-2.654 -1.861,-4.627l-0.375,-5.099l19.866,-1.772l0.304,4.138c0.135,1.843 -0.225,3.294 -1.079,4.354c-0.831,1.033 -2.088,1.623 -3.769,1.773c-1.86,0.166 -3.246,-0.476 -4.155,-1.927c-0.176,1.251 -0.712,2.305 -1.607,3.16c-0.896,0.854 -1.954,1.337 -3.171,1.445Z"/><path id="path3741" d="M201.808,149.748l0.257,-1.585l16.144,2.436l-13.917,-18.043l19.95,3.009l-0.255,1.584l-16.135,-2.433l13.935,18.046l-19.979,-3.014Z"/><path id="path3743" d="M208.944,173.351c2.418,-0.817 4.155,-2.414 5.211,-4.786c0.965,-2.167 1.016,-4.39 0.156,-6.672c-0.861,-2.281 -2.395,-3.911 -4.606,-4.887c-2.21,-0.976 -4.453,-1.016 -6.729,-0.116c-2.276,0.9 -3.898,2.437 -4.865,4.611c-1.004,2.254 -1.033,4.585 -0.089,6.994l-1.857,-0.821c-0.557,-2.333 -0.409,-4.455 0.442,-6.366c1.251,-2.811 3.196,-4.768 5.833,-5.869c2.639,-1.102 5.279,-1.07 7.92,0.098c2.593,1.146 4.38,3.074 5.358,5.785c0.98,2.71 0.882,5.384 -0.291,8.019c-1,2.246 -2.534,3.86 -4.603,4.842l-1.88,-0.832Z"/><path id="path3745" d="M47.363,133.283c-1.831,0.779 -3.481,1.347 -4.954,1.705c-1.471,0.358 2.71,2.778 12.543,7.262l-0.293,-0.659l-3.917,-9.061c-0.422,-0.276 -1.548,-0.024 -3.379,0.754l0,-0.001Zm15.416,7.444c1.061,1.925 0.908,2.85 -0.461,2.774c-2.306,-2.341 -3.967,-3.619 -4.984,-3.833l-0.388,0.072l0.054,0.319c0.226,1.349 2.708,4.846 7.445,10.493c0.491,0.762 0.283,1.142 -0.626,1.14c-3.286,-4.001 -9.274,-8.221 -17.961,-12.661c-4.596,-2.136 -6.884,-3.414 -6.863,-3.832c0.02,-0.418 3.615,-1.816 10.783,-4.192l0.385,-0.199l0.405,-0.075c1.045,-0.193 2.74,3.451 5.084,10.929l0.295,0.239c-0.63,-2.384 -0.554,-3.697 0.229,-3.939c0.393,-0.183 0.821,-0.194 1.283,-0.036l3.138,1.815c-0.149,-0.887 -0.088,-1.426 0.183,-1.616c0.271,-0.191 0.937,0.677 1.999,2.602Z"/><path id="path3747" d="M76.273,173.178c0.57,0.82 0.672,1.55 0.302,2.193c-0.502,0.625 -1.41,1.037 -2.724,1.237c-1.314,0.201 -2.707,-0.151 -4.178,-1.052c-1.472,-0.9 -2.562,-1.904 -3.272,-3.007c-0.711,-1.104 -1.038,-2.107 -0.98,-3.011c0.352,-0.328 0.633,-0.209 0.842,0.359c0.485,1.745 1.616,3.229 3.391,4.45c1.775,1.221 3.286,1.606 4.534,1.154c1.248,-0.452 1.622,-1.063 1.121,-1.833c-0.51,-1.027 -2.873,-2.313 -7.089,-3.857l-10.295,-4.119c-2.276,-0.495 -3.589,-1.054 -3.94,-1.678c-0.054,-0.243 0.027,-0.394 0.243,-0.452c0.363,-0.211 1.99,0.172 4.882,1.15l6.72,2.209l0.318,0.124l0.203,-0.118l-0.559,-0.626l0.524,-0.244c2.006,1.535 3.729,2.662 5.168,3.383l0.354,-0.62c0.129,-0.946 -0.775,-2.259 -2.714,-3.945c-1.94,-1.683 -3.654,-2.588 -5.143,-2.714c-1.489,-0.124 -1.735,0.225 -0.733,1.049l2.999,2.763l-0.349,0.37c-2.368,-1.393 -3.885,-2.682 -4.551,-3.867c-0.025,-0.386 0.14,-0.682 0.492,-0.888c1.767,-1.098 4.21,-0.453 7.331,1.936c1.68,1.076 3.06,2.797 4.142,5.161c0.119,0.579 0.045,1.208 -0.22,1.887c1.549,0.918 2.609,1.787 3.18,2.606l0.001,0Z"/><path id="path3749" d="M47.057,173.326c-0.008,0.335 0.314,0.792 0.963,1.367l3.073,1.816c4.58,2.36 10.018,3.67 16.318,3.93c6.299,0.26 9.448,0.273 9.447,0.039c-0.001,-0.234 -0.127,-0.436 -0.378,-0.605c-3.721,-2.983 -10.071,-5.393 -19.051,-7.232c-3.576,-0.942 -6.716,-1.027 -9.419,-0.256c-0.627,0.291 -0.944,0.604 -0.953,0.941Zm71.3,10.378c-0.268,0.638 -0.556,0.733 -0.862,0.282l-0.548,-1.719l-21.669,0.529l-10.549,0.269c1.505,1.535 2.042,2.546 1.606,3.032c-0.198,0.382 -0.604,0.597 -1.22,0.641c-0.616,0.044 -1.209,0.049 -1.781,0.016c-0.572,-0.032 -0.972,-0.018 -1.2,0.042c4.286,2.064 5.706,3.122 4.257,3.177c-4.199,-1.663 -6.574,-2.637 -7.121,-2.921c-0.549,-0.283 -1.012,-0.601 -1.391,-0.953c-0.379,-0.351 -0.289,-0.697 0.271,-1.039c5.121,0.624 7.021,0.436 5.703,-0.564c-1.922,-1.959 -4.758,-2.852 -8.507,-2.681c-3.749,0.171 -6.168,0.222 -7.258,0.153c-1.091,-0.069 -4.513,-0.56 -10.271,-1.471c-2.462,-0.496 -4.705,-1.272 -6.73,-2.329c-2.025,-1.058 -3.443,-1.883 -4.253,-2.477c-0.81,-0.592 -1.333,-1.212 -1.57,-1.858c-0.237,-0.645 0.007,-1.304 0.731,-1.978c0.724,-0.674 1.674,-1.124 2.851,-1.353c1.177,-0.228 2.965,-0.222 5.362,0.017c4.515,0.525 10.427,2.299 17.735,5.324l1.708,0.811c6.193,3.92 10.579,5.507 13.156,4.761l0.619,-0.066c6.694,0.077 14.577,-0.039 23.649,-0.343l6.441,0.111c0.806,0.185 1.086,1.048 0.841,2.587Z"/><path id="path3751" d="M91.251,191.824c-2.568,0.581 -3.83,1.147 -3.787,1.695c0.043,0.549 1.315,0.984 3.815,1.306c2.501,0.323 4.563,0.022 6.185,-0.9c1.286,-0.477 1.336,-1.109 0.149,-1.899c-1.673,-0.718 -3.794,-0.785 -6.362,-0.202Zm7.668,-0.447c1.02,0.491 1.346,1.443 0.978,2.857c-0.726,0.606 -1.586,0.987 -2.582,1.146l0.258,0.157c1.7,-0.198 2.452,0.082 2.258,0.839c-3.042,-0.079 -4.836,0.185 -5.383,0.794c-0.547,0.607 -0.309,1.029 0.711,1.266l4.805,0.751c0.307,0.341 0.262,0.611 -0.134,0.808c-3.092,-0.11 -5.208,-0.509 -6.344,-1.197c-0.981,-0.763 -0.698,-1.622 0.848,-2.576c-4.209,-0.489 -6.82,-1.042 -7.834,-1.656c-0.545,-0.682 -0.414,-1.485 0.393,-2.408c4.671,-2.462 8.68,-2.722 12.025,-0.78l0.001,-0.001Z"/><path id="path3753" d="M117.317,198.773c0.738,-0.044 1.115,0.141 1.13,0.557c0.015,0.416 -2.669,1.967 -8.052,4.655c-0.315,0.432 -0.109,0.662 0.619,0.69c3.14,-0.07 5.049,-0.07 5.726,-0.002c0.675,0.068 0.964,0.258 0.864,0.568c-0.333,0.49 -1.813,0.764 -4.439,0.825c-2.627,0.062 -4.187,-0.147 -4.681,-0.626c-0.494,-0.479 -0.373,-1.126 0.365,-1.943l1.756,-1.495l-4.219,-1.885c-1.246,0.226 -2.317,0.628 -3.214,1.204c-0.898,0.577 -1.528,0.84 -1.892,0.787c-0.364,-0.05 -0.398,-0.397 -0.103,-1.038c1.463,-1.055 3.437,-2.079 5.922,-3.071c2.483,-0.992 4.154,-1.428 5.008,-1.31c0.853,0.118 0.726,0.539 -0.382,1.264c-0.556,0.217 -1.191,0.427 -1.906,0.632l-1.523,0.6l1.594,1.092c1.713,0.795 4.19,0.294 7.427,-1.504Z"/><path id="path3755" d="M123.377,210.689c0.801,0.519 1.303,0.444 1.507,-0.224c0.204,-0.669 0.293,-1.096 0.266,-1.28c-0.027,-0.185 -0.183,-0.274 -0.471,-0.268c-1.092,0.226 -1.527,0.816 -1.303,1.772l0.001,0Zm2.568,-11.101c0.722,-0.033 0.941,0.244 0.656,0.832c-3.303,2.464 -5.309,4.313 -6.014,5.546c0.121,0.497 1.255,0.341 3.403,-0.471c2.149,-0.811 4.83,-2.229 8.048,-4.254c0.862,-0.103 1.071,0.257 0.627,1.082l-4.194,3.63c0.789,0.834 0.77,1.461 -0.058,1.883c-0.775,-0.323 -1.838,1.141 -3.186,4.39c-0.253,0.324 -0.76,0.356 -1.52,0.095c-0.982,-0.61 -1.576,-1.266 -1.782,-1.965c0.145,-1.244 1.523,-2.286 4.136,-3.129l0.509,-1.599c-1.7,0.925 -3.198,1.555 -4.494,1.892c-1.088,0.19 -1.901,0.207 -2.44,0.054c-0.539,-0.153 -0.809,-0.435 -0.808,-0.847c0.184,-1.578 2.555,-3.959 7.117,-7.139Z"/><path id="path3757" d="M129.406,216.478c0.629,1.881 1.065,3.573 1.307,5.073c0.241,1.5 2.954,-2.599 8.136,-12.296l-0.675,0.262l-9.256,3.519c-0.304,0.412 -0.142,1.56 0.488,3.442Zm8.534,-15.184c1.984,-0.978 2.887,-0.78 2.707,0.596c-2.49,2.214 -3.88,3.827 -4.169,4.841l0.041,0.393l0.32,-0.037c1.35,-0.164 4.997,-2.5 10.941,-7.006c0.791,-0.46 1.151,-0.231 1.079,0.685c-4.206,3.122 -8.835,8.956 -13.885,17.502c-2.463,4.531 -3.9,6.776 -4.312,6.735c-0.012,-0.002 -0.024,-0.006 -0.037,-0.013l-0.005,-0.003c-0.442,-0.265 -1.535,-3.95 -3.281,-11.052l-0.168,-0.397l-0.042,-0.412c-0.112,-1.062 3.619,-2.598 11.192,-4.606l0.258,-0.286c-2.404,0.523 -3.696,0.383 -3.876,-0.416c-0.151,-0.405 -0.13,-0.838 0.062,-1.296l2.033,-3.076c-0.888,0.108 -1.417,0.021 -1.583,-0.261c-0.168,-0.282 0.74,-0.912 2.725,-1.891Z"/><path id="path3759" d="M144.936,216.26l1.078,0.829l0.476,0.182l1.028,-0.185l0.53,-0.171l0.963,-0.426c2.224,-0.939 3.059,-2.898 2.505,-5.878l-0.274,-0.949l-0.473,-0.723c-0.52,0.187 -1.093,0.701 -1.722,1.541c-0.426,0.485 -1.276,1.333 -2.548,2.546c-0.545,0.456 -0.981,1.025 -1.306,1.703c-0.374,0.406 -0.46,0.916 -0.257,1.531Zm11.867,-18.83c0.517,0.425 0.717,1.041 0.6,1.846c0.05,0.97 -1.419,2.551 -4.409,4.744c-0.629,0.841 -0.739,1.446 -0.33,1.814l4.399,-2.985l0.312,0.19l0.075,0.278l-5.291,4.642c1.208,4.212 1.171,6.838 -0.109,7.879l-1.741,1.398l-2.405,1.009l-2.229,0.138l-0.993,-0.443l-0.81,-0.869l-0.354,-0.832c-0.154,-1.264 0.502,-2.668 1.97,-4.211c3.953,-3.167 5.791,-5.267 5.514,-6.295c-1.012,0.291 -1.639,0.4 -1.881,0.326c-0.243,-0.073 -0.306,-0.307 -0.189,-0.703c0.117,-0.393 1.328,-1.253 3.635,-2.578l2.515,-1.976c1.54,-2.013 1.363,-2.851 -0.529,-2.518c-1.893,0.332 -2.86,0.997 -2.901,1.993c-0.54,0.155 -0.903,0.017 -1.087,-0.416c-0.185,-0.432 -0.066,-0.865 0.357,-1.299c0.422,-0.431 1.312,-0.887 2.669,-1.366c1.625,-0.267 2.696,-0.19 3.212,0.234Z"/><path id="path3761" d="M160.416,198.483c-0.962,2.48 -1.204,3.848 -0.726,4.106c0.477,0.26 1.553,-0.579 3.225,-2.515c1.672,-1.935 2.582,-3.836 2.732,-5.7c0.328,-1.341 -0.168,-1.722 -1.488,-1.147c-1.533,1.024 -2.782,2.777 -3.743,5.256Zm3.941,-6.706c0.979,-0.596 1.95,-0.358 2.913,0.712c0.093,0.937 -0.075,1.869 -0.504,2.795l0.275,-0.134c0.791,-1.541 1.446,-2.024 1.964,-1.454c-1.776,2.524 -2.566,4.179 -2.371,4.967c0.196,0.787 0.678,0.814 1.448,0.081l3.323,-3.647c0.455,-0.076 0.652,0.108 0.592,0.547c-1.829,2.549 -3.348,4.117 -4.556,4.706c-1.183,0.416 -1.734,-0.284 -1.655,-2.101c-2.769,3.286 -4.693,5.191 -5.773,5.716c-0.87,0.091 -1.461,-0.45 -1.771,-1.627c0.59,-5.264 2.628,-8.785 6.115,-10.561Z"/><path id="path3763" d="M193.486,184.502c-1.266,2.364 -4.176,3.273 -6.5,2.028c-2.325,-1.244 -3.182,-4.17 -1.916,-6.535c1.266,-2.364 4.176,-3.273 6.501,-2.028c2.324,1.244 3.181,4.17 1.915,6.535Z"/><path id="path3765" d="M173.696,170.002l-0.396,-0.294l6.053,-12.531l-5.657,12.825Z"/><path id="path3767" d="M136.063,158.012c-1.747,-0.949 -3.479,-1.863 -5.197,-2.736c-1.722,-0.886 -3.432,-1.73 -5.157,-2.546c-1.249,-0.585 -2.499,-1.17 -3.772,-1.733c0.343,-0.641 0.691,-1.291 1.029,-1.947c0.614,-1.166 1.212,-2.351 1.812,-3.537c0.586,-1.18 1.185,-2.366 1.748,-3.571c0.286,-0.6 0.572,-1.199 0.849,-1.805c0.161,-0.344 0.312,-0.693 0.464,-1.043l18.202,12.592c-0.729,1.427 -1.453,2.844 -2.168,4.29c-0.821,1.642 -1.627,3.302 -2.44,4.994c-1.828,-1.039 -3.613,-2.006 -5.37,-2.959l0,0.001Zm-8.918,-19.397l0.419,-0.122c-0.028,0.117 -0.065,0.229 -0.11,0.336l-0.309,-0.214Zm46.151,31.096l-22.1,-16.483l13.139,-27.742l15.015,31.687l-14.132,-34.191l-3.993,-0.99l-1.862,4.047l-0.236,-0.305l-11.576,25.087l-0.127,-0.092l-8.352,-5.775l-11.072,-7.65l-0.06,-0.043l-0.499,-0.339l-0.485,0.685c-0.372,0.542 -0.749,1.093 -1.117,1.649c-0.364,0.547 -0.732,1.102 -1.09,1.663c-0.241,0.362 -0.467,0.719 -0.699,1.085c-0.076,0.162 -0.155,0.311 -0.24,0.469c-0.551,0.984 -1.142,1.935 -1.806,2.823c-0.478,0.783 -0.952,1.582 -1.427,2.38c-0.667,1.137 -1.34,2.283 -1.998,3.425l-1.791,1.109l0.567,0.256l1.808,0.836c1.89,0.881 3.795,1.734 5.701,2.563c1.911,0.82 3.841,1.626 5.749,2.385c1.917,0.763 3.817,1.494 5.7,2.191c1.809,0.658 3.595,1.316 5.338,1.901c0.048,-0.44 0.163,-0.94 0.368,-1.499l0.513,0.227l0.045,0.024c0.731,-1.319 1.456,-2.652 2.187,-3.994c0.736,-1.351 1.47,-2.727 2.18,-4.092l4.25,2.705l1.619,1.035c0.121,0.017 0.246,0.047 0.369,0.101c0.252,0.123 0.427,0.301 0.56,0.491l1.988,1.268c0.075,-0.032 0.169,-0.053 0.254,-0.079c0.355,-0.072 0.779,-0.073 1.168,0.1c0.389,0.195 0.652,0.516 0.822,0.834c0.126,0.247 0.201,0.503 0.249,0.743l0.559,0.359l0.181,-0.381l7.1,4.71l-0.116,0.237l0.01,0.006l1.092,0.703l0.008,0.005c0.159,-0.011 0.325,0.006 0.509,0.082c0.292,0.156 0.456,0.376 0.561,0.598l1.901,1.21l0.01,0.005c0.065,0.011 0.142,0.04 0.211,0.065c0.156,0.083 0.278,0.184 0.366,0.304l0.009,0.005l2.634,1.685l0.038,-0.088Z"/><path id="path3769" d="M159.363,126.039l-0.236,-0.305l1.766,-3.824l0.332,0.082l-1.862,4.047Z"/><path id="path3771" d="M147.621,151.719c-0.094,0.177 -0.184,0.368 -0.288,0.539l-0.371,-0.162l0.589,-1.275l0.395,0.272l-0.325,0.626Z"/><path id="path3773" d="M153.742,157.339l-0.929,-0.592c0.121,0.017 0.245,0.047 0.368,0.102c0.253,0.122 0.428,0.3 0.561,0.49Z"/><path id="path3775" d="M158.223,160.206l-2.494,-1.599c0.076,-0.031 0.17,-0.053 0.255,-0.079c0.355,-0.072 0.779,-0.073 1.168,0.1c0.389,0.195 0.652,0.516 0.822,0.834c0.126,0.247 0.201,0.503 0.249,0.744Z"/><path id="path3777" d="M165.948,165.131l-7.166,-4.566l0.181,-0.381l7.101,4.71l-0.116,0.237Z"/><path id="path3779" d="M168.127,166.525l-1.069,-0.68c0.158,-0.011 0.325,0.006 0.509,0.082c0.292,0.156 0.456,0.375 0.56,0.598Z"/><path id="path3781" d="M170.616,168.109l-0.578,-0.369c0.065,0.01 0.143,0.04 0.212,0.065c0.156,0.083 0.278,0.184 0.366,0.304Z"/><path id="path3783" d="M151.282,165.861l-0.334,0.228c-0.03,0.187 -0.045,0.37 -0.052,0.558c0.169,-0.16 0.323,-0.341 0.465,-0.516l0.01,-0.019l-0.089,-0.251Zm1.267,-4.21c-0.246,0.394 -0.451,0.798 -0.651,1.216c-0.187,0.415 -0.36,0.849 -0.491,1.292c0.241,-0.385 0.46,-0.794 0.66,-1.212c0.182,-0.429 0.35,-0.853 0.482,-1.297l0,0.001Zm5.425,-2.189c-0.17,-0.318 -0.433,-0.638 -0.822,-0.834c-0.389,-0.173 -0.813,-0.172 -1.168,-0.1c-0.085,0.026 -0.179,0.048 -0.255,0.079l2.494,1.599c-0.048,-0.241 -0.123,-0.497 -0.249,-0.744Zm-0.775,5.838c0.472,-0.991 0.842,-2.035 1.016,-3.15c0.025,-0.154 0.043,-0.3 0.049,-0.464l-2.803,6.09l0.197,0.093c0.637,-0.795 1.128,-1.667 1.541,-2.57l0,0.001Z"/><path id="path3785" d="M154.589,167.321c-0.328,0.35 -0.689,0.672 -1.054,0.894c-0.38,0.228 -0.741,0.285 -0.891,0.193c-0.16,-0.073 -0.336,-0.383 -0.39,-0.807c-0.06,-0.414 -0.039,-0.893 0.033,-1.357c0.145,-0.95 0.466,-1.902 0.883,-2.791c0.422,-0.897 0.922,-1.765 1.557,-2.49c0.31,-0.36 0.661,-0.686 1.012,-0.904c0.362,-0.237 0.704,-0.304 0.865,-0.231c0.155,0.06 0.354,0.369 0.418,0.799c0.083,0.414 0.071,0.898 0.017,1.372c-0.117,0.965 -0.421,1.926 -0.82,2.848c-0.436,0.902 -0.978,1.76 -1.63,2.474Zm-3.228,-1.19c-0.142,0.175 -0.296,0.355 -0.465,0.516c0.007,-0.187 0.022,-0.371 0.052,-0.558l0.334,-0.228l0.089,0.251l-0.01,0.019Zm-0.863,-0.714c-0.311,0.36 -0.653,0.692 -1.006,0.933c-0.348,0.256 -0.737,0.346 -0.828,0.274c-0.096,-0.039 -0.265,-0.382 -0.297,-0.805c-0.032,-0.424 0.022,-0.897 0.104,-1.355c0.171,-0.937 0.506,-1.869 0.918,-2.748c0.417,-0.889 0.898,-1.743 1.505,-2.482c0.292,-0.369 0.616,-0.71 0.959,-0.957c0.34,-0.261 0.719,-0.356 0.806,-0.298c0.105,0.022 0.299,0.364 0.325,0.797c0.046,0.418 0.01,0.902 -0.062,1.365c-0.076,0.497 -0.197,1.005 -0.363,1.491c0.005,0.015 -0.01,0.019 -0.01,0.019c-0.131,0.443 -0.299,0.867 -0.482,1.296c-0.2,0.418 -0.419,0.827 -0.66,1.212c-0.281,0.436 -0.579,0.861 -0.909,1.258Zm4.963,2.359l2.803,-6.09c0.056,-0.412 0.061,-0.839 -0.006,-1.282c-0.012,-0.067 -0.024,-0.133 -0.036,-0.198l-2.493,-1.599c-0.239,0.075 -0.461,0.183 -0.666,0.302c-0.346,0.208 -0.652,0.45 -0.922,0.713c0.039,-0.314 0.045,-0.634 0.024,-0.968c-0.035,-0.306 -0.062,-0.607 -0.204,-0.934c-0.051,-0.123 -0.121,-0.256 -0.22,-0.381l-0.928,-0.592c-0.3,-0.053 -0.58,-0.012 -0.816,0.053c-0.338,0.106 -0.605,0.274 -0.856,0.438c-0.448,0.311 -0.81,0.678 -1.139,1.052l-0.006,0.01l-2.184,4.759l-0.171,0.363l-0.224,-0.107l-2.747,-1.256l-0.018,-0.009l-2.074,-0.955c-0.248,0.44 -0.487,0.886 -0.729,1.318c-0.07,-0.024 -0.129,-0.045 -0.198,-0.07c-0.283,2.395 1.434,3.159 3.006,2.614c0,0 2.525,4.831 5.366,2.969c0,0 0.042,0.536 0.711,1.086c0.362,0.289 0.877,0.446 1.261,0.52l0.101,0.054c0.398,0.177 0.812,0.171 1.164,0.085c0.338,-0.083 0.641,-0.231 0.893,-0.395c0.527,-0.327 0.937,-0.741 1.306,-1.165c0.067,-0.083 0.13,-0.157 0.199,-0.241l-0.197,-0.094Z"/><path id="path3787" d="M168.482,173.673c-0.221,0.24 -0.458,0.46 -0.705,0.615c-0.247,0.154 -0.495,0.201 -0.59,0.138c-0.088,-0.034 -0.205,-0.254 -0.242,-0.536c-0.037,-0.283 -0.016,-0.607 0.037,-0.925c0.106,-0.637 0.332,-1.281 0.61,-1.885c0.286,-0.6 0.621,-1.185 1.04,-1.679c0.213,-0.244 0.439,-0.47 0.678,-0.629c0.243,-0.169 0.482,-0.221 0.573,-0.172c0.092,0.026 0.219,0.25 0.265,0.537c0.046,0.287 0.034,0.617 -0.009,0.939c-0.088,0.647 -0.297,1.3 -0.565,1.91c-0.296,0.618 -0.66,1.188 -1.092,1.687Zm1.751,-1.383c0.306,-0.66 0.564,-1.359 0.692,-2.103c0.06,-0.374 0.092,-0.764 0.041,-1.173c-0.042,-0.274 -0.104,-0.618 -0.341,-0.901l-0.009,-0.004c-0.088,-0.12 -0.21,-0.221 -0.366,-0.304c-0.069,-0.024 -0.146,-0.054 -0.211,-0.065l-0.01,-0.005c-0.484,-0.104 -0.892,0.108 -1.186,0.285c-0.266,0.168 -0.473,0.357 -0.675,0.559c-0.073,0.069 -0.15,0.147 -0.213,0.221c-0.499,0.581 -0.898,1.217 -1.214,1.896c-0.249,0.572 -0.45,1.146 -0.565,1.778l-0.005,0.01c-0.037,0.112 -0.055,0.234 -0.073,0.355c0.004,0.013 -0.007,0.033 -0.002,0.047c-0.054,0.366 -0.076,0.736 -0.021,1.136c0.062,0.369 0.188,0.878 0.68,1.166l0.064,0.034c0.583,0.228 1.061,-0.029 1.395,-0.234c0.338,-0.237 0.613,-0.509 0.85,-0.799c0.491,-0.587 0.858,-1.227 1.169,-1.898l0,-0.001Z"/><path id="path3789" d="M167.433,170.696c0.317,-0.679 0.583,-1.374 0.734,-2.117c0.007,-0.032 0.017,-0.075 0.023,-0.108c0.078,-0.388 0.129,-0.791 0.094,-1.229c-0.025,-0.217 -0.045,-0.465 -0.157,-0.717c-0.104,-0.223 -0.268,-0.442 -0.56,-0.598c-0.184,-0.076 -0.351,-0.093 -0.509,-0.082l-0.008,-0.005c-0.405,0.011 -0.72,0.225 -0.967,0.38c-0.358,0.25 -0.642,0.54 -0.904,0.854c-0.108,0.134 -0.214,0.268 -0.312,0.407c-0.376,0.504 -0.687,1.042 -0.939,1.601c-0.257,0.567 -0.464,1.15 -0.611,1.753c-0.042,0.169 -0.072,0.332 -0.105,0.506c-0.012,0.042 -0.008,0.08 -0.019,0.121l0.4,0.812c0,0 0.279,0.269 0.546,0.603c-0.038,-0.104 -0.07,-0.241 -0.084,-0.391c-0.021,-0.31 0.009,-0.653 0.072,-0.99c0.131,-0.683 0.378,-1.363 0.675,-2.006c0.31,-0.647 0.658,-1.273 1.1,-1.814c0.214,-0.267 0.456,-0.521 0.703,-0.699c0.244,-0.192 0.521,-0.27 0.58,-0.227c0.074,0.015 0.219,0.272 0.24,0.583c0.031,0.315 0.01,0.662 -0.044,1.004c-0.112,0.693 -0.341,1.384 -0.624,2.045c-0.316,0.656 -0.69,1.268 -1.147,1.812c-0.223,0.264 -0.474,0.512 -0.731,0.685c-0.238,0.16 -0.501,0.233 -0.579,0.204c0.252,0.362 0.425,0.742 0.15,0.882c0.34,-0.022 0.616,-0.185 0.84,-0.34c0.029,-0.009 0.052,-0.032 0.071,-0.045c0.286,-0.206 0.518,-0.44 0.736,-0.694c0.043,-0.061 0.097,-0.116 0.141,-0.176c0.01,-0.018 0.033,-0.042 0.043,-0.06c0.478,-0.605 0.845,-1.27 1.152,-1.954Z"/><path id="path3791" d="M151.282,165.861l-0.334,0.228c-0.03,0.187 -0.045,0.37 -0.052,0.558c0.169,-0.16 0.323,-0.341 0.465,-0.516l0.01,-0.019l-0.089,-0.251Zm1.899,-9.012c-0.122,-0.055 -0.247,-0.085 -0.368,-0.102l0.929,0.592c-0.133,-0.19 -0.309,-0.367 -0.561,-0.49Zm-5.369,6.21l2.185,-4.76c-0.03,0.032 -0.064,0.074 -0.092,0.106c-0.704,0.854 -1.271,1.783 -1.719,2.75c-0.258,0.592 -0.484,1.188 -0.663,1.809c-0.038,0.112 -0.078,0.233 -0.106,0.35l0.224,0.108l0.171,-0.363Z"/><path id="path3793" d="M159.15,160.872l-3.073,6.673l6.808,3.12l2.584,-5.599l-6.319,-4.194Zm-4.304,7.133l3.931,-8.509l7.881,5.229l-1.372,2.95l-1.951,4.232l-8.489,-3.902Z"/><path id="path3795" d="M142.578,161.094c-0.248,0.44 -0.487,0.887 -0.729,1.319c-0.07,-0.025 -0.128,-0.045 -0.197,-0.071c0.048,-0.44 0.162,-0.941 0.368,-1.5l0.513,0.228l0.045,0.024Z"/><path id="path3797" d="M147.641,163.422l-0.224,-0.107l-2.747,-1.257l2.853,0.906l0.289,0.095l-0.171,0.363Z"/><path id="path3799" d="M151.371,166.112l-0.01,0.019c-0.142,0.175 -0.296,0.355 -0.465,0.516c0.007,-0.187 0.022,-0.371 0.052,-0.558l0.334,-0.228l0.089,0.251Z"/><path id="path3801" d="M124.051,142.003c-0.473,0.752 -0.951,1.512 -1.419,2.277c-0.208,0.344 -0.42,0.672 -0.627,1.016c0.664,-0.888 1.255,-1.839 1.806,-2.823c0.084,-0.158 0.164,-0.307 0.24,-0.47Zm18.482,19.067l-0.513,-0.228c-0.206,0.559 -0.32,1.06 -0.368,1.5c0.068,0.026 0.128,0.046 0.197,0.071c0.242,-0.432 0.481,-0.878 0.729,-1.319l-0.045,-0.024Z"/><path id="path3803" d="M127.564,138.493l-0.419,0.122l0.309,0.214c0.045,-0.108 0.082,-0.219 0.11,-0.336Zm-20.957,7.452c-0.005,0.01 -0.002,0.023 -0.002,0.047c0.028,0.014 0.04,0.034 0.068,0.049l0.01,-0.019l-0.076,-0.077Z"/><path id="path3805" d="M106.684,146.022l-0.01,0.018c-0.028,-0.015 -0.041,-0.034 -0.068,-0.049c0.001,-0.023 -0.004,-0.037 0.001,-0.047l0.077,0.078Z"/><path id="path3807" d="M106.674,146.04c-0.028,-0.015 -0.041,-0.034 -0.068,-0.049c0.001,-0.023 -0.004,-0.037 0.001,-0.047l0.077,0.077l-0.01,0.019Zm22.023,-14.974c-0.073,-1.115 -0.285,-2.256 -0.776,-3.356c-0.493,-1.077 -1.321,-2.166 -2.48,-2.786c-1.149,-0.663 -2.52,-0.824 -3.722,-0.642c-1.214,0.162 -2.317,0.576 -3.344,1.089c-1.271,0.684 -2.406,1.51 -3.447,2.423l-6.176,-3.475l-0.32,-0.171l-0.228,-0.014l-16.227,-0.763l-2.446,-2.541l-2.155,-2.23l4.058,5.52l0.089,0.12l0.204,0.037l15.822,2.375l5.037,3.606c-0.806,0.979 -1.526,2.016 -2.182,3.088l-5.976,-3.343l-0.177,-0.108l-0.074,-0.017l-14.522,-4.212l0.1,0.077l-0.141,-0.088l0.042,0.009l-4.922,-3.818l4.416,4.588l0.049,0.039l0.106,0.044l13.809,5.72l-0.069,-0.047l0.261,0.126l-0.192,-0.078l5.708,4.084c-0.688,1.485 -1.25,3.037 -1.626,4.641c-0.163,0.653 -0.293,1.313 -0.386,1.993c-4.306,-2.844 -8.662,-5.571 -13.115,-8.158c-2.467,-1.428 -4.972,-2.806 -7.537,-4.072c-1.28,-0.637 -2.58,-1.238 -3.905,-1.768c-1.331,-0.522 -2.686,-1.02 -4.107,-1.219c1.168,0.255 2.273,0.715 3.344,1.217c-0.634,2.984 0.706,6.032 3.411,7.277c2.294,1.049 4.945,0.509 6.826,-1.162c0.428,0.276 0.836,0.567 1.259,0.853c3.674,2.529 7.271,5.16 10.799,7.875c-0.094,4.827 3.346,8.342 6.34,9.443c0.013,0.02 0.04,0.035 0.064,0.035c0.101,0.053 0.196,0.094 0.302,0.137c1.14,0.527 2.455,0.573 3.578,0.362c1.147,-0.211 2.172,-0.678 3.112,-1.203c0.056,-0.041 0.118,-0.068 0.175,-0.109l-0.567,-0.256l1.792,-1.109c0.658,-1.141 1.33,-2.288 1.998,-3.424c0.474,-0.799 0.948,-1.597 1.427,-2.38c-0.469,0.657 -0.966,1.276 -1.502,1.862c-1.276,1.396 -2.739,2.657 -4.349,3.469c-1.577,0.817 -3.361,1.165 -4.598,0.49c-1.207,-0.598 -1.877,-2.177 -2.008,-3.885l-0.009,-0.028l-0.73,-1.072c0.307,0.153 0.601,0.525 0.691,0.86l0.037,0.152c-0.13,-1.756 0.145,-3.629 0.636,-5.447c0.51,-1.83 1.22,-3.638 2.139,-5.333c1.793,-3.391 4.298,-6.557 7.397,-8.46c1.529,-0.88 3.271,-1.369 4.527,-0.709c1.287,0.581 2.06,2.275 2.257,4.102c0.224,1.841 -0.016,3.804 -0.51,5.692c-0.438,1.738 -1.11,3.411 -1.933,5.014c0.232,-0.366 0.458,-0.723 0.699,-1.085c0.358,-0.561 0.726,-1.116 1.09,-1.663c0.368,-0.556 0.745,-1.107 1.117,-1.649l0.485,-0.685l0.5,0.339c0.552,-1.976 0.876,-4.05 0.756,-6.194l-0.001,0.001Z"/><path id="path3809" d="M89.754,125.744l-0.14,-0.089l0.042,0.01l0.098,0.079Z"/><path id="path3811" d="M103.306,132.318l-0.193,-0.079l-0.068,-0.048l0.261,0.127Z"/><path id="path3813" d="M174.53,153.647c-1.624,-0.654 -3.218,-1.627 -4.308,-3.167c-1.086,-1.526 -1.544,-3.373 -2.22,-4.919c-0.643,-1.563 -1.605,-2.795 -2.859,-3.743c-1.222,-0.965 -2.783,-1.561 -4.302,-2.147l1.334,-3.064c1.638,0.937 3.293,1.883 4.642,3.334c1.374,1.406 2.338,3.249 2.754,5.061c0.453,1.809 0.612,3.532 1.363,5.046c0.743,1.51 2.083,2.693 3.596,3.599Z"/><path id="path3815" d="M167.269,149.257c-0.806,-0.36 -1.438,-1.045 -2.006,-1.695c-0.577,-0.656 -1.135,-1.302 -1.758,-1.874c-0.607,-0.577 -1.27,-1.051 -1.977,-1.442c-0.712,-0.381 -1.475,-0.646 -2.245,-0.855l0.644,-1.795c0.851,0.408 1.667,0.881 2.391,1.46c0.719,0.588 1.356,1.264 1.898,1.984c0.537,0.73 0.985,1.496 1.425,2.234c0.443,0.751 0.901,1.475 1.628,1.983Z"/><path id="path3817" d="M116.155,109.682c-0.447,0.789 -0.935,1.329 -1.439,1.896c-2.015,2.184 -4.223,4.027 -6.468,5.849c-2.244,1.799 -4.56,3.512 -6.945,5.116l-0.006,0.01l-0.138,0.105l-0.135,-0.012l-6.571,-0.434l0.007,-0.188l6.409,-0.274l-0.096,0.092l0.273,-0.093l-0.177,0.001l6.339,-5.585c2.131,-1.895 4.285,-3.789 6.188,-5.807c0.455,-0.498 0.925,-1.047 1.183,-1.507c0.024,-0.046 0.046,-0.106 0.066,-0.144l-0.006,-0.014c-0.012,-0.019 -0.016,-0.033 -0.025,-0.061c-0.074,-0.147 -0.211,-0.352 -0.437,-0.545c-0.875,-0.756 -2.171,-1.343 -3.433,-1.838c-0.78,-0.299 -1.58,-0.584 -2.384,-0.858l0.26,-0.268l-0.951,-0.856l-0.592,0.711c-1.43,-0.467 -2.89,-0.901 -4.343,-1.369l0.039,-0.182c2.844,0.196 5.677,0.589 8.462,1.399c1.385,0.443 2.783,0.881 4.095,1.942c0.321,0.255 0.648,0.61 0.888,1.085c0.065,0.118 0.112,0.251 0.153,0.393c0.016,0.08 0.042,0.118 0.058,0.245c0.018,0.118 0.013,0.259 0.001,0.348c-0.051,0.403 -0.17,0.626 -0.276,0.844l0.001,-0.001Z"/><path id="path3819" d="M107.669,104.266l0.952,0.856l-0.26,0.267c-0.428,-0.145 -0.851,-0.276 -1.284,-0.412l0.592,-0.711Z"/><path id="path3821" d="M101.047,121.748l-0.273,0.093l0.096,-0.092l0.177,-0.001Z"/><path id="path3823" d="M129.304,127.124c-0.626,-1.005 -1.27,-1.996 -1.934,-2.949c-0.063,-0.081 -0.125,-0.163 -0.182,-0.253c-0.75,-1.035 -1.559,-2.005 -2.458,-2.87c-1.749,-1.737 -3.905,-2.999 -6.266,-3.308c-1.166,-0.17 -2.383,-0.068 -3.573,0.156c-1.189,0.248 -2.336,0.721 -3.509,1.265c-2.346,1.111 -4.835,2.097 -7.397,2.579c2.401,-1.081 4.63,-2.304 6.876,-3.647c1.126,-0.652 2.375,-1.275 3.713,-1.622c1.323,-0.344 2.728,-0.464 4.117,-0.295c1.422,0.152 2.753,0.651 3.947,1.361l1.097,-2.377l1.085,0.496l-1.177,2.551c0.307,0.236 1.529,0.974 1.813,1.233l1.303,-2.828l1.093,0.501l-1.498,3.238c-0.006,0.153 0.002,-0.003 0,0c0.002,-0.003 0.031,0.195 0.033,0.411c0.214,0.281 0.301,0.688 0.506,0.966c0.052,0.1 0.118,0.195 0.174,0.285c0.189,0.328 0.383,0.646 0.553,0.965l2.295,-4.987l1.094,0.502l-2.702,5.858c0.396,0.905 0.722,1.832 0.997,2.769Z"/><path id="path3825" d="M119.273,120.031c-2.573,0.679 -5.493,3.455 -5.493,3.455l-3.219,-1.426l0.489,-0.562c2.747,-2.761 7.914,-1.549 8.223,-1.467Z"/><path id="path3827" d="M127.37,124.175l-0.182,-0.253c0.057,0.09 0.119,0.172 0.182,0.253Z"/><path id="path3829" d="M142.634,154.666l-15.599,-9.228l1.002,-1.7l15.599,9.227l-1.002,1.701Z"/><path id="path3831" d="M86.961,128.764l-3.106,-2.621l0.972,-1.169l2.933,2.476l6.753,2.813l-0.59,1.402l-6.962,-2.901Z"/><path id="path3833" d="M89.396,120.995l9.206,-11.524l-9.206,11.524Z"/><path id="path3835" d="M89.033,120.701l9.569,-11.23l-8.843,11.818l-0.726,-0.588Z"/><path id="path3837" d="M95.664,113.311c-0.677,-0.656 -1.557,-0.973 -2.553,-0.702c-0.989,0.257 -1.925,0.93 -2.779,1.643c0.683,-0.887 1.429,-1.775 2.512,-2.356c0.539,-0.284 1.186,-0.458 1.85,-0.422c0.666,0.03 1.299,0.269 1.852,0.578l-0.882,1.259Z"/><path id="path3839" d="M108.621,105.122l-0.26,0.267l-13.554,14.297l12.27,-14.709l0.592,-0.711l0.952,0.856Z"/><path id="path3841" d="M153.087,108.269c-0.283,-0.151 -0.591,-0.259 -0.915,-0.317l-17.048,-3.14c-0.592,-0.116 -1.236,-0.087 -1.865,0.08l-6.63,1.797l21.56,6.063c1.303,0.36 2.441,1.134 3.289,2.237l1.991,2.596c0.347,-0.725 0.888,-1.883 1.364,-2.899c0.435,-0.928 0.814,-1.737 0.94,-1.998l0.377,-0.754l-2.009,-2.74c-0.282,-0.391 -0.642,-0.704 -1.054,-0.925Zm2.331,11.853l3.846,5.013l2.54,-5.507l-3.616,-4.921c-0.23,0.45 -0.541,1.055 -0.875,1.706c-0.726,1.416 -1.567,3.054 -1.895,3.709Zm4.043,6.821l-8.727,-11.367c-0.725,-0.94 -1.696,-1.599 -2.807,-1.911l-24.869,-6.984l9.973,-2.704c0.766,-0.205 1.554,-0.237 2.278,-0.095l17.043,3.137c1.029,0.187 1.935,0.755 2.547,1.608l2.348,3.201l-0.636,1.272c-0.121,0.251 -0.498,1.058 -0.931,1.981c-0.555,1.185 -1.201,2.563 -1.52,3.229l0.674,0.895c0.408,-0.803 1.065,-2.082 1.648,-3.218c0.563,-1.099 1.058,-2.062 1.19,-2.326l0.345,-0.691l0.481,0.558l4.392,5.979l-3.429,7.436Z"/><path id="path3843" d="M146.337,113.054l-7.093,6.828c-0.136,-0.121 -0.266,-0.25 -0.373,-0.38l-0.01,-0.005c-2.118,-1.792 -4.261,-3.584 -6.472,-5.246c-2.348,-1.759 -4.759,-3.445 -7.298,-4.912c-2.525,-1.472 -5.194,-2.721 -7.962,-3.761c-2.758,-1.059 -5.571,-1.991 -8.344,-3.022c2.84,0.839 5.711,1.576 8.546,2.448c2.848,0.868 6.144,1.011 8.828,2.341c0.287,0.143 0.834,-0.177 1.112,-0.017c1.211,0.242 2.16,0.993 3.369,1.281c1.498,0.36 3.006,0.749 4.503,1.156c1.498,0.407 2.994,0.838 4.484,1.302c1.496,0.454 5.216,1.462 6.709,1.987l0.001,0Z"/><path id="path3845" d="M145.397,127.086l-5.485,-4.503l7.004,-7.595l2.516,2.566l-4.035,9.532Z"/><path id="path3847" d="M106.684,146.022l-0.01,0.018c-0.028,-0.015 -0.041,-0.034 -0.068,-0.049c0.001,-0.023 -0.004,-0.037 0.001,-0.047l0.077,0.078Z"/><path id="path3849" d="M138.425,145.233l11.735,-25.424l0.23,-0.052c0.078,-0.017 1.94,-0.424 3.093,0.848l0.211,0.231l-3.817,8.269l-0.343,-0.045c0,0 -0.891,-0.114 -1.422,-0.223l0.198,-0.928c0.3,0.061 0.721,0.124 1.014,0.165l3.242,-7.026c-0.596,-0.452 -1.386,-0.442 -1.764,-0.4l-11.528,24.975l-0.849,-0.39Z"/><path id="path3851" d="M139.803,121.34c0,0 -2.063,-2.204 -4.858,-2.23l-4.889,10.58c0,0 2.046,2.279 4.857,2.23c0,0 5.013,-9.976 4.89,-10.58Z"/><path id="path3853" d="M104.33,113.5l-1.157,-0.531l1.446,-2.366l1.157,0.531l-1.446,2.366Z"/><path id="path3855" d="M101.124,117.117l-1.158,-0.531l1.446,-2.366l1.158,0.531l-1.446,2.366Z"/><path id="path3857" d="M97.216,119.573l0.971,-1.587l1.158,0.531l-2.129,1.056Z"/><path id="path3859" d="M105.988,114.261l-1.157,-0.531l1.446,-2.366l1.158,0.531l-1.447,2.366Z"/><path id="path3861" d="M100.629,111.801l-0.811,-0.372l1.359,-2.406l0.81,0.372l-1.358,2.406Z"/><path id="path3863" d="M97.949,113.933l0.702,-1.427l0.81,0.372l-1.512,1.055Z"/><path id="path3865" d="M110.737,111.12l-3.967,-1.717l1.64,-2.296l3.967,1.719l-1.64,2.294Z"/><path id="path3867" d="M123.485,130.638c-0.02,-0.011 -0.039,-0.02 -0.058,-0.029c-1.539,-0.706 -4.905,2.26 -7.461,7.802c-2.559,5.541 -2.631,9.987 -1.09,10.725c1.539,0.707 4.904,-2.26 7.461,-7.801c2.525,-5.471 2.626,-9.905 1.148,-10.697Zm-9.025,19.141c-2.061,-1.103 -1.711,-6.183 0.826,-11.681c2.576,-5.58 6.291,-9.174 8.459,-8.18c2.182,1.002 1.847,6.148 -0.728,11.73c-2.577,5.58 -6.292,9.173 -8.46,8.179c-0.032,-0.015 -0.065,-0.03 -0.097,-0.047l0,-0.001Z"/><path id="path3869" d="M121.782,141.38c-0.532,1.152 -1.331,1.917 -1.785,1.708c-0.454,-0.208 -0.391,-1.311 0.14,-2.463c0.532,-1.152 1.331,-1.916 1.785,-1.708c0.455,0.208 0.392,1.311 -0.14,2.463Z"/><path id="path3871" d="M122.135,137.388c0.212,-1.455 0.284,-2.951 0.088,-4.323l1.137,-0.036c-0.186,1.562 -0.65,2.988 -1.225,4.359Z"/><path id="path3873" d="M120.662,138.623c-0.103,-0.661 -0.36,-1.279 -0.677,-1.826c-0.322,-0.542 -0.753,-0.996 -1.227,-1.228l0.664,-0.921c0.586,0.557 0.901,1.249 1.081,1.926c0.17,0.683 0.242,1.376 0.159,2.049Z"/><path id="path3875" d="M116.164,140.102c0.382,0.273 0.792,0.511 1.234,0.702c0.443,0.183 0.917,0.334 1.427,0.338c-0.465,0.235 -1.004,0.336 -1.541,0.382c-0.54,0.041 -1.092,0.018 -1.638,-0.056l0.518,-1.366Z"/><path id="path3877" d="M114.636,145.6c0.663,-0.205 1.317,-0.46 1.953,-0.773c0.631,-0.318 1.256,-0.682 1.802,-1.17c-0.351,0.651 -0.836,1.237 -1.354,1.787c-0.525,0.547 -1.1,1.055 -1.712,1.52l-0.689,-1.364Z"/><path id="path3879" d="M118.3,146.791c0.474,-0.772 0.868,-1.609 1.216,-2.46c-0.238,0.89 -0.521,1.77 -0.906,2.626l-0.31,-0.166Z"/><path id="path3881" d="M164.449,173.964c0,0 -0.004,0.009 -0.017,0.014c-0.071,0.022 -0.151,0.039 -0.258,0.042c-1.796,0.019 -2.684,-1.724 -2.684,-1.724c-0.579,0.204 -1.561,-0.047 -1.575,-2.063l3.196,1.054l0.082,0.175l0.4,0.812c0,0 0.279,0.269 0.546,0.603l0.005,0.016c0.038,0.103 0.096,0.171 0.123,0.186c0.01,0.005 0.008,0.004 0.024,-0.001l0.008,0.005c0.253,0.362 0.426,0.741 0.151,0.882l-0.001,-0.001Z"/><path id="path3883" d="M164.29,173.078c-0.014,0.005 -0.016,0.004 -0.024,0c-0.027,-0.015 -0.086,-0.082 -0.124,-0.186c0.049,0.062 0.099,0.124 0.148,0.186Z"/><path id="path3885" d="M165.242,173.527c0.54,1.366 1.585,1.689 1.585,1.689l-0.42,-1.65l-0.166,-1.177l-0.999,1.138Z"/><path id="path3887" d="M158.09,113.87c-0.32,0.641 -2.785,5.419 -3.18,6.223l-1.298,-1.723c0.391,-0.795 2.27,-4.833 2.582,-5.48c0.18,-0.357 0.345,-0.688 0.505,-1.009c2.459,-4.899 3.113,-5.924 5.32,-6.512c0.234,-0.065 0.816,-0.077 1.379,0.057l-1.938,4.103l-0.846,-0.417c-0.483,0.638 -1.204,2.093 -2.494,4.702l-0.03,0.056Z"/><path id="path3889" d="M127.459,104.808c-0.126,0.256 -0.424,0.814 -0.704,1.357l-1.911,0.519c0.276,-0.558 1.075,-2.114 1.29,-2.561c2.005,-4.031 2.432,-4.807 4.067,-5.247c0.169,-0.053 0.569,-0.053 0.965,0.039l-1.355,2.861l-0.594,-0.294c-0.337,0.453 -0.847,1.471 -1.758,3.326Z"/><path id="path3891" d="M126.211,107.248l-1.367,-0.564l1.911,-0.519c-0.174,0.349 -0.339,0.679 -0.468,0.921c-0.02,0.061 -0.05,0.117 -0.075,0.163l-0.001,-0.001Z"/><path id="path3893" d="M103.071,134.196c-0.28,-0.37 -0.704,-0.567 -1.156,-0.481c-0.737,0.141 -1.267,0.979 -1.185,1.871c0.075,0.808 0.629,1.383 1.28,1.378c-0.071,0.027 -0.141,0.046 -0.214,0.06c-0.88,0.168 -1.672,-0.559 -1.772,-1.624c-0.098,-1.064 0.535,-2.063 1.414,-2.231c0.704,-0.135 1.351,0.303 1.633,1.027Z"/><path id="path3895" d="M103.452,107.537l-1.789,-0.736l1.652,-2.262l1.789,0.737l-1.652,2.261Z"/></g></svg>