<?xml version="1.0" encoding="UTF-8" standalone="no"?><!DOCTYPE svg PUBLIC "-//W3C//DTD SVG 1.1//EN" "http://www.w3.org/Graphics/SVG/1.1/DTD/svg11.dtd"><svg width="100%" height="100%" viewBox="0 0 258 258" version="1.1" xmlns="http://www.w3.org/2000/svg" xmlns:xlink="http://www.w3.org/1999/xlink" xml:space="preserve" xmlns:serif="http://www.serif.com/" style="fill-rule:evenodd;clip-rule:evenodd;stroke-linejoin:round;stroke-miterlimit:1.41421;"><g><path d="M16.782,65.318c35.099,-61.887 113.84,-83.635 175.728,-48.536c61.887,35.099 83.635,113.84 48.536,175.728c-35.1,61.887 -113.841,83.635 -175.728,48.536c-61.887,-35.1 -83.635,-113.841 -48.536,-175.728Z" style="fill:#fff;"/><g id="Layer1000"><path id="path3713" d="M52.881,103.315c-1.266,2.365 -4.176,3.274 -6.501,2.029c-2.323,-1.244 -3.181,-4.171 -1.915,-6.535c1.266,-2.364 4.177,-3.273 6.501,-2.029c2.324,1.245 3.181,4.17 1.915,6.535Z"/><path id="path3715" d="M52.881,103.315c-1.266,2.365 -4.176,3.274 -6.501,2.029c-2.323,-1.244 -3.181,-4.171 -1.915,-6.535c1.266,-2.364 4.177,-3.273 6.501,-2.029c2.324,1.245 3.182,4.171 1.915,6.535Z"/><path id="path3717" d="M59.001,72.843l-3.885,5.673l15.126,10.443l-0.908,1.327l-16.332,-11.276l4.793,-7l1.206,0.833Z"/><path id="path3719" d="M70.665,65.629c-1.887,-1.8 -3.935,-1.522 -6.144,0.835l-1.421,1.514l5.67,5.41l1.5,-1.601c0.965,-1.029 1.486,-2.108 1.563,-3.237c0.077,-1.13 -0.312,-2.104 -1.168,-2.921Zm1.045,-1.078c1.211,1.155 1.782,2.459 1.714,3.91c-0.067,1.452 -0.76,2.88 -2.076,4.283l-1.536,1.639l6.618,6.315l-1.099,1.173l-14.372,-13.716l2.617,-2.791c2.829,-3.017 5.54,-3.288 8.134,-0.813Z"/><path id="path3721" d="M81.085,50.27l4.773,21.401l-1.359,1.04l-1.627,-7.351l-12.963,-6.548l1.386,-1.058l11.154,5.707l-2.723,-12.152l1.359,-1.039Z"/><path id="path3723" d="M100.857,55.829c0.795,1.597 0.886,3.199 0.274,4.807c-0.582,1.535 -1.627,2.693 -3.135,3.475c-1.231,0.638 -2.493,0.881 -3.785,0.725c-1.292,-0.154 -2.42,-0.69 -3.38,-1.609l0.952,-1.237c0.777,0.743 1.657,1.189 2.642,1.338c0.984,0.149 1.958,-0.026 2.92,-0.524c1.154,-0.599 1.936,-1.451 2.344,-2.555c0.435,-1.167 0.344,-2.372 -0.275,-3.613c-0.565,-1.134 -1.423,-1.871 -2.575,-2.21c-1.152,-0.339 -2.344,-0.189 -3.575,0.449l-1.742,0.904l-0.675,-1.354l1.72,-0.892c1.032,-0.534 1.743,-1.292 2.136,-2.272c0.393,-0.98 0.346,-1.96 -0.142,-2.94c-1.038,-2.082 -2.73,-2.514 -5.077,-1.297c-0.808,0.419 -1.427,1.048 -1.856,1.887c-0.43,0.839 -0.579,1.719 -0.449,2.641l-1.552,-0.141c-0.103,-1.159 0.129,-2.25 0.695,-3.272c0.581,-1.067 1.437,-1.895 2.569,-2.482c1.469,-0.762 2.843,-0.989 4.12,-0.681c1.315,0.328 2.32,1.189 3.015,2.585c0.922,1.851 0.725,3.584 -0.591,5.198c1.108,-0.186 2.149,-0.001 3.124,0.556c0.975,0.558 1.741,1.396 2.298,2.514Z"/><path id="path3725" d="M120.627,45.83c-0.535,-2.389 -1.817,-4.222 -3.845,-5.499c-2.029,-1.275 -4.234,-1.625 -6.617,-1.048c-2.383,0.577 -4.22,1.904 -5.51,3.983c-1.29,2.08 -1.668,4.314 -1.133,6.703c0.537,2.398 1.825,4.232 3.866,5.5c2.039,1.269 4.25,1.615 6.633,1.038c2.383,-0.577 4.214,-1.901 5.493,-3.973c1.278,-2.072 1.649,-4.306 1.113,-6.704Zm1.548,-0.375c0.618,2.761 0.16,5.368 -1.373,7.822c-1.534,2.454 -3.685,4.016 -6.455,4.686c-2.785,0.675 -5.389,0.264 -7.812,-1.233c-2.423,-1.496 -3.943,-3.625 -4.561,-6.386c-0.621,-2.769 -0.159,-5.384 1.381,-7.844c1.542,-2.46 3.701,-4.027 6.478,-4.699c2.769,-0.67 5.364,-0.252 7.784,1.254c2.42,1.506 3.939,3.639 4.558,6.4Z"/><path id="path3727" d="M136.433,50.197c0.066,-2.749 -1.706,-4.141 -5.318,-4.176l-3.005,-0.03l-0.197,8.193l3.483,0.035c1.479,0.014 2.681,-0.345 3.605,-1.077c0.926,-0.732 1.403,-1.714 1.432,-2.945Zm-1.598,-9.234c0.063,-2.596 -1.36,-3.909 -4.265,-3.937l-2.245,-0.022l-0.182,7.555l2.684,0.026c1.195,0.012 2.155,-0.306 2.88,-0.955c0.726,-0.649 1.101,-1.538 1.128,-2.667Zm3.186,9.191c-0.041,1.693 -0.671,3.044 -1.89,4.052c-1.22,1.009 -2.81,1.504 -4.771,1.484l-5.068,-0.05l0.481,-20.111l4.115,0.041c1.831,0.017 3.221,0.5 4.171,1.448c0.924,0.921 1.365,2.232 1.325,3.935c-0.046,1.883 -0.834,3.222 -2.367,4.016c1.214,0.28 2.193,0.907 2.935,1.878c0.742,0.971 1.099,2.074 1.069,3.307Z"/><path id="path3729" d="M159.906,50.471c0.642,-2.38 0.37,-4.617 -0.815,-6.714c-1.185,-2.096 -2.955,-3.452 -5.311,-4.067c-2.357,-0.616 -4.583,-0.303 -6.68,0.935c-2.098,1.24 -3.466,3.049 -4.108,5.428c-0.643,2.389 -0.366,4.631 0.832,6.725c1.199,2.096 2.976,3.451 5.332,4.067c2.357,0.615 4.576,0.305 6.66,-0.934c2.083,-1.238 3.446,-3.051 4.09,-5.44Zm1.531,0.4c-0.741,2.75 -2.354,4.853 -4.838,6.311c-2.484,1.457 -5.096,1.829 -7.834,1.113c-2.754,-0.719 -4.845,-2.318 -6.273,-4.797c-1.428,-2.48 -1.772,-5.095 -1.03,-7.844c0.743,-2.758 2.361,-4.868 4.855,-6.326c2.494,-1.461 5.114,-1.831 7.86,-1.114c2.738,0.715 4.818,2.316 6.239,4.803c1.422,2.486 1.761,5.104 1.021,7.854Z"/><path id="path3731" d="M184.663,46.547c-0.626,1.027 -1.517,1.688 -2.674,1.982c-1.156,0.295 -2.24,0.133 -3.249,-0.483c-1.008,-0.617 -1.653,-1.511 -1.932,-2.683c-0.28,-1.172 -0.108,-2.271 0.517,-3.299l1.207,0.737c-0.435,0.714 -0.565,1.468 -0.389,2.26c0.175,0.791 0.61,1.399 1.304,1.824c0.695,0.424 1.428,0.53 2.2,0.317c0.771,-0.214 1.374,-0.677 1.809,-1.392l1.207,0.737Zm-9.752,23.89l-1.348,-0.824l8.617,-14.164l-22.022,6.326l10.649,-17.504l1.349,0.825l-8.611,14.154l22.031,-6.342l-10.665,17.529Z"/><path id="path3733" d="M205.018,80.858c0.503,-2.52 -0.008,-4.809 -1.532,-6.867c-1.391,-1.881 -3.288,-2.982 -5.691,-3.308c-2.403,-0.325 -4.58,0.255 -6.53,1.738c-1.951,1.484 -3.106,3.443 -3.467,5.877c-0.36,2.434 0.157,4.594 1.553,6.48c1.447,1.955 3.448,3.089 6.004,3.401l-1.639,1.247c-2.296,-0.619 -4.057,-1.756 -5.285,-3.414c-1.805,-2.438 -2.523,-5.082 -2.156,-7.931c0.367,-2.849 1.716,-5.161 4.046,-6.934c2.289,-1.742 4.85,-2.401 7.685,-1.976c2.833,0.425 5.095,1.78 6.788,4.067c1.442,1.948 2.07,4.067 1.885,6.358l-1.661,1.262Z"/><path id="path3735" d="M197.228,101.964l-4.054,-8.982l18.146,-8.559l4.055,8.982l-1.34,0.633l-3.4,-7.533l-6.194,2.921l3.299,7.309l-1.351,0.637l-3.299,-7.308l-7.91,3.73l3.4,7.533l-1.352,0.637Z"/><path id="path3737" d="M214.273,108.874c2.53,-0.701 3.393,-2.604 2.59,-5.71l-0.516,-1.997l-7.604,2.107l0.546,2.111c0.351,1.356 0.982,2.357 1.894,3.001c0.91,0.644 1.941,0.808 3.09,0.488Zm0.349,1.452c-1.624,0.45 -3.03,0.274 -4.218,-0.527c-1.189,-0.8 -2.022,-2.126 -2.501,-3.976l-0.558,-2.16l-8.878,2.461l-0.399,-1.545l19.278,-5.344l0.952,3.679c1.028,3.977 -0.198,6.448 -3.676,7.412Z"/><path id="path3739" d="M216.035,123.102c2.565,-0.228 3.74,-1.805 3.526,-4.728l-0.166,-2.258l-7.462,0.666l0.198,2.699c0.088,1.201 0.481,2.131 1.182,2.787c0.699,0.656 1.607,0.934 2.722,0.834Zm-8.969,2.643c2.715,-0.243 3.94,-2.18 3.673,-5.814l-0.222,-3.023l-8.093,0.722l0.257,3.504c0.109,1.487 0.564,2.655 1.363,3.502c0.799,0.847 1.806,1.217 3.022,1.109Zm0.175,1.59c-1.671,0.149 -3.056,-0.332 -4.152,-1.445c-1.096,-1.113 -1.717,-2.655 -1.861,-4.627l-0.375,-5.099l19.866,-1.773l0.304,4.139c0.135,1.843 -0.225,3.294 -1.079,4.354c-0.831,1.032 -2.088,1.623 -3.769,1.773c-1.861,0.166 -3.246,-0.476 -4.155,-1.928c-0.177,1.252 -0.712,2.306 -1.607,3.161c-0.896,0.854 -1.954,1.336 -3.172,1.445Z"/><path id="path3741" d="M199.104,147.044l0.257,-1.585l16.144,2.435l-13.918,-18.042l19.951,3.009l-0.256,1.584l-16.134,-2.433l13.935,18.046l-19.979,-3.014Z"/><path id="path3743" d="M206.239,170.647c2.418,-0.817 4.156,-2.414 5.212,-4.787c0.965,-2.166 1.016,-4.389 0.156,-6.671c-0.861,-2.281 -2.396,-3.911 -4.606,-4.887c-2.21,-0.976 -4.453,-1.016 -6.729,-0.116c-2.276,0.899 -3.898,2.437 -4.865,4.611c-1.004,2.253 -1.034,4.585 -0.089,6.994l-1.857,-0.821c-0.557,-2.333 -0.409,-4.455 0.442,-6.366c1.251,-2.811 3.195,-4.768 5.833,-5.869c2.638,-1.102 5.278,-1.07 7.919,0.098c2.594,1.146 4.381,3.074 5.359,5.785c0.98,2.71 0.882,5.384 -0.291,8.018c-1,2.247 -2.534,3.86 -4.603,4.842l-1.881,-0.831Z"/><path id="path3745" d="M44.659,130.579c-1.831,0.779 -3.482,1.347 -4.954,1.705c-1.471,0.358 2.71,2.778 12.543,7.262l-0.293,-0.659l-3.917,-9.061c-0.422,-0.276 -1.548,-0.024 -3.379,0.754l0,-0.001Zm15.415,7.444c1.062,1.925 0.909,2.85 -0.46,2.774c-2.306,-2.341 -3.968,-3.619 -4.984,-3.833l-0.388,0.072l0.054,0.319c0.226,1.349 2.707,4.846 7.445,10.493c0.491,0.762 0.282,1.142 -0.626,1.139c-3.286,-4.001 -9.274,-8.22 -17.961,-12.66c-4.597,-2.136 -6.884,-3.414 -6.864,-3.833c0.021,-0.417 3.616,-1.815 10.784,-4.191l0.384,-0.199l0.405,-0.075c1.046,-0.193 2.74,3.451 5.085,10.929l0.295,0.238c-0.63,-2.383 -0.554,-3.696 0.229,-3.938c0.393,-0.183 0.82,-0.194 1.283,-0.036l3.138,1.815c-0.149,-0.887 -0.088,-1.426 0.183,-1.616c0.271,-0.191 0.937,0.677 1.998,2.602Z"/><path id="path3747" d="M73.568,170.474c0.571,0.82 0.673,1.55 0.303,2.193c-0.503,0.625 -1.411,1.036 -2.725,1.237c-1.313,0.201 -2.706,-0.151 -4.177,-1.052c-1.472,-0.9 -2.563,-1.904 -3.273,-3.007c-0.71,-1.105 -1.037,-2.107 -0.979,-3.011c0.352,-0.329 0.633,-0.21 0.842,0.359c0.485,1.745 1.616,3.228 3.391,4.45c1.775,1.22 3.286,1.606 4.534,1.154c1.248,-0.452 1.622,-1.064 1.12,-1.833c-0.51,-1.027 -2.872,-2.313 -7.088,-3.857l-10.295,-4.119c-2.276,-0.495 -3.589,-1.054 -3.94,-1.678c-0.054,-0.243 0.027,-0.394 0.243,-0.452c0.363,-0.211 1.99,0.172 4.882,1.149l6.719,2.21l0.319,0.123l0.202,-0.117l-0.558,-0.627l0.524,-0.243c2.006,1.535 3.729,2.662 5.167,3.383l0.355,-0.62c0.129,-0.946 -0.775,-2.259 -2.714,-3.945c-1.94,-1.683 -3.654,-2.588 -5.143,-2.714c-1.49,-0.124 -1.735,0.225 -0.733,1.049l2.999,2.763l-0.35,0.37c-2.368,-1.393 -3.884,-2.683 -4.551,-3.868c-0.024,-0.385 0.141,-0.681 0.493,-0.887c1.766,-1.099 4.21,-0.453 7.331,1.936c1.68,1.076 3.06,2.797 4.142,5.161c0.119,0.579 0.045,1.208 -0.221,1.887c1.55,0.918 2.61,1.787 3.181,2.606Z"/><path id="path3749" d="M44.353,170.621c-0.008,0.336 0.314,0.793 0.963,1.368l3.073,1.816c4.579,2.36 10.018,3.67 16.318,3.93c6.299,0.26 9.448,0.273 9.447,0.039c-0.001,-0.234 -0.128,-0.436 -0.378,-0.605c-3.721,-2.984 -10.071,-5.394 -19.051,-7.232c-3.576,-0.942 -6.716,-1.027 -9.419,-0.256c-0.627,0.291 -0.945,0.604 -0.953,0.94Zm71.3,10.379c-0.269,0.638 -0.556,0.733 -0.862,0.282l-0.548,-1.72l-21.669,0.529l-10.549,0.27c1.505,1.535 2.042,2.546 1.606,3.031c-0.198,0.383 -0.604,0.598 -1.22,0.641c-0.616,0.045 -1.209,0.05 -1.781,0.017c-0.573,-0.032 -0.973,-0.018 -1.201,0.042c4.287,2.064 5.707,3.122 4.258,3.177c-4.199,-1.663 -6.574,-2.637 -7.121,-2.921c-0.549,-0.283 -1.012,-0.601 -1.391,-0.953c-0.379,-0.351 -0.289,-0.697 0.271,-1.04c5.12,0.625 7.021,0.437 5.702,-0.563c-1.921,-1.959 -4.757,-2.852 -8.506,-2.682c-3.749,0.172 -6.168,0.223 -7.259,0.154c-1.09,-0.07 -4.513,-0.56 -10.27,-1.472c-2.462,-0.495 -4.705,-1.271 -6.73,-2.328c-2.026,-1.059 -3.443,-1.884 -4.253,-2.477c-0.81,-0.592 -1.333,-1.212 -1.57,-1.858c-0.237,-0.645 0.007,-1.304 0.73,-1.978c0.724,-0.674 1.674,-1.124 2.852,-1.353c1.177,-0.229 2.964,-0.222 5.362,0.017c4.515,0.525 10.427,2.299 17.735,5.323l1.708,0.812c6.193,3.92 10.579,5.507 13.156,4.761l0.619,-0.066c6.694,0.076 14.577,-0.039 23.649,-0.343l6.441,0.111c0.806,0.185 1.086,1.047 0.841,2.587Z"/><path id="path3751" d="M88.547,189.119c-2.568,0.582 -3.83,1.148 -3.787,1.696c0.043,0.549 1.315,0.984 3.815,1.306c2.5,0.322 4.562,0.022 6.185,-0.9c1.286,-0.477 1.336,-1.11 0.149,-1.899c-1.673,-0.718 -3.794,-0.785 -6.362,-0.203Zm7.668,-0.446c1.02,0.491 1.346,1.443 0.978,2.857c-0.726,0.605 -1.586,0.987 -2.582,1.146l0.258,0.157c1.7,-0.198 2.452,0.082 2.258,0.838c-3.042,-0.078 -4.836,0.186 -5.383,0.794c-0.547,0.607 -0.309,1.03 0.711,1.267l4.805,0.751c0.307,0.341 0.262,0.61 -0.134,0.808c-3.092,-0.11 -5.208,-0.509 -6.344,-1.197c-0.981,-0.764 -0.698,-1.622 0.848,-2.577c-4.209,-0.488 -6.82,-1.041 -7.835,-1.655c-0.544,-0.682 -0.413,-1.485 0.393,-2.408c4.672,-2.462 8.681,-2.722 12.026,-0.78l0.001,-0.001Z"/><path id="path3753" d="M114.613,196.069c0.738,-0.044 1.115,0.141 1.13,0.557c0.015,0.416 -2.669,1.967 -8.053,4.655c-0.314,0.432 -0.108,0.662 0.62,0.689c3.14,-0.069 5.049,-0.069 5.726,-0.001c0.675,0.068 0.964,0.258 0.864,0.568c-0.333,0.489 -1.813,0.764 -4.439,0.825c-2.628,0.062 -4.188,-0.147 -4.681,-0.626c-0.494,-0.479 -0.373,-1.127 0.365,-1.943l1.756,-1.495l-4.219,-1.885c-1.246,0.226 -2.317,0.628 -3.214,1.204c-0.898,0.577 -1.528,0.84 -1.892,0.787c-0.364,-0.051 -0.398,-0.398 -0.104,-1.038c1.464,-1.055 3.438,-2.08 5.922,-3.071c2.484,-0.992 4.155,-1.429 5.008,-1.311c0.854,0.119 0.726,0.54 -0.381,1.265c-0.556,0.217 -1.191,0.426 -1.906,0.632l-1.523,0.599l1.594,1.093c1.713,0.795 4.189,0.293 7.427,-1.504Z"/><path id="path3755" d="M120.672,207.984c0.802,0.52 1.304,0.445 1.508,-0.223c0.204,-0.669 0.292,-1.096 0.266,-1.28c-0.027,-0.185 -0.184,-0.274 -0.472,-0.268c-1.092,0.226 -1.526,0.816 -1.302,1.772l0,-0.001Zm2.568,-11.1c0.723,-0.033 0.942,0.244 0.657,0.831c-3.304,2.465 -5.309,4.314 -6.015,5.547c0.122,0.497 1.256,0.34 3.404,-0.471c2.148,-0.811 4.83,-2.229 8.047,-4.254c0.863,-0.103 1.072,0.257 0.628,1.082l-4.194,3.63c0.789,0.834 0.77,1.461 -0.058,1.883c-0.776,-0.324 -1.838,1.141 -3.187,4.39c-0.252,0.323 -0.759,0.356 -1.519,0.095c-0.982,-0.61 -1.577,-1.266 -1.782,-1.965c0.145,-1.244 1.523,-2.286 4.136,-3.129l0.509,-1.599c-1.7,0.925 -3.198,1.555 -4.494,1.892c-1.088,0.189 -1.901,0.207 -2.44,0.054c-0.539,-0.153 -0.809,-0.435 -0.808,-0.847c0.184,-1.578 2.555,-3.959 7.116,-7.139Z"/><path id="path3757" d="M126.702,213.774c0.629,1.881 1.065,3.573 1.306,5.073c0.242,1.5 2.954,-2.599 8.136,-12.296l-0.674,0.262l-9.256,3.519c-0.304,0.412 -0.142,1.56 0.488,3.442Zm8.534,-15.184c1.984,-0.978 2.886,-0.78 2.706,0.596c-2.489,2.213 -3.879,3.827 -4.168,4.841l0.041,0.393l0.32,-0.037c1.35,-0.164 4.997,-2.5 10.94,-7.007c0.792,-0.459 1.152,-0.231 1.08,0.686c-4.206,3.122 -8.835,8.956 -13.885,17.502c-2.463,4.531 -3.9,6.776 -4.312,6.735c-0.012,-0.002 -0.024,-0.006 -0.038,-0.013l-0.004,-0.003c-0.442,-0.266 -1.536,-3.95 -3.281,-11.052l-0.168,-0.397l-0.042,-0.412c-0.112,-1.062 3.619,-2.598 11.192,-4.606l0.258,-0.286c-2.404,0.523 -3.696,0.383 -3.876,-0.417c-0.151,-0.404 -0.13,-0.837 0.061,-1.295l2.034,-3.076c-0.888,0.108 -1.417,0.021 -1.583,-0.261c-0.169,-0.282 0.74,-0.912 2.725,-1.892l0,0.001Z"/><path id="path3759" d="M142.232,213.556l1.078,0.829l0.476,0.181l1.028,-0.184l0.53,-0.171l0.963,-0.426c2.224,-0.939 3.059,-2.899 2.505,-5.878l-0.274,-0.949l-0.473,-0.724c-0.52,0.187 -1.093,0.702 -1.722,1.542c-0.426,0.485 -1.277,1.333 -2.548,2.546c-0.545,0.456 -0.982,1.024 -1.306,1.703c-0.374,0.406 -0.46,0.916 -0.257,1.531Zm11.867,-18.83c0.517,0.425 0.717,1.041 0.6,1.846c0.05,0.97 -1.42,2.55 -4.409,4.744c-0.629,0.841 -0.739,1.446 -0.33,1.813l4.399,-2.984l0.311,0.19l0.076,0.278l-5.291,4.642c1.208,4.212 1.171,6.838 -0.109,7.879l-1.742,1.398l-2.404,1.009l-2.229,0.138l-0.993,-0.443l-0.811,-0.869l-0.353,-0.833c-0.154,-1.263 0.502,-2.667 1.97,-4.21c3.953,-3.168 5.791,-5.267 5.514,-6.296c-1.012,0.292 -1.639,0.401 -1.881,0.327c-0.243,-0.073 -0.306,-0.307 -0.189,-0.703c0.116,-0.393 1.328,-1.253 3.635,-2.578l2.515,-1.976c1.54,-2.013 1.363,-2.851 -0.529,-2.518c-1.893,0.332 -2.86,0.997 -2.901,1.992c-0.54,0.156 -0.903,0.017 -1.088,-0.415c-0.184,-0.432 -0.065,-0.865 0.358,-1.299c0.421,-0.432 1.311,-0.888 2.669,-1.366c1.625,-0.267 2.696,-0.19 3.212,0.234Z"/><path id="path3761" d="M157.711,195.779c-0.961,2.48 -1.203,3.848 -0.726,4.106c0.478,0.26 1.553,-0.579 3.226,-2.515c1.672,-1.935 2.582,-3.836 2.732,-5.7c0.328,-1.341 -0.168,-1.723 -1.488,-1.147c-1.534,1.024 -2.782,2.777 -3.744,5.256Zm3.942,-6.707c0.979,-0.595 1.95,-0.358 2.913,0.713c0.092,0.937 -0.075,1.869 -0.504,2.794l0.274,-0.134c0.792,-1.54 1.446,-2.024 1.965,-1.453c-1.776,2.524 -2.566,4.179 -2.371,4.967c0.195,0.787 0.678,0.813 1.448,0.081l3.323,-3.647c0.454,-0.076 0.652,0.107 0.592,0.547c-1.829,2.549 -3.348,4.117 -4.556,4.705c-1.183,0.417 -1.734,-0.283 -1.655,-2.1c-2.769,3.286 -4.693,5.191 -5.773,5.716c-0.87,0.091 -1.461,-0.45 -1.771,-1.628c0.59,-5.263 2.627,-8.784 6.115,-10.561Z"/><path id="path3763" d="M190.782,181.797c-1.266,2.365 -4.176,3.274 -6.501,2.029c-2.324,-1.244 -3.181,-4.17 -1.915,-6.535c1.266,-2.364 4.176,-3.273 6.501,-2.029c2.324,1.245 3.181,4.171 1.915,6.535Z"/><path id="path3765" d="M170.991,167.298l-0.395,-0.295l6.053,-12.531l-5.658,12.826Z"/><path id="path3767" d="M133.359,155.307c-1.748,-0.948 -3.479,-1.862 -5.197,-2.735c-1.723,-0.886 -3.433,-1.73 -5.158,-2.546c-1.249,-0.585 -2.498,-1.17 -3.772,-1.733c0.344,-0.641 0.692,-1.292 1.03,-1.947c0.614,-1.166 1.212,-2.352 1.812,-3.537c0.586,-1.181 1.185,-2.366 1.748,-3.571c0.285,-0.6 0.571,-1.2 0.849,-1.805c0.16,-0.344 0.312,-0.693 0.464,-1.043l18.202,12.591c-0.729,1.428 -1.453,2.845 -2.169,4.291c-0.82,1.641 -1.626,3.302 -2.439,4.994c-1.828,-1.039 -3.614,-2.006 -5.371,-2.959l0.001,0Zm-8.918,-19.396l0.418,-0.122c-0.028,0.117 -0.064,0.228 -0.109,0.336l-0.309,-0.214Zm46.15,31.095l-22.099,-16.482l13.139,-27.742l15.015,31.687l-14.132,-34.191l-3.993,-0.991l-1.862,4.048l-0.236,-0.305l-11.576,25.087l-0.128,-0.092l-8.351,-5.775l-11.072,-7.65l-0.06,-0.043l-0.499,-0.339l-0.485,0.685c-0.372,0.542 -0.749,1.092 -1.117,1.649c-0.364,0.547 -0.732,1.102 -1.09,1.663c-0.241,0.362 -0.468,0.719 -0.699,1.085c-0.076,0.162 -0.156,0.311 -0.24,0.469c-0.551,0.984 -1.142,1.935 -1.806,2.823c-0.478,0.783 -0.952,1.581 -1.427,2.38c-0.668,1.137 -1.34,2.283 -1.998,3.425l-1.791,1.109l0.567,0.256l1.807,0.836c1.891,0.881 3.796,1.734 5.702,2.563c1.911,0.819 3.84,1.626 5.749,2.384c1.917,0.764 3.817,1.494 5.7,2.192c1.809,0.658 3.595,1.315 5.338,1.901c0.048,-0.44 0.163,-0.941 0.368,-1.5l0.513,0.228l0.045,0.024c0.73,-1.319 1.456,-2.652 2.187,-3.995c0.736,-1.351 1.47,-2.726 2.18,-4.092l4.25,2.706l1.619,1.035c0.121,0.016 0.245,0.047 0.369,0.101c0.252,0.122 0.427,0.3 0.559,0.49l1.988,1.269c0.076,-0.032 0.17,-0.053 0.255,-0.079c0.355,-0.072 0.779,-0.073 1.168,0.099c0.389,0.196 0.652,0.517 0.822,0.835c0.126,0.247 0.201,0.502 0.248,0.743l0.56,0.359l0.181,-0.381l7.1,4.71l-0.116,0.237l0.01,0.006l1.092,0.703l0.008,0.005c0.159,-0.011 0.325,0.006 0.509,0.082c0.292,0.156 0.456,0.376 0.561,0.598l1.901,1.21l0.01,0.005c0.064,0.011 0.142,0.04 0.211,0.065c0.156,0.083 0.278,0.184 0.366,0.304l0.008,0.004l2.635,1.686l0.037,-0.089Z"/><path id="path3769" d="M156.659,123.335l-0.236,-0.305l1.766,-3.825l0.332,0.082l-1.862,4.048Z"/><path id="path3771" d="M144.917,149.015c-0.095,0.177 -0.184,0.368 -0.288,0.539l-0.371,-0.162l0.589,-1.275l0.394,0.271l-0.324,0.627Z"/><path id="path3773" d="M151.038,154.635l-0.929,-0.592c0.121,0.016 0.245,0.047 0.368,0.102c0.252,0.122 0.427,0.3 0.561,0.49Z"/><path id="path3775" d="M155.519,157.502l-2.494,-1.599c0.076,-0.031 0.17,-0.053 0.255,-0.079c0.355,-0.072 0.779,-0.073 1.168,0.1c0.389,0.195 0.652,0.516 0.822,0.834c0.126,0.247 0.201,0.502 0.249,0.744Z"/><path id="path3777" d="M163.244,162.427l-7.166,-4.567l0.18,-0.381l7.101,4.711l-0.115,0.237Z"/><path id="path3779" d="M165.423,163.821l-1.069,-0.68c0.158,-0.011 0.325,0.006 0.509,0.081c0.292,0.157 0.456,0.376 0.56,0.599Z"/><path id="path3781" d="M167.912,165.405l-0.578,-0.369c0.065,0.01 0.143,0.04 0.212,0.065c0.155,0.083 0.277,0.184 0.366,0.304Z"/><path id="path3783" d="M148.578,163.157l-0.334,0.228c-0.03,0.187 -0.045,0.37 -0.052,0.558c0.169,-0.161 0.323,-0.341 0.465,-0.516l0.01,-0.019l-0.089,-0.251Zm1.267,-4.211c-0.246,0.395 -0.451,0.799 -0.652,1.217c-0.186,0.415 -0.359,0.848 -0.49,1.292c0.241,-0.385 0.459,-0.794 0.66,-1.213c0.182,-0.428 0.35,-0.852 0.482,-1.296Zm5.425,-2.188c-0.17,-0.318 -0.433,-0.638 -0.822,-0.834c-0.389,-0.173 -0.813,-0.172 -1.168,-0.1c-0.085,0.026 -0.179,0.048 -0.255,0.079l2.494,1.599c-0.048,-0.241 -0.123,-0.497 -0.249,-0.744Zm-0.775,5.838c0.471,-0.991 0.842,-2.035 1.016,-3.15c0.025,-0.154 0.043,-0.3 0.049,-0.464l-2.803,6.09l0.197,0.093c0.637,-0.795 1.128,-1.667 1.541,-2.57l0,0.001Z"/><path id="path3785" d="M151.885,164.617c-0.329,0.35 -0.689,0.672 -1.055,0.894c-0.38,0.228 -0.74,0.285 -0.89,0.193c-0.161,-0.073 -0.336,-0.383 -0.39,-0.807c-0.06,-0.415 -0.039,-0.893 0.033,-1.357c0.145,-0.95 0.466,-1.902 0.883,-2.791c0.422,-0.897 0.922,-1.765 1.557,-2.49c0.31,-0.36 0.661,-0.687 1.012,-0.904c0.362,-0.237 0.704,-0.304 0.864,-0.231c0.156,0.06 0.355,0.369 0.419,0.799c0.083,0.414 0.071,0.898 0.017,1.372c-0.117,0.965 -0.421,1.926 -0.82,2.848c-0.436,0.902 -0.978,1.76 -1.63,2.474Zm-3.228,-1.19c-0.142,0.175 -0.296,0.355 -0.465,0.516c0.006,-0.188 0.022,-0.371 0.052,-0.558l0.334,-0.228l0.089,0.251l-0.01,0.019Zm-0.863,-0.714c-0.311,0.36 -0.653,0.691 -1.006,0.933c-0.348,0.255 -0.737,0.346 -0.828,0.273c-0.096,-0.038 -0.265,-0.381 -0.297,-0.804c-0.032,-0.424 0.022,-0.897 0.103,-1.355c0.172,-0.937 0.507,-1.869 0.919,-2.748c0.417,-0.889 0.898,-1.744 1.505,-2.482c0.292,-0.369 0.615,-0.71 0.959,-0.957c0.339,-0.261 0.719,-0.356 0.806,-0.298c0.105,0.021 0.299,0.363 0.325,0.796c0.046,0.419 0.01,0.903 -0.062,1.366c-0.077,0.496 -0.197,1.005 -0.363,1.491c0.005,0.015 -0.01,0.018 -0.01,0.018c-0.132,0.444 -0.299,0.868 -0.482,1.296c-0.201,0.419 -0.419,0.828 -0.66,1.213c-0.281,0.436 -0.579,0.861 -0.909,1.258Zm4.963,2.359l2.803,-6.09c0.056,-0.413 0.061,-0.84 -0.006,-1.282c-0.012,-0.067 -0.024,-0.133 -0.036,-0.198l-2.493,-1.599c-0.239,0.075 -0.462,0.183 -0.666,0.302c-0.346,0.208 -0.653,0.45 -0.922,0.713c0.039,-0.314 0.045,-0.634 0.024,-0.968c-0.035,-0.306 -0.062,-0.607 -0.205,-0.934c-0.051,-0.123 -0.121,-0.256 -0.219,-0.381l-0.928,-0.592c-0.3,-0.053 -0.58,-0.012 -0.816,0.053c-0.338,0.106 -0.605,0.274 -0.856,0.438c-0.449,0.31 -0.81,0.678 -1.139,1.052l-0.006,0.01l-2.184,4.759l-0.171,0.363l-0.224,-0.107l-2.747,-1.256l-0.018,-0.01l-2.074,-0.955c-0.248,0.441 -0.488,0.887 -0.729,1.319c-0.07,-0.024 -0.129,-0.045 -0.198,-0.07c-0.284,2.394 1.434,3.159 3.006,2.614c0,0 2.525,4.83 5.366,2.969c0,0 0.042,0.536 0.711,1.086c0.362,0.289 0.877,0.446 1.261,0.52l0.101,0.054c0.398,0.177 0.812,0.171 1.164,0.085c0.338,-0.083 0.641,-0.231 0.893,-0.395c0.527,-0.327 0.937,-0.741 1.306,-1.166c0.067,-0.083 0.13,-0.156 0.198,-0.24l-0.196,-0.094Z"/><path id="path3787" d="M165.778,170.968c-0.221,0.24 -0.458,0.461 -0.705,0.616c-0.247,0.154 -0.495,0.2 -0.59,0.138c-0.088,-0.034 -0.205,-0.254 -0.242,-0.537c-0.038,-0.282 -0.016,-0.606 0.037,-0.924c0.106,-0.637 0.332,-1.281 0.61,-1.885c0.286,-0.6 0.621,-1.186 1.039,-1.679c0.214,-0.244 0.44,-0.47 0.679,-0.629c0.242,-0.169 0.482,-0.221 0.573,-0.172c0.092,0.026 0.219,0.249 0.265,0.537c0.045,0.287 0.034,0.616 -0.009,0.939c-0.089,0.647 -0.297,1.3 -0.565,1.91c-0.296,0.618 -0.66,1.188 -1.092,1.686Zm1.751,-1.382c0.306,-0.66 0.564,-1.359 0.692,-2.104c0.059,-0.373 0.092,-0.763 0.041,-1.173c-0.042,-0.273 -0.105,-0.617 -0.341,-0.9l-0.009,-0.004c-0.088,-0.12 -0.21,-0.221 -0.366,-0.304c-0.069,-0.024 -0.147,-0.054 -0.211,-0.065l-0.01,-0.005c-0.485,-0.105 -0.893,0.108 -1.186,0.285c-0.267,0.168 -0.473,0.357 -0.675,0.559c-0.073,0.069 -0.15,0.147 -0.214,0.221c-0.498,0.581 -0.897,1.216 -1.213,1.896c-0.249,0.572 -0.45,1.146 -0.565,1.778l-0.005,0.01c-0.037,0.112 -0.055,0.233 -0.073,0.355c0.004,0.013 -0.007,0.032 -0.002,0.047c-0.055,0.366 -0.076,0.735 -0.021,1.136c0.062,0.368 0.188,0.878 0.68,1.166l0.064,0.034c0.583,0.228 1.061,-0.029 1.395,-0.234c0.338,-0.237 0.613,-0.509 0.85,-0.8c0.491,-0.586 0.857,-1.226 1.169,-1.897l0,-0.001Z"/><path id="path3789" d="M164.729,167.992c0.317,-0.679 0.582,-1.374 0.734,-2.117c0.007,-0.032 0.017,-0.075 0.023,-0.108c0.078,-0.388 0.129,-0.792 0.094,-1.229c-0.025,-0.217 -0.045,-0.466 -0.157,-0.717c-0.104,-0.223 -0.268,-0.442 -0.56,-0.599c-0.184,-0.075 -0.351,-0.092 -0.509,-0.081l-0.008,-0.005c-0.406,0.011 -0.72,0.225 -0.967,0.38c-0.358,0.25 -0.642,0.54 -0.905,0.854c-0.107,0.134 -0.213,0.268 -0.311,0.407c-0.376,0.504 -0.688,1.042 -0.939,1.601c-0.258,0.567 -0.464,1.15 -0.611,1.753c-0.043,0.169 -0.072,0.332 -0.106,0.506c-0.011,0.041 -0.007,0.08 -0.018,0.121l0.4,0.812c0,0 0.279,0.269 0.546,0.603c-0.038,-0.104 -0.07,-0.241 -0.084,-0.391c-0.021,-0.31 0.009,-0.653 0.072,-0.99c0.13,-0.683 0.378,-1.363 0.675,-2.006c0.31,-0.647 0.658,-1.273 1.1,-1.814c0.214,-0.267 0.455,-0.521 0.703,-0.699c0.244,-0.192 0.521,-0.27 0.58,-0.227c0.074,0.015 0.219,0.272 0.24,0.582c0.031,0.316 0.01,0.663 -0.044,1.005c-0.112,0.693 -0.341,1.384 -0.625,2.044c-0.315,0.656 -0.689,1.269 -1.147,1.813c-0.223,0.263 -0.474,0.511 -0.73,0.685c-0.238,0.159 -0.501,0.233 -0.579,0.204c0.252,0.362 0.424,0.742 0.15,0.882c0.34,-0.022 0.616,-0.185 0.84,-0.34c0.029,-0.009 0.052,-0.032 0.071,-0.045c0.286,-0.206 0.518,-0.441 0.736,-0.694c0.043,-0.061 0.097,-0.116 0.141,-0.176c0.01,-0.018 0.033,-0.042 0.043,-0.06c0.477,-0.606 0.845,-1.27 1.152,-1.954Z"/><path id="path3791" d="M148.578,163.157l-0.334,0.228c-0.03,0.187 -0.045,0.37 -0.052,0.558c0.169,-0.161 0.323,-0.341 0.465,-0.516l0.01,-0.019l-0.089,-0.251Zm1.899,-9.012c-0.122,-0.055 -0.247,-0.086 -0.368,-0.102l0.929,0.592c-0.134,-0.19 -0.309,-0.367 -0.561,-0.49Zm-5.369,6.209l2.184,-4.759c-0.029,0.032 -0.063,0.074 -0.092,0.106c-0.703,0.854 -1.271,1.782 -1.719,2.75c-0.257,0.591 -0.483,1.188 -0.662,1.809c-0.038,0.112 -0.079,0.233 -0.106,0.35l0.224,0.108l0.171,-0.364Z"/><path id="path3793" d="M156.446,158.168l-3.074,6.672l6.809,3.121l2.584,-5.6l-6.319,-4.193Zm-4.304,7.133l3.931,-8.51l7.881,5.23l-1.372,2.95l-1.951,4.232l-8.489,-3.902Z"/><path id="path3795" d="M139.874,158.39c-0.248,0.44 -0.487,0.887 -0.729,1.319c-0.07,-0.025 -0.129,-0.046 -0.197,-0.071c0.048,-0.44 0.162,-0.941 0.368,-1.5l0.513,0.228l0.045,0.024Z"/><path id="path3797" d="M144.937,160.718l-0.224,-0.108l-2.747,-1.256l2.853,0.906l0.289,0.094l-0.171,0.364Z"/><path id="path3799" d="M148.667,163.408l-0.01,0.019c-0.142,0.175 -0.296,0.355 -0.465,0.516c0.006,-0.188 0.022,-0.371 0.052,-0.558l0.334,-0.228l0.089,0.251Z"/><path id="path3801" d="M121.346,139.299c-0.472,0.752 -0.951,1.512 -1.419,2.277c-0.207,0.343 -0.419,0.672 -0.626,1.016c0.664,-0.888 1.255,-1.839 1.805,-2.824c0.085,-0.158 0.165,-0.306 0.241,-0.469l-0.001,0Zm18.483,19.067l-0.513,-0.228c-0.206,0.559 -0.32,1.06 -0.368,1.5c0.068,0.026 0.128,0.045 0.197,0.071c0.242,-0.432 0.481,-0.879 0.729,-1.319l-0.045,-0.024Z"/><path id="path3803" d="M124.859,135.789l-0.418,0.122l0.309,0.214c0.044,-0.108 0.081,-0.219 0.109,-0.336Zm-20.956,7.452c-0.005,0.01 -0.002,0.023 -0.002,0.046c0.028,0.015 0.04,0.035 0.068,0.05l0.01,-0.019l-0.076,-0.077Z"/><path id="path3805" d="M103.979,143.318l-0.009,0.018c-0.028,-0.015 -0.041,-0.035 -0.069,-0.049c0.002,-0.023 -0.003,-0.038 0.002,-0.047l0.076,0.078Z"/><path id="path3807" d="M103.97,143.336c-0.028,-0.015 -0.041,-0.035 -0.069,-0.049c0.002,-0.023 -0.003,-0.038 0.002,-0.047l0.077,0.077l-0.01,0.019Zm22.023,-14.974c-0.073,-1.115 -0.285,-2.256 -0.777,-3.356c-0.492,-1.077 -1.32,-2.166 -2.479,-2.787c-1.149,-0.663 -2.52,-0.823 -3.722,-0.641c-1.215,0.162 -2.317,0.576 -3.345,1.089c-1.27,0.684 -2.405,1.51 -3.446,2.423l-6.176,-3.475l-0.32,-0.171l-0.228,-0.014l-16.228,-0.763l-2.445,-2.542l-2.156,-2.229l4.059,5.52l0.089,0.119l0.204,0.038l15.822,2.375l5.037,3.606c-0.806,0.979 -1.526,2.016 -2.182,3.087l-5.976,-3.342l-0.177,-0.108l-0.074,-0.017l-14.522,-4.212l0.099,0.077l-0.14,-0.088l0.042,0.009l-4.923,-3.819l4.417,4.588l0.049,0.04l0.106,0.044l13.809,5.72l-0.069,-0.048l0.261,0.127l-0.192,-0.079l5.708,4.085c-0.689,1.484 -1.25,3.037 -1.627,4.64c-0.162,0.654 -0.292,1.314 -0.385,1.993c-4.306,-2.843 -8.662,-5.57 -13.115,-8.157c-2.467,-1.429 -4.972,-2.806 -7.537,-4.072c-1.28,-0.637 -2.58,-1.238 -3.906,-1.768c-1.33,-0.522 -2.685,-1.02 -4.106,-1.219c1.168,0.255 2.273,0.715 3.344,1.216c-0.634,2.984 0.706,6.033 3.411,7.278c2.293,1.049 4.945,0.508 6.826,-1.162c0.428,0.276 0.836,0.567 1.259,0.853c3.674,2.529 7.27,5.16 10.799,7.875c-0.094,4.827 3.346,8.342 6.34,9.443c0.013,0.02 0.04,0.035 0.064,0.034c0.1,0.054 0.196,0.095 0.302,0.138c1.14,0.527 2.454,0.573 3.578,0.362c1.147,-0.211 2.172,-0.678 3.112,-1.203c0.056,-0.041 0.118,-0.068 0.175,-0.109l-0.567,-0.256l1.792,-1.109c0.658,-1.141 1.33,-2.288 1.998,-3.425c0.474,-0.798 0.948,-1.596 1.426,-2.38c-0.468,0.658 -0.965,1.277 -1.501,1.862c-1.277,1.397 -2.739,2.658 -4.349,3.469c-1.577,0.818 -3.362,1.166 -4.598,0.491c-1.207,-0.598 -1.877,-2.177 -2.008,-3.885l-0.009,-0.029l-0.73,-1.072c0.306,0.154 0.6,0.526 0.691,0.861l0.037,0.151c-0.13,-1.755 0.145,-3.629 0.636,-5.446c0.51,-1.83 1.219,-3.638 2.139,-5.334c1.793,-3.39 4.298,-6.557 7.397,-8.46c1.529,-0.879 3.271,-1.368 4.527,-0.708c1.287,0.581 2.06,2.275 2.256,4.102c0.225,1.841 -0.016,3.804 -0.51,5.692c-0.437,1.738 -1.109,3.411 -1.932,5.014c0.232,-0.366 0.458,-0.723 0.699,-1.085c0.358,-0.561 0.726,-1.116 1.09,-1.663c0.368,-0.557 0.745,-1.107 1.117,-1.649l0.485,-0.685l0.499,0.339c0.553,-1.976 0.877,-4.05 0.756,-6.194l0,0.001Z"/><path id="path3809" d="M87.05,123.039l-0.14,-0.088l0.041,0.01l0.099,0.078Z"/><path id="path3811" d="M100.601,129.614l-0.192,-0.079l-0.069,-0.048l0.261,0.127Z"/><path id="path3813" d="M171.825,150.943c-1.623,-0.655 -3.218,-1.627 -4.308,-3.167c-1.086,-1.527 -1.543,-3.373 -2.219,-4.919c-0.643,-1.563 -1.605,-2.795 -2.859,-3.743c-1.222,-0.965 -2.783,-1.561 -4.302,-2.148l1.334,-3.063c1.638,0.937 3.293,1.883 4.642,3.334c1.374,1.406 2.338,3.249 2.754,5.061c0.453,1.809 0.611,3.532 1.363,5.046c0.743,1.51 2.083,2.693 3.595,3.599Z"/><path id="path3815" d="M164.565,146.552c-0.806,-0.359 -1.438,-1.044 -2.006,-1.694c-0.577,-0.656 -1.136,-1.302 -1.758,-1.875c-0.607,-0.576 -1.271,-1.05 -1.978,-1.441c-0.712,-0.381 -1.474,-0.646 -2.244,-0.855l0.644,-1.795c0.851,0.408 1.667,0.881 2.391,1.46c0.719,0.588 1.356,1.264 1.898,1.984c0.537,0.73 0.985,1.496 1.424,2.233c0.444,0.752 0.902,1.476 1.629,1.983Z"/><path id="path3817" d="M113.451,106.978c-0.447,0.789 -0.936,1.328 -1.439,1.896c-2.015,2.184 -4.224,4.026 -6.469,5.849c-2.243,1.799 -4.559,3.512 -6.945,5.115l-0.005,0.01l-0.138,0.106l-0.135,-0.012l-6.571,-0.434l0.007,-0.188l6.409,-0.275l-0.096,0.093l0.273,-0.093l-0.177,0l6.339,-5.584c2.131,-1.895 4.285,-3.79 6.188,-5.807c0.454,-0.498 0.924,-1.047 1.182,-1.507c0.025,-0.046 0.047,-0.107 0.067,-0.144l-0.006,-0.014c-0.012,-0.019 -0.016,-0.033 -0.025,-0.062c-0.074,-0.147 -0.211,-0.351 -0.437,-0.544c-0.875,-0.757 -2.171,-1.343 -3.433,-1.838c-0.781,-0.299 -1.58,-0.584 -2.384,-0.859l0.26,-0.267l-0.951,-0.856l-0.593,0.711c-1.429,-0.467 -2.889,-0.902 -4.342,-1.369l0.039,-0.182c2.844,0.196 5.676,0.589 8.462,1.399c1.385,0.442 2.783,0.88 4.095,1.941c0.321,0.256 0.648,0.611 0.888,1.086c0.065,0.118 0.112,0.251 0.153,0.393c0.016,0.08 0.042,0.118 0.057,0.245c0.019,0.118 0.014,0.258 0.002,0.348c-0.051,0.403 -0.17,0.626 -0.276,0.844l0.001,-0.001Z"/><path id="path3819" d="M104.965,101.562l0.952,0.856l-0.26,0.267c-0.428,-0.145 -0.851,-0.276 -1.284,-0.412l0.592,-0.711Z"/><path id="path3821" d="M98.343,119.044l-0.274,0.093l0.097,-0.092l0.177,-0.001Z"/><path id="path3823" d="M126.6,124.42c-0.626,-1.005 -1.27,-1.996 -1.934,-2.949c-0.063,-0.081 -0.125,-0.163 -0.183,-0.253c-0.75,-1.035 -1.558,-2.006 -2.457,-2.87c-1.749,-1.738 -3.905,-2.999 -6.266,-3.308c-1.166,-0.17 -2.383,-0.068 -3.573,0.156c-1.19,0.248 -2.337,0.721 -3.509,1.265c-2.346,1.111 -4.835,2.097 -7.397,2.579c2.401,-1.082 4.63,-2.304 6.876,-3.647c1.126,-0.652 2.375,-1.275 3.713,-1.622c1.323,-0.344 2.728,-0.464 4.116,-0.295c1.423,0.152 2.754,0.65 3.948,1.361l1.097,-2.378l1.085,0.497l-1.177,2.551c0.307,0.236 1.529,0.974 1.812,1.233l1.304,-2.828l1.093,0.501l-1.498,3.238c-0.006,0.153 0.002,-0.003 0,0c0.002,-0.003 0.031,0.195 0.033,0.41c0.214,0.282 0.3,0.689 0.505,0.967c0.052,0.1 0.118,0.195 0.175,0.285c0.189,0.328 0.383,0.646 0.553,0.965l2.295,-4.987l1.094,0.501l-2.702,5.859c0.396,0.905 0.722,1.832 0.997,2.769Z"/><path id="path3825" d="M116.569,117.327c-2.573,0.679 -5.493,3.455 -5.493,3.455l-3.219,-1.426l0.489,-0.562c2.747,-2.761 7.914,-1.549 8.223,-1.467Z"/><path id="path3827" d="M124.666,121.471l-0.183,-0.253c0.058,0.09 0.12,0.172 0.183,0.253Z"/><path id="path3829" d="M139.93,151.962l-15.599,-9.228l1.001,-1.7l15.599,9.227l-1.001,1.701Z"/><path id="path3831" d="M84.257,126.06l-3.106,-2.621l0.972,-1.169l2.933,2.476l6.752,2.813l-0.589,1.402l-6.962,-2.901Z"/><path id="path3833" d="M86.692,118.291l9.206,-11.524l-9.206,11.524Z"/><path id="path3835" d="M86.328,117.997l9.57,-11.23l-8.843,11.818l-0.727,-0.588Z"/><path id="path3837" d="M92.96,110.607c-0.677,-0.656 -1.557,-0.973 -2.553,-0.703c-0.989,0.258 -1.926,0.931 -2.779,1.644c0.683,-0.887 1.429,-1.775 2.512,-2.356c0.539,-0.284 1.186,-0.458 1.85,-0.422c0.666,0.029 1.299,0.268 1.851,0.578l-0.881,1.259Z"/><path id="path3839" d="M105.917,102.418l-0.26,0.267l-13.554,14.297l12.27,-14.709l0.592,-0.711l0.952,0.856Z"/><path id="path3841" d="M150.383,105.565c-0.283,-0.151 -0.591,-0.259 -0.915,-0.318l-17.049,-3.139c-0.592,-0.116 -1.235,-0.088 -1.864,0.08l-6.63,1.797l21.56,6.063c1.303,0.359 2.441,1.134 3.288,2.237l1.992,2.596c0.347,-0.725 0.888,-1.883 1.364,-2.9c0.435,-0.927 0.814,-1.736 0.939,-1.997l0.378,-0.754l-2.009,-2.74c-0.282,-0.391 -0.642,-0.704 -1.054,-0.925Zm2.33,11.853l3.847,5.013l2.54,-5.507l-3.616,-4.921c-0.23,0.449 -0.541,1.055 -0.875,1.706c-0.726,1.416 -1.567,3.054 -1.896,3.709Zm4.044,6.821l-8.727,-11.367c-0.725,-0.94 -1.696,-1.6 -2.807,-1.911l-24.87,-6.984l9.973,-2.704c0.767,-0.205 1.555,-0.238 2.279,-0.096l17.043,3.138c1.029,0.187 1.935,0.755 2.547,1.608l2.348,3.201l-0.636,1.272c-0.121,0.251 -0.498,1.057 -0.931,1.981c-0.555,1.185 -1.201,2.563 -1.52,3.228l0.674,0.896c0.408,-0.803 1.065,-2.082 1.647,-3.218c0.564,-1.099 1.059,-2.062 1.191,-2.326l0.345,-0.691l0.481,0.558l4.392,5.979l-3.429,7.436Z"/><path id="path3843" d="M143.633,110.35l-7.093,6.828c-0.136,-0.121 -0.266,-0.25 -0.373,-0.38l-0.01,-0.005c-2.118,-1.792 -4.261,-3.584 -6.472,-5.246c-2.349,-1.76 -4.759,-3.445 -7.298,-4.913c-2.525,-1.471 -5.194,-2.72 -7.962,-3.76c-2.758,-1.059 -5.572,-1.992 -8.344,-3.022c2.84,0.839 5.711,1.576 8.546,2.448c2.848,0.867 6.144,1.011 8.827,2.341c0.288,0.143 0.835,-0.178 1.113,-0.017c1.21,0.242 2.16,0.993 3.369,1.281c1.498,0.36 3.006,0.749 4.503,1.155c1.497,0.408 2.994,0.839 4.484,1.302c1.496,0.455 5.216,1.463 6.709,1.987l0.001,0.001Z"/><path id="path3845" d="M142.693,124.381l-5.485,-4.502l7.004,-7.595l2.516,2.566l-4.035,9.531Z"/><path id="path3847" d="M103.979,143.318l-0.009,0.018c-0.028,-0.015 -0.041,-0.035 -0.069,-0.049c0.002,-0.023 -0.003,-0.038 0.002,-0.047l0.076,0.078Z"/><path id="path3849" d="M135.721,142.529l11.735,-25.424l0.23,-0.052c0.078,-0.017 1.939,-0.424 3.093,0.848l0.211,0.231l-3.817,8.269l-0.343,-0.045c0,0 -0.891,-0.115 -1.422,-0.223l0.198,-0.929c0.3,0.062 0.72,0.125 1.014,0.166l3.242,-7.026c-0.596,-0.452 -1.386,-0.443 -1.764,-0.4l-11.528,24.975l-0.849,-0.39Z"/><path id="path3851" d="M137.099,118.636c0,0 -2.063,-2.204 -4.858,-2.23l-4.889,10.58c0,0 2.046,2.279 4.857,2.23c0,0 5.012,-9.976 4.89,-10.58Z"/><path id="path3853" d="M101.626,110.796l-1.157,-0.532l1.446,-2.365l1.157,0.531l-1.446,2.366Z"/><path id="path3855" d="M98.419,114.413l-1.157,-0.531l1.446,-2.366l1.158,0.531l-1.447,2.366Z"/><path id="path3857" d="M94.512,116.869l0.971,-1.587l1.158,0.531l-2.129,1.056Z"/><path id="path3859" d="M103.284,111.557l-1.158,-0.531l1.446,-2.367l1.159,0.532l-1.447,2.366Z"/><path id="path3861" d="M97.924,109.097l-0.81,-0.372l1.359,-2.406l0.81,0.371l-1.359,2.407Z"/><path id="path3863" d="M95.245,111.228l0.702,-1.426l0.81,0.371l-1.512,1.055Z"/><path id="path3865" d="M108.033,108.416l-3.967,-1.717l1.64,-2.296l3.967,1.719l-1.64,2.294Z"/><path id="path3867" d="M120.78,127.934c-0.019,-0.011 -0.038,-0.02 -0.058,-0.029c-1.538,-0.706 -4.904,2.26 -7.46,7.802c-2.559,5.541 -2.631,9.987 -1.09,10.725c1.539,0.707 4.904,-2.26 7.461,-7.802c2.525,-5.47 2.626,-9.905 1.147,-10.696Zm-9.024,19.141c-2.061,-1.103 -1.712,-6.183 0.826,-11.681c2.576,-5.581 6.291,-9.174 8.459,-8.18c2.182,1.002 1.847,6.148 -0.729,11.729c-2.576,5.581 -6.291,9.174 -8.459,8.18c-0.032,-0.015 -0.066,-0.031 -0.097,-0.048Z"/><path id="path3869" d="M119.078,138.676c-0.532,1.152 -1.331,1.917 -1.785,1.708c-0.454,-0.209 -0.392,-1.311 0.14,-2.463c0.532,-1.152 1.331,-1.916 1.785,-1.708c0.455,0.208 0.392,1.311 -0.14,2.463Z"/><path id="path3871" d="M119.431,134.684c0.212,-1.455 0.284,-2.951 0.088,-4.323l1.137,-0.036c-0.186,1.562 -0.65,2.988 -1.225,4.359Z"/><path id="path3873" d="M117.958,135.919c-0.104,-0.661 -0.36,-1.279 -0.677,-1.826c-0.322,-0.542 -0.753,-0.996 -1.227,-1.229l0.664,-0.921c0.586,0.558 0.901,1.25 1.081,1.927c0.169,0.683 0.242,1.376 0.159,2.049Z"/><path id="path3875" d="M113.459,137.397c0.383,0.274 0.793,0.512 1.235,0.703c0.442,0.183 0.917,0.334 1.427,0.338c-0.465,0.234 -1.004,0.336 -1.541,0.382c-0.54,0.041 -1.092,0.018 -1.638,-0.056l0.517,-1.367Z"/><path id="path3877" d="M111.932,142.896c0.663,-0.205 1.316,-0.46 1.953,-0.773c0.631,-0.318 1.256,-0.682 1.802,-1.17c-0.351,0.651 -0.836,1.237 -1.354,1.787c-0.525,0.547 -1.1,1.055 -1.712,1.52l-0.689,-1.364Z"/><path id="path3879" d="M115.596,144.086c0.474,-0.771 0.868,-1.608 1.216,-2.459c-0.238,0.89 -0.521,1.77 -0.906,2.626l-0.31,-0.167Z"/><path id="path3881" d="M161.745,171.26c0,0 -0.005,0.009 -0.018,0.014c-0.07,0.022 -0.15,0.039 -0.257,0.042c-1.796,0.018 -2.684,-1.724 -2.684,-1.724c-0.579,0.204 -1.561,-0.047 -1.575,-2.063l3.196,1.054l0.082,0.175l0.4,0.812c0,0 0.279,0.269 0.546,0.603l0.005,0.015c0.038,0.104 0.096,0.172 0.123,0.186c0.01,0.006 0.008,0.005 0.024,0l0.008,0.005c0.253,0.362 0.426,0.741 0.151,0.882l-0.001,-0.001Z"/><path id="path3883" d="M161.586,170.374c-0.014,0.005 -0.016,0.004 -0.024,0c-0.027,-0.015 -0.086,-0.082 -0.124,-0.186c0.049,0.062 0.098,0.124 0.147,0.186l0.001,0Z"/><path id="path3885" d="M162.538,170.823c0.54,1.366 1.585,1.688 1.585,1.688l-0.421,-1.649l-0.165,-1.177l-0.999,1.138Z"/><path id="path3887" d="M155.386,111.166c-0.32,0.641 -2.785,5.419 -3.18,6.223l-1.298,-1.723c0.391,-0.796 2.27,-4.833 2.582,-5.48c0.18,-0.357 0.345,-0.688 0.505,-1.009c2.459,-4.899 3.112,-5.924 5.319,-6.512c0.235,-0.065 0.817,-0.077 1.38,0.057l-1.938,4.103l-0.847,-0.417c-0.482,0.638 -1.203,2.093 -2.493,4.702l-0.03,0.056Z"/><path id="path3889" d="M124.755,102.104c-0.126,0.255 -0.425,0.813 -0.704,1.357l-1.911,0.519c0.276,-0.558 1.074,-2.115 1.29,-2.561c2.005,-4.031 2.432,-4.807 4.066,-5.247c0.17,-0.053 0.569,-0.053 0.966,0.039l-1.356,2.861l-0.593,-0.294c-0.337,0.453 -0.847,1.471 -1.758,3.326Z"/><path id="path3891" d="M123.507,104.544l-1.367,-0.564l1.911,-0.519c-0.174,0.349 -0.339,0.679 -0.469,0.921c-0.02,0.061 -0.049,0.117 -0.074,0.163l-0.001,-0.001Z"/><path id="path3893" d="M100.367,131.492c-0.281,-0.37 -0.704,-0.567 -1.157,-0.481c-0.736,0.141 -1.266,0.979 -1.184,1.87c0.075,0.809 0.629,1.383 1.28,1.379c-0.071,0.026 -0.141,0.046 -0.214,0.06c-0.88,0.168 -1.672,-0.559 -1.772,-1.624c-0.098,-1.064 0.534,-2.063 1.414,-2.231c0.704,-0.135 1.351,0.303 1.633,1.027Z"/><path id="path3895" d="M100.748,104.833l-1.789,-0.736l1.652,-2.262l1.789,0.736l-1.652,2.262Z"/></g></g></svg>