<?xml version="1.0" encoding="UTF-8" standalone="no"?><!DOCTYPE svg PUBLIC "-//W3C//DTD SVG 1.1//EN" "http://www.w3.org/Graphics/SVG/1.1/DTD/svg11.dtd"><svg width="100%" height="100%" viewBox="0 0 61 61" version="1.1" xmlns="http://www.w3.org/2000/svg" xmlns:xlink="http://www.w3.org/1999/xlink" xml:space="preserve" xmlns:serif="http://www.serif.com/" style="fill-rule:evenodd;clip-rule:evenodd;stroke-linejoin:round;stroke-miterlimit:1.41421;"><clipPath id="_clip1"><rect id="медаль" x="0" y="0" width="60.92" height="60.92"/></clipPath><g clip-path="url(#_clip1)"><g><path d="M30.46,22.725c-8.106,0 -14.701,6.595 -14.701,14.701c0,8.107 6.595,14.701 14.701,14.701l0,-3.768c-6.028,0 -10.933,-4.904 -10.933,-10.933c0,-6.028 4.905,-10.933 10.933,-10.933c6.028,0 10.933,4.905 10.933,10.933l3.768,0c0,-8.106 -6.595,-14.701 -14.701,-14.701Z" style="fill:#e11111;fill-rule:nonzero;"/><path d="M46.428,20.211c0,0 5.139,-12.408 7.365,-17.78c0.224,-0.542 0.163,-1.161 -0.163,-1.649c-0.326,-0.489 -0.875,-0.782 -1.462,-0.782l-15.043,0l-5.779,13.951c-0.294,-0.011 -0.589,-0.018 -0.886,-0.018c-0.297,0 -0.592,0.007 -0.887,0.018l-5.778,-13.951l-15.019,0c-0.592,0 -1.146,0.296 -1.475,0.789c-0.33,0.493 -0.391,1.117 -0.164,1.665c2.23,5.384 7.355,17.757 7.355,17.757c-4.626,4.293 -7.526,10.422 -7.526,17.215c0,12.955 10.539,23.494 23.494,23.494c12.954,0 23.493,-10.539 23.493,-23.494c0,-6.793 -2.899,-12.922 -7.525,-17.215Zm-6.785,-16.443l9.517,0l-5.81,14.027c-2.431,-1.602 -5.175,-2.765 -8.119,-3.375l4.412,-10.652Zm-27.883,0l9.517,0l4.412,10.652c-2.944,0.61 -5.688,1.773 -8.119,3.375l-5.81,-14.027Zm18.7,53.384c-10.877,0 -19.725,-8.849 -19.725,-19.726c0,-10.876 8.848,-19.725 19.725,-19.725c10.876,0 19.725,8.849 19.725,19.725c0,10.877 -8.849,19.726 -19.725,19.726Z" style="fill:#e11111;fill-rule:nonzero;"/></g></g></svg>