<?xml version="1.0" encoding="UTF-8" standalone="no"?><!DOCTYPE svg PUBLIC "-//W3C//DTD SVG 1.1//EN" "http://www.w3.org/Graphics/SVG/1.1/DTD/svg11.dtd"><svg width="100%" height="100%" viewBox="0 0 61 60" version="1.1" xmlns="http://www.w3.org/2000/svg" xmlns:xlink="http://www.w3.org/1999/xlink" xml:space="preserve" xmlns:serif="http://www.serif.com/" style="fill-rule:evenodd;clip-rule:evenodd;stroke-linejoin:round;stroke-miterlimit:1.41421;"><clipPath id="_clip1"><rect id="_126472" serif:id="126472" x="0" y="0" width="60.104" height="59.828"/></clipPath><g clip-path="url(#_clip1)"><g><path d="M57.028,23.634l-4.219,-0.713c-0.439,-1.412 -1.004,-2.774 -1.695,-4.074l2.486,-3.462c1.055,-1.475 0.892,-3.487 -0.402,-4.762l-3.741,-3.724c-0.703,-0.7 -1.632,-1.087 -2.624,-1.087c-0.779,0 -1.52,0.237 -2.147,0.687l-3.491,2.475c-1.356,-0.713 -2.775,-1.3 -4.244,-1.738l-0.703,-4.149c-0.301,-1.787 -1.845,-3.087 -3.666,-3.087l-5.286,0c-1.821,0 -3.365,1.3 -3.666,3.087l-0.728,4.249c-1.407,0.438 -2.775,1.013 -4.081,1.713l-3.453,-2.475c-0.628,-0.45 -1.381,-0.687 -2.159,-0.687c-0.992,0 -1.934,0.387 -2.625,1.087l-3.754,3.724c-1.28,1.275 -1.456,3.287 -0.401,4.762l2.511,3.512c-0.691,1.312 -1.243,2.675 -1.67,4.087l-4.169,0.7c-1.795,0.3 -3.101,1.837 -3.101,3.649l0,5.262c0,1.812 1.306,3.349 3.101,3.649l4.269,0.725c0.44,1.4 1.017,2.762 1.72,4.062l-2.473,3.424c-1.055,1.475 -0.892,3.487 0.402,4.762l3.741,3.724c0.703,0.7 1.632,1.088 2.624,1.088c0.779,0 1.52,-0.238 2.147,-0.688l3.529,-2.499c1.268,0.662 2.599,1.199 3.967,1.624l0.703,4.2c0.302,1.787 1.846,3.087 3.666,3.087l5.299,0c1.821,0 3.365,-1.3 3.666,-3.087l0.716,-4.2c1.419,-0.437 2.787,-0.999 4.093,-1.687l3.478,2.475c0.628,0.45 1.381,0.687 2.16,0.687c0.991,0 1.921,-0.387 2.624,-1.087l3.741,-3.725c1.281,-1.274 1.457,-3.287 0.402,-4.761l-2.486,-3.475c0.691,-1.312 1.268,-2.674 1.695,-4.074l4.219,-0.7c1.795,-0.3 3.101,-1.837 3.101,-3.649l0,-5.262c0.025,-1.812 -1.281,-3.349 -3.076,-3.649Zm-0.289,8.911c0,0.162 -0.113,0.3 -0.276,0.325l-5.273,0.874c-0.666,0.113 -1.193,0.6 -1.357,1.238c-0.477,1.837 -1.205,3.599 -2.184,5.236c-0.339,0.575 -0.314,1.288 0.075,1.838l3.101,4.349c0.088,0.125 0.076,0.312 -0.037,0.425l-3.742,3.724c-0.088,0.088 -0.176,0.1 -0.238,0.1c-0.076,0 -0.139,-0.025 -0.189,-0.062l-4.357,-3.087c-0.539,-0.388 -1.268,-0.413 -1.845,-0.075c-1.645,0.975 -3.415,1.699 -5.261,2.174c-0.653,0.163 -1.143,0.7 -1.243,1.35l-0.892,5.249c-0.025,0.163 -0.163,0.275 -0.326,0.275l-5.286,0c-0.163,0 -0.301,-0.112 -0.326,-0.275l-0.879,-5.249c-0.113,-0.662 -0.603,-1.187 -1.243,-1.35c-1.796,-0.462 -3.528,-1.174 -5.148,-2.099c-0.264,-0.15 -0.565,-0.225 -0.854,-0.225c-0.339,0 -0.69,0.1 -0.979,0.312l-4.395,3.112c-0.063,0.038 -0.125,0.063 -0.188,0.063c-0.05,0 -0.151,-0.013 -0.239,-0.1l-3.741,-3.725c-0.113,-0.112 -0.126,-0.287 -0.038,-0.425l3.089,-4.311c0.389,-0.55 0.414,-1.275 0.075,-1.85c-0.979,-1.625 -1.733,-3.387 -2.21,-5.224c-0.175,-0.638 -0.703,-1.125 -1.356,-1.238l-5.311,-0.899c-0.163,-0.025 -0.276,-0.163 -0.276,-0.325l0,-5.262c0,-0.162 0.113,-0.3 0.276,-0.325l5.236,-0.875c0.665,-0.112 1.205,-0.6 1.369,-1.25c0.464,-1.837 1.18,-3.611 2.147,-5.249c0.339,-0.575 0.301,-1.287 -0.088,-1.824l-3.127,-4.375c-0.088,-0.125 -0.075,-0.312 0.038,-0.425l3.742,-3.724c0.087,-0.087 0.175,-0.1 0.238,-0.1c0.075,0 0.138,0.025 0.188,0.063l4.332,3.074c0.553,0.387 1.281,0.412 1.858,0.075c1.633,-0.975 3.403,-1.725 5.249,-2.2c0.64,-0.175 1.13,-0.699 1.243,-1.349l0.904,-5.287c0.025,-0.162 0.163,-0.275 0.326,-0.275l5.286,0c0.163,0 0.301,0.113 0.327,0.275l0.878,5.212c0.113,0.662 0.603,1.199 1.256,1.362c1.896,0.475 3.704,1.212 5.386,2.2c0.578,0.337 1.294,0.312 1.846,-0.075l4.332,-3.1c0.063,-0.037 0.125,-0.062 0.188,-0.062c0.05,0 0.151,0.012 0.239,0.1l3.741,3.724c0.113,0.112 0.126,0.287 0.038,0.425l-3.101,4.337c-0.39,0.537 -0.415,1.262 -0.076,1.837c0.98,1.637 1.708,3.399 2.185,5.236c0.163,0.65 0.703,1.138 1.356,1.238l5.273,0.887c0.164,0.025 0.277,0.163 0.277,0.325l0,5.262l-0.013,0Z" style="fill:#e11111;fill-rule:nonzero;"/><path d="M30.058,16.997c-7.156,0 -12.97,5.787 -12.97,12.911c0,7.123 5.814,12.91 12.97,12.91c7.157,0 12.97,-5.787 12.97,-12.91c0,-7.124 -5.813,-12.911 -12.97,-12.911Zm0,22.447c-5.286,0 -9.58,-4.275 -9.58,-9.536c0,-5.262 4.294,-9.536 9.58,-9.536c5.286,0 9.58,4.274 9.58,9.536c0,5.261 -4.294,9.536 -9.58,9.536Z" style="fill:#e11111;fill-rule:nonzero;"/></g></g></svg>