<?xml version="1.0" encoding="UTF-8" standalone="no"?><!DOCTYPE svg PUBLIC "-//W3C//DTD SVG 1.1//EN" "http://www.w3.org/Graphics/SVG/1.1/DTD/svg11.dtd"><svg width="100%" height="100%" viewBox="0 0 70 70" version="1.1" xmlns="http://www.w3.org/2000/svg" xmlns:xlink="http://www.w3.org/1999/xlink" xml:space="preserve" xmlns:serif="http://www.serif.com/" style="fill-rule:evenodd;clip-rule:evenodd;stroke-linejoin:round;stroke-miterlimit:1.41421;"><path d="M63.986,37.119c0.976,-1.09 1.571,-2.528 1.571,-4.101c0,-3.392 -2.351,-5.879 -5.743,-5.879l-11.837,0l-0.377,0c1.183,-3.589 1.55,-8.625 1.55,-10.666l0,-2.049c0,-4.523 -3.27,-7.93 -7.793,-7.93l-2.05,0c-0.941,0 -1.488,0.367 -1.716,1.28l-1.117,4.469c-1.566,6.259 -6.809,13.165 -11.952,14.42c-0.901,-2.281 -3.126,-3.079 -5.723,-3.079l-12.305,0c-1.132,0 -2.051,1.055 -2.051,2.187l0,35.137c0,1.132 0.919,2.598 2.051,2.598l12.305,0c2.446,0 4.562,-1.161 5.553,-3.234l7.047,2.076c2.304,0.768 4.704,1.158 7.134,1.158l17.18,0c3.392,0 5.742,-2.487 5.742,-5.879c0,-0.8 -0.153,-1.565 -0.432,-2.267c2.609,-0.712 4.534,-3.103 4.534,-5.936c0,-1.574 -0.595,-3.012 -1.571,-4.102c0.976,-1.089 1.571,-2.528 1.571,-4.101c0,-1.574 -0.595,-3.012 -1.571,-4.102Zm-42.59,19.961c0,1.131 -1.056,2.734 -2.187,2.734l-11.348,0l0.137,-32.675l11.211,0c1.131,0 2.187,1.603 2.187,2.734l0,27.207Zm34.317,-18.184l4.101,0c1.131,0 2.325,1.194 2.325,2.325c0,1.13 -1.194,2.324 -2.325,2.324l-4.101,0c-1.132,0 -2.051,0.645 -2.051,1.777c0,1.132 0.919,1.778 2.051,1.778l4.101,0c1.131,0 2.461,1.193 2.461,2.324c0,1.13 -1.33,2.324 -2.461,2.324l-4.101,0c-1.132,0 -2.051,0.645 -2.051,1.777c0,1.132 0.919,1.914 2.051,1.914c1.131,0 2.461,1.057 2.461,2.188c0,1.131 -1.33,2.187 -2.461,2.187l-17.18,0c-1.988,0 -3.953,-0.318 -5.838,-0.947l-7.744,-2.171l0,-26.334c3.217,-0.611 6.229,-2.784 9.071,-6.119c2.776,-3.257 5.026,-7.711 6.02,-11.688l0.319,-2.506l0.45,0c2.261,0 4.921,2.113 4.921,4.375l0,2.049c0,2.754 -1.134,8.309 -2.236,10.666l-4.189,0c-1.132,0 -2.051,0.645 -2.051,1.777c0,1.132 0.919,1.914 2.051,1.914l20.507,0c1.131,0 2.325,1.057 2.325,2.188c0,1.13 -1.194,2.324 -2.325,2.324l-4.101,0c-1.132,0 -2.051,0.645 -2.051,1.777c0,1.132 0.919,1.777 2.051,1.777Z" style="fill:#e11111;fill-rule:nonzero;"/><circle cx="14.424" cy="53.525" r="1.709" style="fill:#e11111;"/></svg>