<?xml version="1.0" encoding="UTF-8" standalone="no"?><!DOCTYPE svg PUBLIC "-//W3C//DTD SVG 1.1//EN" "http://www.w3.org/Graphics/SVG/1.1/DTD/svg11.dtd"><svg width="100%" height="100%" viewBox="0 0 61 61" version="1.1" xmlns="http://www.w3.org/2000/svg" xmlns:xlink="http://www.w3.org/1999/xlink" xml:space="preserve" xmlns:serif="http://www.serif.com/" style="fill-rule:evenodd;clip-rule:evenodd;stroke-linejoin:round;stroke-miterlimit:1.41421;"><g><circle cx="9.392" cy="50.712" r="1.878" style="fill:#e11111;"/><path d="M58.749,11.788c-0.235,-0.585 -0.748,-1.013 -1.366,-1.139c-0.62,-0.129 -1.259,0.066 -1.704,0.512l-9.269,9.269c-0.732,0.733 -1.925,0.734 -2.657,0.001l-4.079,-4.081c-0.355,-0.354 -0.55,-0.825 -0.55,-1.327c0,-0.501 0.195,-0.973 0.55,-1.328l9.269,-9.269c0.447,-0.446 0.638,-1.087 0.512,-1.705c-0.126,-0.619 -0.555,-1.131 -1.14,-1.367c-3.601,-1.445 -7.524,-1.739 -11.341,-0.853c-7.356,1.709 -13.066,7.867 -14.208,15.327c-0.15,0.985 -0.227,1.978 -0.227,2.952l0,6.736l-20.044,20.044c-1.609,1.609 -2.495,3.749 -2.495,6.024c0,2.277 0.886,4.415 2.496,6.024c1.608,1.61 3.748,2.496 6.024,2.496c2.275,0 4.415,-0.885 6.024,-2.495l20.044,-20.044l6.736,0c0.98,0 1.975,-0.077 2.954,-0.227c7.458,-1.14 13.616,-6.85 15.325,-14.207c0.888,-3.82 0.593,-7.744 -0.854,-11.343Zm-2.806,10.494c-1.363,5.873 -6.28,10.433 -12.233,11.343c-0.793,0.121 -1.595,0.184 -2.386,0.184l-7.513,0c-0.498,0 -0.976,0.197 -1.328,0.549l-20.595,20.594c-1.857,1.857 -4.88,1.857 -6.736,0c-0.9,-0.899 -1.395,-2.096 -1.395,-3.368c0,-1.272 0.495,-2.468 1.395,-3.368l20.594,-20.594c0.352,-0.353 0.55,-0.83 0.55,-1.328l0,-7.514c0,-0.785 0.062,-1.588 0.183,-2.385c0.912,-5.954 5.47,-10.871 11.344,-12.234c1.158,-0.27 2.328,-0.403 3.49,-0.403c0.919,0 1.834,0.083 2.735,0.25l-7.03,7.03c-1.065,1.065 -1.651,2.48 -1.651,3.985c0,1.505 0.586,2.921 1.651,3.984l4.079,4.081c2.198,2.196 5.772,2.193 7.969,-0.001l7.031,-7.031c0.377,2.04 0.329,4.15 -0.154,6.226Z" style="fill:#e11111;fill-rule:nonzero;"/></g></svg>